<svg width="1440" height="1024" viewBox="0 0 1440 1024" fill="none" xmlns="http://www.w3.org/2000/svg">
<g clip-path="url(#clip0_82_25389)">
<rect width="1440" height="1024" fill="#BC0D0D"/>
<path opacity="0.08" d="M714.031 382.703L386.931 1443.57L245.461 1389.12L714.031 382.703Z" fill="white"/>
<path opacity="0.08" d="M748.493 455.845L1225.88 1458.11L1084.89 1513.8L748.493 455.845Z" fill="white"/>
<path opacity="0.08" d="M689.445 461.279L11.4293 1340.32L-102 1239.76L689.445 461.279Z" fill="white"/>
<path opacity="0.08" d="M631.226 522.085L-330.398 1076.8L-397 940.627L631.226 522.085Z" fill="white"/>
<path opacity="0.08" d="M752.981 542.868L-354.575 618.661L-354.575 467.075L752.981 542.868Z" fill="white"/>
<path opacity="0.08" d="M688.414 531.824L-400 313.234L-360.075 167L688.414 531.824Z" fill="white"/>
<path opacity="0.08" d="M792.501 481.157L1650.28 -223.565L1738.29 -100.142L792.501 481.157Z" fill="white"/>
<path opacity="0.08" d="M823.523 506.787L1852.87 91L1899.91 235.101L823.523 506.787Z" fill="white"/>
<path opacity="0.08" d="M785 522.793L1892.56 447L1892.56 598.586L785 522.793Z" fill="white"/>
<path opacity="0.08" d="M813.617 559.21L1903.05 772.657L1863.82 919.078L813.617 559.21Z" fill="white"/>
<path opacity="0.08" d="M770.202 526.979L1606.96 1256.55L1499.77 1363.73L770.202 526.979Z" fill="white"/>
<path opacity="0.08" d="M775.476 489.676L1199.03 -536.494L1334.88 -469.228L775.476 489.676Z" fill="white"/>
<path opacity="0.08" d="M743.576 546.536L124.159 -374.74L255.437 -450.533L743.576 546.536Z" fill="white"/>
<path opacity="0.08" d="M678.411 496.789L-318.658 8.64978L-242.865 -122.628L678.411 496.789Z" fill="white"/>
<path opacity="0.08" d="M730.793 485.556L655 -622L806.586 -622L730.793 485.556Z" fill="white"/>
<path opacity="0.08" d="M720.793 443L796.586 1550.56L645 1550.56L720.793 443Z" fill="white"/>
<g filter="url(#filter0_f_82_25389)">
<rect x="467" y="255" width="508" height="508" rx="254" fill="#DDDDDD" fill-opacity="0.7"/>
</g>
<path d="M1700.74 292.029V1024.01H40.3682C90.9492 948.81 207.901 956.028 293.551 918.866C321.044 906.928 346.671 889.517 376.147 883.965C446.445 870.718 524.994 927.036 586.326 890.152C610.883 875.398 616.368 841.885 652.868 848C704.368 848 686.868 841 723.868 828.5C760.868 816 816.63 838.765 855.894 822.61C870.929 810.355 882.037 793.816 897.152 781.68C972.25 721.554 1101.54 794.966 1173.58 731.152C1186.95 719.333 1196.71 703.667 1210.87 692.761C1264.03 651.672 1355.99 691.174 1400.62 640.924C1429.46 608.442 1421.57 553.71 1452.16 522.894C1487.3 487.517 1553.12 503.222 1589.1 468.678C1618.58 440.36 1613.97 393.243 1621.99 353.186C1627.82 323.837 1666.18 273.389 1700.74 292.029Z" fill="white"/>
<path d="M942.655 868.814C924.01 872.979 901.913 866.633 887.234 878.848C879.459 885.313 875.967 895.585 869.184 903.081C854.823 918.945 830.266 918.707 808.883 917.28C813.842 934.096 834.233 941.552 851.728 940.283C869.223 939.014 885.766 931.677 903.182 929.614C932.618 926.164 962.729 937.943 991.768 931.954C1000.38 930.169 1008.63 926.878 1017.32 925.688C1032.43 923.625 1047.86 928.067 1062.94 925.846C1078.01 923.625 1093.68 909.744 1088.8 895.268C1084.72 883.092 1068.77 878.412 1063.97 866.514C1030.41 783.385 999.068 856.202 942.655 868.814Z" fill="#E3F4FF"/>
<path d="M1256.61 817.494C1256.69 814.559 1257.57 811.346 1259.31 807.777C1269.47 786.915 1315.65 781.799 1335.08 780.807C1354.8 779.816 1374.99 778.904 1394 772.955C1418.79 765.181 1449.3 743.645 1461.8 720.365C1467.15 710.41 1472.71 697.441 1484.01 696.965C1492.86 696.568 1499.84 704.58 1508.49 706.642C1519.95 709.379 1530.98 701.169 1539.15 692.721C1545.18 686.494 1551.33 679.514 1559.78 677.571C1568.23 675.667 1578.95 682.449 1576.96 690.857C1576.17 694.268 1573.51 697.044 1572.56 700.415C1569.9 709.855 1580.61 717.39 1583.98 726.591C1585.05 729.566 1585.37 732.818 1586.96 735.515C1588.7 738.529 1591.72 740.552 1594.65 742.416C1606.95 750.348 1619.21 758.28 1631.51 766.212C1634.37 768.076 1637.38 770.059 1639.05 773.034C1642.9 780.014 1632.66 791.238 1627.58 795.323C1613.74 806.508 1595.33 811.901 1577.64 809.998C1567.96 808.967 1558.63 805.833 1549.15 803.731C1530.78 799.646 1512.18 801.748 1493.81 798.655C1483.02 796.83 1472.23 795.046 1461.44 793.221C1454.14 791.992 1446.05 790.921 1439.94 795.046C1431.8 800.519 1431.25 812.02 1426.96 820.825C1420.22 834.667 1401.89 841.528 1387.73 835.539C1382.17 833.199 1376.94 829.075 1370.91 829.352C1366.35 829.551 1362.34 832.168 1358.29 834.349C1340.96 843.67 1255.62 848.548 1256.61 817.494Z" fill="#E3F4FF"/>
<path d="M1182.35 955.671C1180.05 955.037 1177.95 954.719 1175.96 954.64C1178.03 955.235 1180.17 955.552 1182.35 955.671Z" fill="#E3F4FF"/>
<path d="M1182.67 955.711L1182.71 955.671C1182.59 955.671 1182.47 955.671 1182.35 955.671C1182.47 955.671 1182.55 955.671 1182.67 955.711Z" fill="#E3F4FF"/>
<path d="M1204.76 950.238C1190.44 956.623 1169.14 959.082 1154.14 953.252C1149.82 951.586 1145.5 949.881 1141.17 948.175C1140.14 947.779 1138.99 947.303 1138.43 946.351C1137.01 944.051 1139.58 941.393 1141.92 940.084C1149.58 935.801 1158.27 933.382 1165.29 928.107C1168.19 925.926 1170.73 923.348 1173.78 921.365C1181.16 916.605 1189.97 916.923 1198.34 916.01C1215.16 914.186 1226.31 917.795 1241.7 923.229C1251.66 926.719 1262.45 922.911 1272.68 920.452C1282.92 917.993 1295.41 917.597 1302.2 925.688C1306.8 931.161 1307.55 939.41 1313.03 944.09C1315.25 945.994 1318.46 948.017 1317.67 950.833C1317.03 953.014 1314.38 953.688 1312.12 953.926C1293.91 955.988 1275.18 953.688 1258 947.303C1250.82 944.645 1243.72 941.235 1236.07 940.798C1225.08 940.164 1214.84 945.716 1204.76 950.238Z" fill="#E3F4FF"/>
<path d="M-261 292.029V1024.01H1399.37C1348.79 948.81 1231.84 956.028 1146.19 918.866C1118.69 906.928 1093.07 889.517 1063.59 883.965C993.291 870.718 914.742 927.036 853.41 890.152C828.853 875.398 812.31 847.477 784.818 839.346C766.966 834.072 747.844 838.315 729.556 841.885C679.808 851.602 623.038 854.695 583.843 822.61C568.807 810.355 557.699 793.816 542.584 781.68C467.486 721.554 338.197 794.966 266.154 731.152C252.785 719.333 243.026 703.667 228.863 692.761C175.703 651.672 83.7448 691.174 39.1144 640.924C10.2732 608.442 18.1678 553.71 -12.4188 522.894C-47.5676 487.517 -113.383 503.222 -149.365 468.678C-178.84 440.36 -174.239 393.243 -182.252 353.186C-188.084 323.837 -226.446 273.389 -261 292.029Z" fill="white"/>
<path d="M497.081 868.814C515.727 872.979 537.824 866.633 552.502 878.848C560.278 885.313 563.769 895.585 570.553 903.081C584.914 918.945 609.47 918.707 630.853 917.28C625.894 934.096 605.503 941.552 588.008 940.283C570.513 939.014 553.97 931.677 536.554 929.614C507.118 926.164 477.007 937.943 447.968 931.954C439.359 930.169 431.108 926.878 422.42 925.688C407.305 923.625 391.873 928.067 376.797 925.846C361.722 923.625 346.052 909.744 350.932 895.268C355.018 883.092 370.966 878.412 375.766 866.514C409.328 783.385 440.668 856.202 497.081 868.814Z" fill="#E3F4FF"/>
<path d="M183.122 817.494C183.042 814.559 182.169 811.346 180.424 807.777C170.268 786.915 124.091 781.799 104.652 780.807C84.9349 779.816 64.7419 778.904 45.7393 772.955C20.9447 765.181 -9.56255 743.645 -22.0591 720.365C-27.4147 710.41 -32.9688 697.441 -44.2752 696.965C-53.1219 696.568 -60.104 704.58 -68.7524 706.642C-80.2175 709.379 -91.246 701.169 -99.4184 692.721C-105.448 686.494 -111.598 679.514 -120.048 677.571C-128.498 675.667 -139.209 682.449 -137.225 690.857C-136.432 694.268 -133.774 697.044 -132.822 700.415C-130.164 709.855 -140.875 717.39 -144.247 726.591C-145.318 729.566 -145.636 732.818 -147.223 735.515C-148.968 738.529 -151.983 740.552 -154.919 742.416C-167.217 750.348 -179.475 758.28 -191.774 766.212C-194.63 768.076 -197.645 770.059 -199.311 773.034C-203.159 780.014 -192.924 791.238 -187.846 795.323C-174.001 806.508 -155.593 811.901 -137.9 809.998C-128.22 808.967 -118.897 805.833 -109.416 803.731C-91.0478 799.646 -72.4418 801.748 -54.0739 798.655C-43.2833 796.83 -32.4928 795.046 -21.7021 793.221C-14.4026 791.992 -6.30945 790.921 -0.200043 795.046C7.9326 800.519 8.48784 812.02 12.7724 820.825C19.5165 834.667 37.8448 841.528 52.0075 835.539C57.5615 833.199 62.7981 829.075 68.8281 829.352C73.3904 829.551 77.3971 832.168 81.4436 834.349C98.78 843.67 184.113 848.548 183.122 817.494Z" fill="#E3F4FF"/>
<path d="M257.387 955.671C259.688 955.037 261.79 954.719 263.774 954.64C261.711 955.235 259.569 955.552 257.387 955.671Z" fill="#E3F4FF"/>
<path d="M257.069 955.711L257.03 955.671C257.149 955.671 257.268 955.671 257.387 955.671C257.268 955.671 257.188 955.671 257.069 955.711Z" fill="#E3F4FF"/>
<path d="M234.972 950.238C249.293 956.623 270.597 959.082 285.593 953.252C289.917 951.586 294.241 949.881 298.566 948.175C299.597 947.779 300.747 947.303 301.303 946.351C302.731 944.051 300.152 941.393 297.812 940.084C290.155 935.801 281.467 933.382 274.445 928.107C271.549 925.926 269.01 923.348 265.955 921.365C258.577 916.605 249.769 916.923 241.399 916.01C224.578 914.186 213.43 917.795 198.038 923.229C188.08 926.719 177.29 922.911 167.055 920.452C156.819 917.993 144.323 917.597 137.539 925.688C132.937 931.161 132.183 939.41 126.709 944.09C124.487 945.994 121.274 948.017 122.067 950.833C122.702 953.014 125.36 953.688 127.621 953.926C145.83 955.988 164.555 953.688 181.733 947.303C188.914 944.645 196.015 941.235 203.671 940.798C214.66 940.164 224.896 945.716 234.972 950.238Z" fill="#E3F4FF"/>
<path d="M1045.77 359.973C1043.74 359.973 1042.1 358.329 1042.1 356.302C1042.1 354.275 1043.74 352.632 1045.77 352.632C1047.79 352.632 1049.44 354.275 1049.44 356.302C1049.44 358.329 1047.79 359.973 1045.77 359.973Z" fill="white"/>
<path d="M925.297 356.278C925.297 342.943 914.487 332.136 901.148 332.136C887.81 332.136 877 342.943 877 356.278C877 369.613 887.81 380.419 901.148 380.419C914.487 380.419 925.297 369.572 925.297 356.278Z" fill="white"/>
<path d="M1285.94 591.871C1279.38 591.871 1274.07 586.558 1274.07 580.004C1274.07 573.451 1279.38 568.137 1285.94 568.137C1292.49 568.137 1297.81 573.451 1297.81 580.004C1297.81 586.558 1292.49 591.871 1285.94 591.871Z" fill="white"/>
<path d="M95.3287 77.8382C93.3011 77.8382 91.6573 76.195 91.6573 74.168C91.6573 72.141 93.3011 70.4978 95.3287 70.4978C97.3562 70.4978 99 72.141 99 74.168C99 76.195 97.3562 77.8382 95.3287 77.8382Z" fill="white"/>
<path d="M137.343 673.43C132.409 673.43 128.41 669.432 128.41 664.5C128.41 659.567 132.409 655.569 137.343 655.569C142.277 655.569 146.276 659.567 146.276 664.5C146.276 669.432 142.277 673.43 137.343 673.43Z" fill="white"/>
<path d="M181.112 203.36C174.557 203.36 169.242 198.046 169.242 191.492C169.242 184.939 174.557 179.625 181.112 179.625C187.668 179.625 192.982 184.939 192.982 191.492C192.982 198.046 187.668 203.36 181.112 203.36Z" fill="white"/>
<path d="M174.953 383.158C174.953 381.119 173.321 379.488 171.282 379.488C169.242 379.488 167.61 381.119 167.61 383.158C167.61 385.197 169.242 386.828 171.282 386.828C173.321 386.828 174.953 385.197 174.953 383.158Z" fill="white"/>
<path d="M162.348 824.765C162.348 822.726 160.716 821.094 158.677 821.094C156.637 821.094 155.006 822.726 155.006 824.765C155.006 826.804 156.637 828.435 158.677 828.435C160.716 828.435 162.348 826.763 162.348 824.765Z" fill="white"/>
<path d="M735.912 1015.37C730.978 1015.37 726.979 1011.37 726.979 1006.44C726.979 1001.51 730.978 997.509 735.912 997.509C740.846 997.509 744.845 1001.51 744.845 1006.44C744.845 1011.37 740.846 1015.37 735.912 1015.37Z" fill="white"/>
<path d="M578.254 946.289C570.301 946.289 563.854 939.844 563.854 931.894C563.854 923.943 570.301 917.498 578.254 917.498C586.206 917.498 592.653 923.943 592.653 931.894C592.653 939.844 586.206 946.289 578.254 946.289Z" fill="white"/>
<path d="M735.911 935.931C735.911 937.97 737.543 939.601 739.582 939.601C741.622 939.601 743.253 937.97 743.253 935.931C743.253 933.892 741.622 932.26 739.582 932.26C737.543 932.26 735.911 933.892 735.911 935.931Z" fill="white"/>
<path d="M1074.5 260.447C1066.55 260.447 1060.1 254.002 1060.1 246.052C1060.1 238.102 1066.55 231.657 1074.5 231.657C1082.45 231.657 1088.9 238.102 1088.9 246.052C1088.9 254.002 1082.45 260.447 1074.5 260.447Z" fill="white"/>
<path d="M1131.56 892.449C1123.6 892.449 1117.16 886.004 1117.16 878.054C1117.16 870.104 1123.6 863.659 1131.56 863.659C1139.51 863.659 1145.95 870.104 1145.95 878.054C1145.95 886.004 1139.51 892.449 1131.56 892.449Z" fill="white"/>
<path d="M1403.67 108.476C1401.64 108.476 1400 106.833 1400 104.806C1400 102.779 1401.64 101.136 1403.67 101.136C1405.7 101.136 1407.34 102.779 1407.34 104.806C1407.34 106.833 1405.7 108.476 1403.67 108.476Z" fill="white"/>
<path d="M1399.6 948.355C1394.66 948.355 1390.66 944.356 1390.66 939.424C1390.66 934.491 1394.66 930.493 1399.6 930.493C1404.53 930.493 1408.53 934.491 1408.53 939.424C1408.53 944.356 1404.53 948.355 1399.6 948.355Z" fill="white"/>
<path d="M1364.87 750.87C1358.31 750.87 1353 745.557 1353 739.003C1353 732.449 1358.31 727.136 1364.87 727.136C1371.43 727.136 1376.74 732.449 1376.74 739.003C1376.74 745.557 1371.43 750.87 1364.87 750.87Z" fill="white"/>
<path d="M921.788 606.853C921.788 604.814 920.157 603.183 918.117 603.183C916.078 603.183 914.446 604.814 914.446 606.853C914.446 608.892 916.078 610.524 918.117 610.524C920.157 610.524 921.788 608.892 921.788 606.853Z" fill="white"/>
<path d="M1407.7 568.702C1405.67 568.702 1404.03 567.059 1404.03 565.032C1404.03 563.005 1405.67 561.362 1407.7 561.362C1409.73 561.362 1411.37 563.005 1411.37 565.032C1411.37 567.059 1409.73 568.702 1407.7 568.702Z" fill="white"/>
<path d="M1092.01 109.029C1085.45 109.029 1080.14 103.716 1080.14 97.1617C1080.14 90.6077 1085.45 85.2947 1092.01 85.2947C1098.57 85.2947 1103.88 90.6077 1103.88 97.1617C1103.88 103.716 1098.57 109.029 1092.01 109.029Z" fill="white"/>
<path d="M925.427 105.447C923.399 105.447 921.756 103.803 921.756 101.776C921.756 99.7494 923.399 98.1062 925.427 98.1062C927.454 98.1062 929.098 99.7494 929.098 101.776C929.098 103.803 927.454 105.447 925.427 105.447Z" fill="white"/>
<path d="M1053.74 667.801C1048.81 667.801 1044.81 663.803 1044.81 658.87C1044.81 653.938 1048.81 649.939 1053.74 649.939C1058.68 649.939 1062.68 653.938 1062.68 658.87C1062.68 663.803 1058.68 667.801 1053.74 667.801Z" fill="white"/>
<path d="M970.867 775.829C970.867 773.79 969.235 772.158 967.196 772.158C965.156 772.158 963.525 773.79 963.525 775.829C963.525 777.868 965.156 779.499 967.196 779.499C969.235 779.499 970.867 777.827 970.867 775.829Z" fill="white"/>
<path d="M1009.67 522.476C1007.64 522.476 1006 520.833 1006 518.806C1006 516.779 1007.64 515.136 1009.67 515.136C1011.7 515.136 1013.34 516.779 1013.34 518.806C1013.34 520.833 1011.7 522.476 1009.67 522.476Z" fill="white"/>
<path d="M1239.07 300.336C1237.05 300.336 1235.4 298.692 1235.4 296.665C1235.4 294.639 1237.05 292.995 1239.07 292.995C1241.1 292.995 1242.74 294.639 1242.74 296.665C1242.74 298.692 1241.1 300.336 1239.07 300.336Z" fill="white"/>
<g opacity="0.25">
<path opacity="0.25" d="M391.268 98.31C391.268 111.645 402.078 122.452 415.416 122.452C428.755 122.452 439.565 111.645 439.565 98.31C439.565 84.975 428.755 74.1682 415.416 74.1682C402.078 74.1682 391.268 84.975 391.268 98.31Z" fill="white"/>
<path opacity="0.25" d="M97.6128 857.511C97.6128 844.176 86.8032 833.369 73.4645 833.369C60.1258 833.369 49.3162 844.176 49.3162 857.511C49.3162 870.846 60.1258 881.652 73.4645 881.652C86.8032 881.652 97.6128 870.846 97.6128 857.511Z" fill="white"/>
<path opacity="0.25" d="M82.9285 275.785C82.9285 262.45 72.1186 251.643 58.7799 251.643C45.4412 251.643 34.6316 262.45 34.6316 275.785C34.6316 289.12 45.4412 299.926 58.7799 299.926C72.1186 299.926 82.9285 289.079 82.9285 275.785Z" fill="white"/>
<path opacity="0.25" d="M331.876 968.759C331.876 982.094 342.686 992.9 356.025 992.9C369.363 992.9 380.173 982.094 380.173 968.759C380.173 955.423 369.363 944.617 356.025 944.617C342.686 944.617 331.876 955.423 331.876 968.759Z" fill="white"/>
<path opacity="0.25" d="M566.384 742.96C566.384 729.625 555.574 718.818 542.236 718.818C528.897 718.818 518.088 729.625 518.088 742.96C518.088 756.295 528.897 767.101 542.236 767.101C555.574 767.101 566.384 756.295 566.384 742.96Z" fill="white"/>
<path opacity="0.25" d="M774.866 968.759C774.866 982.094 785.676 992.9 799.015 992.9C812.353 992.9 823.163 982.094 823.163 968.759C823.163 955.423 812.353 944.617 799.015 944.617C785.676 944.617 774.866 955.423 774.866 968.759Z" fill="white"/>
<path opacity="0.25" d="M1272.03 922.392C1272.03 909.057 1261.22 898.25 1247.88 898.25C1234.54 898.25 1223.73 909.057 1223.73 922.392C1223.73 935.727 1234.54 946.534 1247.88 946.534C1261.22 946.534 1272.03 935.727 1272.03 922.392Z" fill="white"/>
<path opacity="0.25" d="M1363.81 207.478C1363.81 194.143 1353 183.336 1339.66 183.336C1326.32 183.336 1315.51 194.143 1315.51 207.478C1315.51 220.813 1326.32 231.62 1339.66 231.62C1353 231.62 1363.81 220.772 1363.81 207.478Z" fill="white"/>
<path opacity="0.25" d="M878.914 703.18C878.914 689.845 868.104 679.039 854.765 679.039C841.427 679.039 830.617 689.845 830.617 703.18C830.617 716.515 841.427 727.322 854.765 727.322C868.063 727.322 878.914 716.515 878.914 703.18Z" fill="white"/>
</g>
<g opacity="0.5">
<path opacity="0.5" d="M1340.84 494.612C1334.28 494.612 1328.97 489.299 1328.97 482.745C1328.97 476.191 1334.28 470.878 1340.84 470.878C1347.4 470.878 1352.71 476.191 1352.71 482.745C1352.71 489.299 1347.4 494.612 1340.84 494.612Z" fill="white"/>
<path opacity="0.5" d="M1202.13 188.011C1194.17 188.011 1187.73 181.566 1187.73 173.615C1187.73 165.665 1194.17 159.22 1202.13 159.22C1210.08 159.22 1216.52 165.665 1216.52 173.615C1216.52 181.566 1210.08 188.011 1202.13 188.011Z" fill="white"/>
<path opacity="0.5" d="M264.489 92.4786C257.934 92.4786 252.619 87.1655 252.619 80.6116C252.619 74.0576 257.934 68.7446 264.489 68.7446C271.045 68.7446 276.359 74.0576 276.359 80.6116C276.359 87.1655 271.045 92.4786 264.489 92.4786Z" fill="white"/>
</g>
<path d="M1252.26 660.829C1252.26 658.79 1250.63 657.159 1248.59 657.159C1246.55 657.159 1244.92 658.79 1244.92 660.829C1244.92 662.868 1246.55 664.5 1248.59 664.5C1250.63 664.5 1252.26 662.868 1252.26 660.829Z" fill="white"/>
<path d="M1166.8 728.198C1158.85 728.198 1152.4 721.753 1152.4 713.803C1152.4 705.852 1158.85 699.407 1166.8 699.407C1174.76 699.407 1181.2 705.852 1181.2 713.803C1181.2 721.753 1174.76 728.198 1166.8 728.198Z" fill="white"/>
<path d="M272.136 631.426C270.108 631.426 268.465 629.783 268.465 627.756C268.465 625.729 270.108 624.086 272.136 624.086C274.164 624.086 275.807 625.729 275.807 627.756C275.807 629.783 274.164 631.426 272.136 631.426Z" fill="white"/>
<path d="M261 871.294C261 873.333 262.632 874.964 264.671 874.964C266.711 874.964 268.342 873.333 268.342 871.294C268.342 869.255 266.711 867.624 264.671 867.624C262.632 867.624 261 869.255 261 871.294Z" fill="white"/>
<path d="M700.728 750.055C692.775 750.055 686.328 743.61 686.328 735.66C686.328 727.709 692.775 721.264 700.728 721.264C708.68 721.264 715.127 727.709 715.127 735.66C715.127 743.61 708.68 750.055 700.728 750.055Z" fill="white"/>
<path d="M1118.84 998.324C1113.9 998.324 1109.9 994.325 1109.9 989.393C1109.9 984.46 1113.9 980.462 1118.84 980.462C1123.77 980.462 1127.77 984.46 1127.77 989.393C1127.77 994.325 1123.77 998.324 1118.84 998.324Z" fill="white"/>
<path d="M1008.04 910.362C1000.09 910.362 993.645 903.917 993.645 895.967C993.645 888.016 1000.09 881.571 1008.04 881.571C1016 881.571 1022.44 888.016 1022.44 895.967C1022.44 903.917 1016 910.362 1008.04 910.362Z" fill="white"/>
<path d="M1341 334.806C1341 336.845 1342.63 338.476 1344.67 338.476C1346.71 338.476 1348.34 336.845 1348.34 334.806C1348.34 332.767 1346.71 331.136 1344.67 331.136C1342.63 331.136 1341 332.767 1341 334.806Z" fill="white"/>
<path d="M497.161 193.491C495.133 193.491 493.489 191.847 493.489 189.82C493.489 187.793 495.133 186.15 497.161 186.15C499.188 186.15 500.832 187.793 500.832 189.82C500.832 191.847 499.188 193.491 497.161 193.491Z" fill="white"/>
<path d="M196.041 953.548C191.108 953.548 187.108 949.549 187.108 944.617C187.108 939.685 191.108 935.686 196.041 935.686C200.975 935.686 204.975 939.685 204.975 944.617C204.975 949.549 200.975 953.548 196.041 953.548Z" fill="white"/>
<path d="M707.479 92.4786C700.924 92.4786 695.609 87.1655 695.609 80.6116C695.609 74.0576 700.924 68.7446 707.479 68.7446C714.035 68.7446 719.35 74.0576 719.35 80.6116C719.35 87.1655 714.035 92.4786 707.479 92.4786Z" fill="white"/>
<path d="M538.319 77.8384C536.292 77.8384 534.648 76.1952 534.648 74.1682C534.648 72.1412 536.292 70.498 538.319 70.498C540.347 70.498 541.99 72.1412 541.99 74.1682C541.99 76.1952 540.347 77.8384 538.319 77.8384Z" fill="white"/>
<path d="M10.5643 448.773C5.63053 448.773 1.63095 444.775 1.63095 439.843C1.63095 434.91 5.63053 430.912 10.5643 430.912C15.498 430.912 19.4976 434.91 19.4976 439.843C19.4976 444.775 15.498 448.773 10.5643 448.773Z" fill="white"/>
<path d="M605.339 775.829C605.339 773.79 603.707 772.158 601.668 772.158C599.628 772.158 597.996 773.79 597.996 775.829C597.996 777.868 599.628 779.499 601.668 779.499C603.707 779.499 605.339 777.827 605.339 775.829Z" fill="white"/>
<path d="M752.268 683.34C750.24 683.34 748.596 681.696 748.596 679.669C748.596 677.642 750.24 675.999 752.268 675.999C754.295 675.999 755.939 677.642 755.939 679.669C755.939 681.696 754.295 683.34 752.268 683.34Z" fill="white"/>
<path d="M879.377 849.742C879.377 851.781 881.009 853.412 883.048 853.412C885.088 853.412 886.72 851.781 886.72 849.742C886.72 847.703 885.088 846.072 883.048 846.072C881.009 846.031 879.377 847.703 879.377 849.742Z" fill="white"/>
<path d="M436.441 76.5816C436.757 75.9746 436.709 75.2947 436.053 74.9063C435.373 74.4935 434.668 74.5663 434.158 75.1733C433.746 75.6589 433.43 76.2174 433.114 76.7758C432.483 77.8684 431.875 78.9853 431.22 80.1022C430.394 81.5347 428.815 81.6075 427.917 80.2478C427.455 79.568 427.067 78.8153 426.654 78.1112C426.144 77.2371 425.634 76.3388 425.124 75.4647C424.662 74.6877 423.958 74.5178 423.157 74.8577C422.477 75.1491 422.307 75.9503 422.671 76.8486C422.792 77.14 422.987 77.4071 423.157 77.6742C423.837 78.8882 424.565 80.1022 425.221 81.3404C426.241 83.2586 425.488 84.5697 423.375 84.594C422.671 84.594 421.967 84.594 421.262 84.594C421.262 84.594 421.262 84.594 421.262 84.6182C420.242 84.6182 419.222 84.594 418.202 84.6182C417.376 84.6425 416.866 85.1038 416.842 85.9051C416.818 86.7063 417.352 87.1676 418.154 87.289C418.591 87.3619 419.052 87.3376 419.489 87.3376C420.947 87.3376 422.428 87.3619 423.885 87.3376C424.711 87.3133 425.148 87.7018 425.512 88.3816C425.901 89.0858 425.877 89.6442 425.464 90.324C424.541 91.8537 423.691 93.4076 422.841 94.9858C422.404 95.7628 422.428 96.4669 423.302 96.9282C424.152 97.3895 424.76 97.0496 425.245 96.3212C425.415 96.0541 425.561 95.7628 425.707 95.4957C426.411 94.2817 427.115 93.0677 427.844 91.878C428.84 90.2755 430.443 90.2755 431.414 91.8537C431.948 92.7278 432.434 93.6261 432.944 94.5002C433.308 95.1072 433.624 95.7142 434.037 96.2969C434.523 96.9525 435.154 97.4138 435.98 96.8796C436.757 96.3698 436.757 95.6171 436.368 94.8401C436.198 94.5002 436.028 94.1603 435.834 93.8204C435.154 92.6549 434.474 91.5138 433.818 90.3483C432.871 88.7216 433.673 87.3376 435.567 87.289C437.024 87.2648 438.506 87.289 439.963 87.2648C440.4 87.2648 440.862 87.2405 441.274 87.1191C441.882 86.9491 442.246 86.4878 442.294 85.8808C442.343 85.2252 442.003 84.8125 441.42 84.5454C440.886 84.3026 440.327 84.254 439.744 84.254C438.287 84.254 436.806 84.2055 435.348 84.2783C434.353 84.3269 433.867 83.7927 433.454 82.9915C433.114 82.2874 433.454 81.7775 433.77 81.219C434.693 79.6894 435.591 78.1598 436.441 76.5816ZM429.763 87.7018C428.67 87.7504 427.722 86.9491 427.625 85.9536C427.528 85.031 428.524 83.987 429.52 83.9627C430.467 83.9384 431.511 84.9339 431.535 85.8808C431.56 86.8763 430.807 87.6775 429.763 87.7018Z" fill="white"/>
<path d="M1444.76 16.9348C1445.07 16.3278 1445.02 15.648 1444.37 15.2595C1443.69 14.8468 1442.98 14.9196 1442.47 15.5266C1442.06 16.0122 1441.75 16.5706 1441.43 17.1291C1440.8 18.2217 1440.19 19.3386 1439.54 20.4554C1438.71 21.8879 1437.13 21.9608 1436.23 20.6011C1435.77 19.9213 1435.38 19.1686 1434.97 18.4645C1434.46 17.5904 1433.95 16.692 1433.44 15.818C1432.98 15.041 1432.27 14.871 1431.47 15.211C1430.79 15.5023 1430.62 16.3036 1430.99 17.2019C1431.11 17.4933 1431.3 17.7604 1431.47 18.0274C1432.15 19.2414 1432.88 20.4554 1433.54 21.6937C1434.56 23.6118 1433.8 24.9229 1431.69 24.9472C1430.99 24.9472 1430.28 24.9472 1429.58 24.9472V24.9715C1428.56 24.9715 1427.54 24.9472 1426.52 24.9715C1425.69 24.9958 1425.18 25.4571 1425.16 26.2583C1425.13 27.0596 1425.67 27.5209 1426.47 27.6423C1426.91 27.7151 1427.37 27.6909 1427.8 27.6909C1429.26 27.6909 1430.74 27.7151 1432.2 27.6909C1433.03 27.6666 1433.46 28.0551 1433.83 28.7349C1434.22 29.439 1434.19 29.9975 1433.78 30.6773C1432.86 32.2069 1432.01 33.7609 1431.16 35.3391C1430.72 36.116 1430.74 36.8201 1431.62 37.2815C1432.47 37.7428 1433.07 37.4028 1433.56 36.6744C1433.73 36.4074 1433.88 36.116 1434.02 35.8489C1434.73 34.6349 1435.43 33.4209 1436.16 32.2312C1437.15 30.6287 1438.76 30.6287 1439.73 32.2069C1440.26 33.081 1440.75 33.9794 1441.26 34.8535C1441.62 35.4605 1441.94 36.0674 1442.35 36.6502C1442.84 37.3057 1443.47 37.767 1444.3 37.2329C1445.07 36.723 1445.07 35.9703 1444.68 35.1934C1444.51 34.8535 1444.34 34.5135 1444.15 34.1736C1443.47 33.0082 1442.79 31.867 1442.13 30.7016C1441.19 29.0748 1441.99 27.6909 1443.88 27.6423C1445.34 27.618 1446.82 27.6423 1448.28 27.618C1448.72 27.618 1449.18 27.5937 1449.59 27.4723C1450.2 27.3024 1450.56 26.8411 1450.61 26.2341C1450.66 25.5785 1450.32 25.1657 1449.74 24.8987C1449.2 24.6559 1448.64 24.6073 1448.06 24.6073C1446.6 24.6073 1445.12 24.5587 1443.66 24.6316C1442.67 24.6801 1442.18 24.146 1441.77 23.3447C1441.43 22.6406 1441.77 22.1307 1442.09 21.5723C1443.01 20.0427 1443.93 18.513 1444.76 16.9348ZM1438.1 28.0551C1437.01 28.1036 1436.06 27.3024 1435.97 26.3069C1435.87 25.3843 1436.86 24.3402 1437.86 24.3159C1438.81 24.2917 1439.85 25.2871 1439.88 26.2341C1439.9 27.2295 1439.12 28.0065 1438.1 28.0551Z" fill="white"/>
<path d="M1026.38 89.6286C1026.97 88.5603 1026.87 87.3463 1025.7 86.6422C1024.51 85.9138 1023.28 86.0109 1022.35 87.1278C1021.65 88.0019 1021.07 88.9973 1020.51 89.9685C1019.37 91.9109 1018.3 93.9019 1017.16 95.8443C1015.67 98.3694 1012.88 98.5151 1011.3 96.0871C1010.5 94.8488 1009.82 93.562 1009.07 92.2994C1008.17 90.7455 1007.27 89.1673 1006.35 87.6134C1005.52 86.2294 1004.26 85.938 1002.85 86.545C1001.64 87.0792 1001.32 88.4875 1002 90.0899C1002.22 90.5998 1002.58 91.0611 1002.85 91.5467C1004.06 93.7076 1005.33 95.8443 1006.49 98.0295C1008.29 101.429 1006.95 103.76 1003.19 103.808C1001.95 103.832 1000.71 103.808 999.475 103.808V103.832C997.677 103.832 995.856 103.808 994.059 103.832C992.577 103.857 991.679 104.706 991.63 106.115C991.582 107.547 992.553 108.373 993.937 108.567C994.715 108.664 995.516 108.64 996.293 108.664C998.892 108.664 1001.49 108.737 1004.09 108.664C1005.55 108.616 1006.32 109.32 1006.98 110.534C1007.66 111.772 1007.61 112.767 1006.88 113.981C1005.25 116.677 1003.75 119.469 1002.22 122.237C1001.47 123.621 1001.51 124.835 1003.04 125.684C1004.55 126.486 1005.64 125.879 1006.49 124.592C1006.81 124.13 1007.03 123.596 1007.32 123.111C1008.58 120.974 1009.82 118.813 1011.13 116.701C1012.91 113.86 1015.75 113.86 1017.47 116.677C1018.42 118.206 1019.27 119.809 1020.19 121.363C1020.82 122.431 1021.41 123.523 1022.13 124.543C1022.98 125.733 1024.13 126.534 1025.58 125.587C1026.97 124.689 1026.94 123.354 1026.29 121.994C1026 121.387 1025.68 120.78 1025.34 120.197C1024.15 118.133 1022.94 116.118 1021.77 114.054C1020.09 111.165 1021.5 108.713 1024.88 108.64C1027.48 108.591 1030.08 108.64 1032.67 108.616C1033.45 108.616 1034.28 108.567 1035.01 108.373C1036.07 108.081 1036.73 107.28 1036.83 106.163C1036.92 105.022 1036.29 104.269 1035.27 103.784C1034.33 103.347 1033.31 103.274 1032.29 103.274C1029.69 103.274 1027.09 103.201 1024.49 103.298C1022.72 103.371 1021.87 102.448 1021.14 101.016C1020.51 99.7534 1021.14 98.855 1021.7 97.8838C1023.28 95.1402 1024.9 92.4208 1026.38 89.6286ZM1014.53 109.368C1012.61 109.441 1010.91 108.033 1010.74 106.26C1010.6 104.609 1012.35 102.764 1014.12 102.716C1015.82 102.691 1017.64 104.415 1017.69 106.139C1017.76 107.887 1016.38 109.295 1014.53 109.368Z" fill="white"/>
<path d="M17.3143 180.44C17.8972 179.372 17.8 178.158 16.6343 177.454C15.4442 176.725 14.2056 176.822 13.2827 177.939C12.5784 178.789 11.9955 179.809 11.4369 180.78C10.2955 182.722 9.22685 184.713 8.08538 186.656C6.6039 189.181 3.81095 189.327 2.23232 186.899C1.43086 185.66 0.750845 184.374 -0.00203896 183.111C-0.900642 181.557 -1.79924 179.979 -2.72213 178.425C-3.54787 177.041 -4.81078 176.75 -6.2194 177.357C-7.43373 177.891 -7.74945 179.299 -7.06943 180.901C-6.85085 181.411 -6.48655 181.873 -6.2194 182.358C-5.00507 184.519 -3.74217 186.656 -2.57642 188.841C-0.779213 192.24 -2.11497 194.571 -5.87939 194.62C-7.118 194.644 -8.35662 194.62 -9.59523 194.62V194.644C-11.3924 194.644 -13.2139 194.62 -15.0111 194.644C-16.4926 194.668 -17.3912 195.518 -17.4398 196.926C-17.4884 198.359 -16.5169 199.184 -15.1326 199.379C-14.3554 199.476 -13.5539 199.451 -12.7768 199.476C-10.1781 199.476 -7.57944 199.549 -4.98078 199.476C-3.52359 199.427 -2.74642 200.131 -2.09068 201.345C-1.41066 202.583 -1.45924 203.579 -2.18783 204.793C-3.81503 207.488 -5.32079 210.28 -6.85085 213.048C-7.60373 214.432 -7.55516 215.646 -6.0251 216.496C-4.51934 217.297 -3.42645 216.69 -2.57642 215.403C-2.26069 214.942 -2.04211 214.408 -1.75067 213.922C-0.487774 211.786 0.750841 209.625 2.06231 207.512C3.83523 204.672 6.67676 204.672 8.40111 207.488C9.34828 209.018 10.1983 210.62 11.1212 212.174C11.7526 213.242 12.3355 214.335 13.0641 215.355C13.9142 216.544 15.0556 217.346 16.5128 216.399C17.8972 215.5 17.8729 214.165 17.2171 212.805C16.9257 212.198 16.61 211.591 16.27 211.009C15.0799 208.945 13.8656 206.93 12.6998 204.866C11.0241 201.976 12.4327 199.524 15.8085 199.451C18.4072 199.403 21.0058 199.451 23.6045 199.427C24.3817 199.427 25.2074 199.379 25.936 199.184C27.0046 198.893 27.6603 198.092 27.7575 196.975C27.8546 195.834 27.2232 195.081 26.2031 194.595C25.256 194.158 24.2359 194.086 23.2159 194.086C20.6172 194.086 18.0186 194.013 15.4199 194.11C13.647 194.183 12.797 193.26 12.0684 191.827C11.4369 190.565 12.0684 189.667 12.627 188.695C14.2299 185.927 15.8328 183.208 17.3143 180.44ZM5.48672 200.156C3.56808 200.228 1.86803 198.82 1.69802 197.048C1.5523 195.397 3.30093 193.551 5.07385 193.503C6.77391 193.479 8.5954 195.202 8.64397 196.926C8.69254 198.674 7.3325 200.083 5.48672 200.156Z" fill="white"/>
<path d="M118.589 987.915C119.172 986.847 119.075 985.633 117.909 984.929C116.719 984.201 115.48 984.298 114.558 985.415C113.853 986.289 113.27 987.284 112.712 988.255C111.57 990.198 110.502 992.189 109.36 994.131C107.879 996.656 105.086 996.802 103.507 994.374C102.706 993.136 102.026 991.849 101.273 990.586C100.374 989.032 99.4756 987.454 98.5527 985.9C97.727 984.516 96.4641 984.225 95.0554 984.832C93.8411 985.366 93.5254 986.774 94.2054 988.377C94.424 988.887 94.7883 989.348 95.0554 989.833C96.2698 991.994 97.5327 994.131 98.6984 996.316C100.496 999.715 99.1599 1002.05 95.3955 1002.09C94.1569 1002.12 92.9182 1002.09 91.6796 1002.09V1002.12C89.8824 1002.12 88.0609 1002.09 86.2637 1002.12C84.7822 1002.14 83.8836 1002.99 83.8351 1004.4C83.7865 1005.83 84.7579 1006.66 86.1423 1006.85C86.9194 1006.95 87.7209 1006.93 88.4981 1006.95C91.0967 1006.95 93.6954 1007.02 96.2941 1006.95C97.7513 1006.9 98.5284 1007.61 99.1842 1008.82C99.8642 1010.06 99.8156 1011.05 99.087 1012.27C97.4598 1014.96 95.9541 1017.76 94.424 1020.52C93.6711 1021.91 93.7197 1023.12 95.2497 1023.97C96.7555 1024.77 97.8484 1024.17 98.6984 1022.88C99.0142 1022.42 99.2327 1021.88 99.5242 1021.4C100.787 1019.26 102.026 1017.1 103.337 1014.99C105.11 1012.15 107.952 1012.15 109.676 1014.96C110.623 1016.49 111.473 1018.1 112.396 1019.65C113.028 1020.72 113.61 1021.81 114.339 1022.83C115.189 1024.02 116.33 1024.82 117.788 1023.87C119.172 1022.98 119.148 1021.64 118.492 1020.28C118.201 1019.67 117.885 1019.07 117.545 1018.48C116.355 1016.42 115.14 1014.4 113.975 1012.34C112.299 1009.45 113.708 1007 117.083 1006.93C119.682 1006.88 122.281 1006.93 124.879 1006.9C125.657 1006.9 126.482 1006.85 127.211 1006.66C128.279 1006.37 128.935 1005.57 129.032 1004.45C129.13 1003.31 128.498 1002.56 127.478 1002.07C126.531 1001.63 125.511 1001.56 124.491 1001.56C121.892 1001.56 119.293 1001.49 116.695 1001.58C114.922 1001.66 114.072 1000.74 113.343 999.303C112.712 998.04 113.343 997.142 113.902 996.171C115.48 993.427 117.108 990.708 118.589 987.915ZM106.737 1007.63C104.819 1007.7 103.119 1006.3 102.949 1004.52C102.803 1002.87 104.552 1001.03 106.324 1000.98C108.024 1000.95 109.846 1002.68 109.895 1004.4C109.967 1006.17 108.583 1007.56 106.737 1007.63Z" fill="white"/>
<path d="M223.78 512.453C224.363 511.385 224.266 510.171 223.1 509.467C221.91 508.738 220.671 508.835 219.749 509.952C219.044 510.826 218.461 511.822 217.903 512.793C216.761 514.735 215.693 516.726 214.551 518.669C213.07 521.194 210.277 521.339 208.698 518.911C207.897 517.673 207.217 516.386 206.464 515.124C205.565 513.57 204.667 511.992 203.744 510.438C202.918 509.054 201.655 508.762 200.246 509.369C199.032 509.904 198.716 511.312 199.396 512.914C199.615 513.424 199.979 513.886 200.246 514.371C201.461 516.532 202.724 518.669 203.889 520.854C205.687 524.253 204.351 526.584 200.586 526.632C199.348 526.657 198.109 526.632 196.846 526.632V526.657C195.049 526.657 193.228 526.633 191.43 526.657C189.949 526.681 189.05 527.531 189.002 528.939C188.953 530.372 189.925 531.197 191.309 531.391C192.086 531.488 192.888 531.464 193.665 531.488C196.264 531.488 198.862 531.561 201.461 531.488C202.918 531.44 203.695 532.144 204.351 533.358C205.031 534.596 204.982 535.592 204.254 536.806C202.627 539.501 201.121 542.293 199.591 545.061C198.838 546.445 198.886 547.659 200.416 548.509C201.922 549.31 203.015 548.703 203.865 547.416C204.181 546.955 204.399 546.421 204.691 545.935C205.954 543.798 207.192 541.638 208.504 539.525C210.277 536.684 213.118 536.684 214.843 539.501C215.79 541.03 216.64 542.633 217.563 544.187C218.194 545.255 218.777 546.348 219.506 547.368C220.356 548.557 221.497 549.359 222.954 548.412C224.339 547.513 224.314 546.178 223.659 544.818C223.367 544.211 223.051 543.604 222.711 543.021C221.521 540.958 220.307 538.942 219.141 536.879C217.466 533.989 218.874 531.537 222.25 531.464C224.849 531.416 227.447 531.464 230.046 531.44C230.823 531.44 231.649 531.391 232.378 531.197C233.446 530.906 234.102 530.105 234.199 528.988C234.296 527.846 233.665 527.094 232.645 526.608C231.697 526.171 230.677 526.098 229.657 526.098C227.059 526.098 224.46 526.026 221.861 526.123C220.089 526.195 219.238 525.273 218.51 523.84C217.878 522.578 218.51 521.679 219.068 520.708C220.696 517.965 222.299 515.245 223.78 512.453ZM211.953 532.168C210.034 532.241 208.334 530.833 208.164 529.06C208.018 527.409 209.767 525.564 211.54 525.516C213.24 525.491 215.061 527.215 215.11 528.939C215.158 530.712 213.798 532.095 211.953 532.168Z" fill="white"/>
<path d="M351.587 221.948C351.915 221.345 351.86 220.66 351.204 220.263C350.534 219.852 349.836 219.907 349.316 220.537C348.92 221.03 348.592 221.592 348.277 222.14C347.634 223.235 347.032 224.358 346.39 225.454C345.555 226.878 343.982 226.961 343.093 225.591C342.642 224.892 342.259 224.167 341.835 223.454C341.329 222.578 340.823 221.688 340.303 220.811C339.838 220.03 339.127 219.866 338.334 220.208C337.65 220.51 337.472 221.304 337.855 222.208C337.978 222.496 338.183 222.756 338.334 223.03C339.017 224.249 339.729 225.454 340.385 226.687C341.397 228.604 340.645 229.919 338.525 229.946C337.828 229.96 337.13 229.946 336.419 229.946V229.96C335.407 229.96 334.381 229.946 333.369 229.96C332.534 229.974 332.028 230.453 332.001 231.247C331.974 232.055 332.521 232.521 333.3 232.631C333.738 232.685 334.189 232.672 334.627 232.685C336.091 232.685 337.554 232.727 339.017 232.685C339.838 232.658 340.276 233.055 340.645 233.74C341.028 234.439 341.001 235 340.59 235.685C339.674 237.205 338.826 238.78 337.964 240.342C337.54 241.122 337.568 241.807 338.429 242.286C339.277 242.738 339.893 242.396 340.372 241.67C340.549 241.41 340.672 241.109 340.837 240.835C341.548 239.629 342.245 238.41 342.984 237.219C343.982 235.616 345.583 235.616 346.554 237.205C347.087 238.068 347.566 238.972 348.085 239.849C348.441 240.451 348.769 241.067 349.18 241.643C349.658 242.314 350.301 242.766 351.122 242.232C351.901 241.725 351.888 240.972 351.518 240.205C351.354 239.862 351.177 239.52 350.985 239.191C350.315 238.027 349.631 236.89 348.975 235.726C348.031 234.096 348.824 232.713 350.725 232.672C352.189 232.644 353.652 232.672 355.116 232.658C355.553 232.658 356.018 232.631 356.429 232.521C357.03 232.357 357.4 231.905 357.454 231.275C357.509 230.631 357.154 230.206 356.579 229.933C356.046 229.686 355.471 229.645 354.897 229.645C353.433 229.645 351.97 229.604 350.506 229.659C349.508 229.7 349.029 229.179 348.619 228.371C348.263 227.659 348.619 227.152 348.933 226.604C349.85 225.057 350.753 223.523 351.587 221.948ZM344.926 233.069C343.846 233.11 342.888 232.316 342.792 231.316C342.71 230.385 343.695 229.344 344.694 229.316C345.651 229.303 346.677 230.275 346.704 231.247C346.731 232.247 345.966 233.028 344.926 233.069Z" fill="white"/>
<path d="M755.31 267.941C755.625 267.334 755.577 266.654 754.921 266.266C754.241 265.853 753.537 265.926 753.027 266.533C752.614 267.018 752.298 267.577 751.982 268.135C751.351 269.228 750.744 270.345 750.088 271.462C749.262 272.894 747.684 272.967 746.785 271.607C746.324 270.927 745.935 270.175 745.522 269.471C745.012 268.597 744.502 267.698 743.992 266.824C743.531 266.047 742.826 265.877 742.025 266.217C741.345 266.509 741.175 267.31 741.539 268.208C741.661 268.5 741.855 268.767 742.025 269.034C742.705 270.248 743.433 271.462 744.089 272.7C745.109 274.618 744.356 275.929 742.243 275.953C741.539 275.953 740.835 275.953 740.131 275.953C740.131 275.953 740.131 275.953 740.131 275.978C739.111 275.978 738.09 275.953 737.07 275.978C736.245 276.002 735.735 276.463 735.71 277.265C735.686 278.066 736.22 278.527 737.022 278.649C737.459 278.721 737.92 278.697 738.358 278.697C739.815 278.697 741.296 278.721 742.753 278.697C743.579 278.673 744.016 279.061 744.381 279.741C744.769 280.445 744.745 281.004 744.332 281.684C743.409 283.213 742.559 284.767 741.709 286.345C741.272 287.122 741.296 287.826 742.171 288.288C743.021 288.749 743.628 288.409 744.114 287.681C744.284 287.414 744.429 287.122 744.575 286.855C745.279 285.641 745.984 284.427 746.712 283.237C747.708 281.635 749.311 281.635 750.282 283.213C750.817 284.087 751.302 284.986 751.812 285.86C752.177 286.467 752.492 287.074 752.905 287.656C753.391 288.312 754.023 288.773 754.848 288.239C755.625 287.729 755.625 286.977 755.237 286.2C755.067 285.86 754.897 285.52 754.703 285.18C754.023 284.014 753.342 282.873 752.687 281.708C751.74 280.081 752.541 278.697 754.435 278.649C755.893 278.624 757.374 278.649 758.831 278.624C759.268 278.624 759.73 278.6 760.143 278.479C760.75 278.309 761.114 277.847 761.163 277.24C761.211 276.585 760.871 276.172 760.288 275.905C759.754 275.662 759.196 275.614 758.613 275.614C757.155 275.614 755.674 275.565 754.217 275.638C753.221 275.686 752.735 275.152 752.322 274.351C751.982 273.647 752.322 273.137 752.638 272.579C753.585 271.025 754.484 269.495 755.31 267.941ZM748.655 279.037C747.562 279.086 746.615 278.284 746.518 277.289C746.421 276.366 747.416 275.322 748.412 275.298C749.359 275.274 750.404 276.269 750.428 277.216C750.452 278.211 749.699 279.013 748.655 279.037Z" fill="white"/>
<path d="M687.623 861.538C687.939 860.931 687.89 860.251 687.234 859.863C686.554 859.45 685.85 859.523 685.34 860.13C684.927 860.615 684.611 861.174 684.296 861.732C683.664 862.825 683.057 863.942 682.401 865.059C681.576 866.491 679.997 866.564 679.098 865.204C678.637 864.525 678.248 863.772 677.836 863.068C677.326 862.194 676.816 861.295 676.306 860.421C675.844 859.644 675.14 859.474 674.338 859.814C673.658 860.106 673.488 860.907 673.853 861.805C673.974 862.096 674.168 862.364 674.338 862.631C675.018 863.845 675.747 865.059 676.403 866.297C677.423 868.215 676.67 869.526 674.557 869.55C673.853 869.55 673.148 869.55 672.444 869.55C672.444 869.55 672.444 869.55 672.444 869.575C671.424 869.575 670.404 869.55 669.384 869.575C668.558 869.599 668.048 870.06 668.024 870.862C668 871.663 668.534 872.124 669.335 872.245C669.772 872.318 670.234 872.294 670.671 872.294C672.128 872.294 673.61 872.318 675.067 872.294C675.893 872.27 676.33 872.658 676.694 873.338C677.083 874.042 677.058 874.601 676.646 875.28C675.723 876.81 674.873 878.364 674.023 879.942C673.585 880.719 673.61 881.423 674.484 881.885C675.334 882.346 675.941 882.006 676.427 881.278C676.597 881.011 676.743 880.719 676.888 880.452C677.593 879.238 678.297 878.024 679.026 876.834C680.021 875.232 681.624 875.232 682.596 876.81C683.13 877.684 683.616 878.583 684.126 879.457C684.49 880.064 684.806 880.671 685.219 881.253C685.704 881.909 686.336 882.37 687.162 881.836C687.939 881.326 687.939 880.573 687.55 879.796C687.38 879.457 687.21 879.117 687.016 878.777C686.336 877.611 685.656 876.47 685 875.305C684.053 873.678 684.854 872.294 686.749 872.245C688.206 872.221 689.687 872.245 691.145 872.221C691.582 872.221 692.043 872.197 692.456 872.076C693.063 871.906 693.427 871.444 693.476 870.837C693.525 870.182 693.185 869.769 692.602 869.502C692.067 869.259 691.509 869.211 690.926 869.211C689.469 869.211 687.987 869.162 686.53 869.235C685.534 869.283 685.049 868.749 684.636 867.948C684.296 867.244 684.636 866.734 684.952 866.176C685.874 864.646 686.773 863.116 687.623 861.538ZM680.944 872.658C679.851 872.707 678.904 871.906 678.807 870.91C678.71 869.987 679.706 868.943 680.701 868.919C681.649 868.895 682.693 869.89 682.717 870.837C682.766 871.833 681.989 872.61 680.944 872.658Z" fill="white"/>
<path d="M849.539 834.742H846.809C845.801 834.742 845.168 834.109 845.168 832.797C845.168 831.484 845.789 830.852 846.809 830.852H857.238C858.258 830.852 858.879 831.484 858.879 832.797C858.879 834.109 858.246 834.742 857.238 834.742H854.508V844.914C854.508 846.297 853.711 847.094 852.012 847.094C850.336 847.094 849.539 846.297 849.539 844.914V834.742ZM868.277 842.102H863.074V842.113C863.391 843.133 864.211 843.625 865.711 843.625C867.035 843.625 867.75 843.215 868.406 843.215C869.285 843.215 869.789 843.895 869.789 844.668C869.789 845.254 869.613 845.641 869.238 846.016C868.664 846.59 867.234 847.27 864.797 847.27C860.613 847.27 858.293 844.949 858.293 841.363C858.293 837.238 860.895 834.637 864.902 834.637C868.336 834.637 870.352 836.652 870.352 839.805C870.352 841.328 869.566 842.102 868.277 842.102ZM863.039 839.559H865.887C865.758 838.363 865.336 837.883 864.516 837.883C863.824 837.883 863.262 838.258 863.039 839.559ZM872.309 844.984V836.781C872.309 835.469 873.012 834.766 874.324 834.766C875.59 834.766 876.141 835.375 876.41 836.195L876.574 836.699H876.609C877.113 835.504 878.027 834.637 879.293 834.637C880.301 834.637 880.91 835.234 880.91 836.676C880.91 838.504 880.254 839.605 879.375 839.605C879.012 839.605 878.766 839.336 878.355 839.336C877.664 839.336 877.16 840.309 877.16 840.309V844.984C877.16 846.32 876.387 847.094 874.734 847.094C873.082 847.094 872.309 846.32 872.309 844.984ZM882.129 844.984V836.781C882.129 835.469 882.832 834.766 884.145 834.766C885.41 834.766 885.961 835.375 886.23 836.195L886.312 836.441H886.359C886.359 836.441 887.32 834.66 889.922 834.66C891.551 834.66 892.863 835.293 893.648 836.465C893.648 836.465 894.809 834.66 897.422 834.66C900.176 834.66 901.98 836.465 901.98 839.629V844.984C901.98 846.32 901.207 847.094 899.555 847.094C897.902 847.094 897.129 846.32 897.129 844.984V840.109C897.129 838.891 896.695 838.457 896.027 838.457C895.008 838.457 894.48 839.676 894.48 839.676C894.48 840.039 894.48 840.426 894.48 840.789V844.984C894.48 846.32 893.707 847.094 892.055 847.094C890.402 847.094 889.629 846.32 889.629 844.984V840.109C889.629 838.891 889.195 838.457 888.527 838.457C887.508 838.457 886.98 839.676 886.98 839.676V844.984C886.98 846.32 886.207 847.094 884.555 847.094C882.902 847.094 882.129 846.32 882.129 844.984ZM903.926 838.879C903.926 836.406 905.766 834.66 909.703 834.66C911.625 834.66 912.75 835.117 913.254 835.621C913.617 835.984 913.758 836.395 913.758 836.922C913.758 837.73 913.16 838.316 912.375 838.316C911.625 838.316 910.84 837.883 909.609 837.883C908.812 837.883 908.613 838.012 908.613 838.293C908.613 839.418 914.297 838.527 914.297 842.91C914.297 845.336 912.398 847.234 908.262 847.234C906.199 847.234 905.145 846.836 904.547 846.238C904.207 845.898 904.043 845.512 904.043 844.938C904.043 844.141 904.617 843.566 905.414 843.566C906.176 843.566 906.996 844 908.367 844C909.328 844 909.609 843.836 909.609 843.496C909.609 842.301 903.926 843.191 903.926 838.879ZM921.574 841.141C921.574 837.109 924.047 834.637 928.43 834.637C932.555 834.637 935.004 837.086 935.004 840.766C935.004 844.797 932.531 847.27 928.148 847.27C924.023 847.27 921.574 844.82 921.574 841.141ZM926.496 840.93C926.496 842.875 927.305 843.672 928.312 843.672C929.285 843.672 930.082 842.875 930.082 840.977C930.082 839.043 929.273 838.234 928.266 838.234C927.293 838.234 926.496 839.031 926.496 840.93ZM937.512 838.375H937.172C936.293 838.375 935.707 837.789 935.707 836.641C935.707 835.492 936.293 834.906 937.172 834.906H937.512V834.285C937.512 831.391 939.422 829.48 942.527 829.48C943.77 829.48 944.484 829.785 944.871 830.172C945.199 830.5 945.398 830.898 945.398 831.66C945.398 832.645 944.848 833.219 944.203 833.219C943.816 833.219 943.652 833.031 943.102 833.031C942.504 833.031 942.211 833.441 942.27 834.285L942.316 834.906H943.207C944.086 834.906 944.672 835.492 944.672 836.641C944.672 837.789 944.086 838.375 943.207 838.375H942.363V844.984C942.363 846.332 941.59 847.094 939.938 847.094C938.285 847.094 937.512 846.32 937.512 844.984V838.375ZM951.809 842.277V836.922C951.809 835.586 952.582 834.812 954.234 834.812C955.887 834.812 956.66 835.586 956.66 836.922V841.797C956.66 843.016 957.094 843.449 957.82 843.449C958.898 843.449 959.426 842.23 959.426 842.23V836.922C959.426 835.586 960.199 834.812 961.852 834.812C963.504 834.812 964.277 835.586 964.277 836.922V845.125C964.277 846.438 963.574 847.141 962.262 847.141C960.996 847.141 960.445 846.531 960.176 845.711L960.094 845.465H960.047C960.047 845.465 959.086 847.246 956.426 847.246C953.613 847.246 951.809 845.441 951.809 842.277ZM966.293 838.879C966.293 836.406 968.133 834.66 972.07 834.66C973.992 834.66 975.117 835.117 975.621 835.621C975.984 835.984 976.125 836.395 976.125 836.922C976.125 837.73 975.527 838.316 974.742 838.316C973.992 838.316 973.207 837.883 971.977 837.883C971.18 837.883 970.98 838.012 970.98 838.293C970.98 839.418 976.664 838.527 976.664 842.91C976.664 845.336 974.766 847.234 970.629 847.234C968.566 847.234 967.512 846.836 966.914 846.238C966.574 845.898 966.41 845.512 966.41 844.938C966.41 844.141 966.984 843.566 967.781 843.566C968.543 843.566 969.363 844 970.734 844C971.695 844 971.977 843.836 971.977 843.496C971.977 842.301 966.293 843.191 966.293 838.879ZM988.137 842.102H982.934V842.113C983.25 843.133 984.07 843.625 985.57 843.625C986.895 843.625 987.609 843.215 988.266 843.215C989.145 843.215 989.648 843.895 989.648 844.668C989.648 845.254 989.473 845.641 989.098 846.016C988.523 846.59 987.094 847.27 984.656 847.27C980.473 847.27 978.152 844.949 978.152 841.363C978.152 837.238 980.754 834.637 984.762 834.637C988.195 834.637 990.211 836.652 990.211 839.805C990.211 841.328 989.426 842.102 988.137 842.102ZM982.898 839.559H985.746C985.617 838.363 985.195 837.883 984.375 837.883C983.684 837.883 983.121 838.258 982.898 839.559Z" fill="white"/>
<path d="M1027.94 828.079C1028.29 827.435 1028.23 826.705 1027.53 826.281C1026.81 825.842 1026.06 825.901 1025.51 826.573C1025.09 827.099 1024.73 827.699 1024.4 828.283C1023.71 829.452 1023.07 830.651 1022.38 831.82C1021.49 833.34 1019.81 833.428 1018.86 831.966C1018.38 831.221 1017.97 830.446 1017.51 829.686C1016.97 828.751 1016.43 827.801 1015.88 826.865C1015.38 826.032 1014.62 825.857 1013.77 826.222C1013.04 826.544 1012.85 827.392 1013.26 828.356C1013.39 828.663 1013.61 828.941 1013.77 829.233C1014.5 830.534 1015.26 831.82 1015.96 833.136C1017.04 835.182 1016.24 836.585 1013.97 836.614C1013.23 836.629 1012.48 836.614 1011.72 836.614V836.629C1010.64 836.629 1009.54 836.614 1008.46 836.629C1007.57 836.643 1007.03 837.155 1007 838.003C1006.97 838.865 1007.56 839.362 1008.39 839.479C1008.86 839.537 1009.34 839.523 1009.81 839.537C1011.37 839.537 1012.94 839.581 1014.5 839.537C1015.38 839.508 1015.85 839.932 1016.24 840.663C1016.65 841.408 1016.62 842.007 1016.18 842.738C1015.2 844.36 1014.3 846.041 1013.38 847.707C1012.92 848.54 1012.95 849.271 1013.87 849.783C1014.78 850.265 1015.44 849.9 1015.95 849.125C1016.14 848.847 1016.27 848.526 1016.45 848.234C1017.21 846.947 1017.95 845.647 1018.74 844.375C1019.81 842.665 1021.52 842.665 1022.56 844.36C1023.13 845.281 1023.64 846.246 1024.19 847.181C1024.57 847.824 1024.92 848.482 1025.36 849.096C1025.87 849.812 1026.56 850.294 1027.44 849.724C1028.27 849.184 1028.26 848.38 1027.86 847.561C1027.69 847.196 1027.5 846.83 1027.29 846.48C1026.58 845.237 1025.85 844.024 1025.14 842.782C1024.14 841.043 1024.98 839.566 1027.02 839.523C1028.58 839.493 1030.14 839.523 1031.71 839.508C1032.18 839.508 1032.67 839.479 1033.11 839.362C1033.75 839.186 1034.15 838.704 1034.21 838.032C1034.27 837.345 1033.89 836.892 1033.27 836.599C1032.7 836.336 1032.09 836.293 1031.47 836.293C1029.91 836.293 1028.35 836.249 1026.78 836.307C1025.71 836.351 1025.2 835.796 1024.76 834.933C1024.38 834.173 1024.76 833.632 1025.1 833.048C1026.08 831.396 1027.04 829.759 1027.94 828.079ZM1020.82 839.946C1019.66 839.99 1018.64 839.143 1018.54 838.076C1018.45 837.082 1019.5 835.971 1020.57 835.942C1021.59 835.927 1022.69 836.965 1022.72 838.003C1022.75 839.07 1021.93 839.903 1020.82 839.946Z" fill="white"/>
<path d="M1056.87 842.055V844.914C1056.87 846.297 1056.1 847.094 1054.41 847.094C1052.71 847.094 1051.94 846.297 1051.94 844.914V833.031C1051.94 831.66 1052.75 830.852 1054.12 830.852H1057.78C1062.36 830.852 1064.61 833.102 1064.61 836.242C1064.61 839.852 1062.41 842.055 1057.58 842.055H1056.87ZM1056.87 838.492H1057.78C1058.86 838.492 1059.62 837.73 1059.62 836.441C1059.62 835.129 1058.95 834.461 1057.6 834.461H1056.87V838.492ZM1066.31 844.984V836.781C1066.31 835.469 1067.01 834.766 1068.33 834.766C1069.59 834.766 1070.14 835.375 1070.41 836.195L1070.58 836.699H1070.61C1071.12 835.504 1072.03 834.637 1073.3 834.637C1074.3 834.637 1074.91 835.234 1074.91 836.676C1074.91 838.504 1074.26 839.605 1073.38 839.605C1073.01 839.605 1072.77 839.336 1072.36 839.336C1071.67 839.336 1071.16 840.309 1071.16 840.309V844.984C1071.16 846.32 1070.39 847.094 1068.74 847.094C1067.09 847.094 1066.31 846.32 1066.31 844.984ZM1076.13 844.984V836.922C1076.13 835.586 1076.91 834.812 1078.56 834.812C1080.21 834.812 1080.98 835.586 1080.98 836.922V844.984C1080.98 846.32 1080.21 847.094 1078.56 847.094C1076.91 847.094 1076.13 846.32 1076.13 844.984ZM1075.92 831.59C1075.92 830.207 1076.96 829.164 1078.58 829.164C1080.14 829.164 1081.19 830.219 1081.19 831.543C1081.19 832.926 1080.15 833.969 1078.53 833.969C1076.98 833.969 1075.92 832.914 1075.92 831.59ZM1084.7 843.812L1082.87 838.246C1082.65 837.566 1082.6 837.285 1082.6 836.969C1082.6 835.598 1084.05 834.777 1085.31 834.777C1085.99 834.777 1086.49 835.012 1086.81 835.328C1087.12 835.645 1087.29 836.148 1087.48 836.828L1088.72 841.293C1088.92 842.008 1089.07 842.898 1089.07 842.898H1089.12C1089.12 842.898 1089.28 841.984 1089.46 841.293L1090.63 836.758C1090.78 836.172 1090.94 835.645 1091.26 835.328C1091.58 835.012 1092.08 834.777 1092.76 834.777C1093.97 834.777 1095.32 835.527 1095.32 836.805C1095.32 837.121 1095.27 837.379 1095.08 837.953L1093.17 843.801C1092.77 845.02 1092.41 845.699 1091.95 846.156C1091.4 846.707 1090.53 847.094 1088.93 847.094C1087.36 847.094 1086.5 846.73 1085.94 846.168C1085.48 845.711 1085.1 845.02 1084.7 843.812ZM1103.84 843.133V842.242C1103.84 842.242 1103.35 842.102 1102.62 842.102C1101.75 842.102 1101.27 842.395 1101.27 842.969C1101.27 843.496 1101.63 843.859 1102.35 843.859C1103.33 843.859 1103.84 843.133 1103.84 843.133ZM1103.84 839.699V839.254C1103.84 838.516 1103.46 838.141 1101.91 838.141C1099.9 838.141 1099.25 838.82 1098.41 838.82C1097.64 838.82 1097.05 838.281 1097.05 837.309C1097.05 836.77 1097.21 836.395 1097.58 836.031C1098.22 835.387 1100.1 834.637 1103.03 834.637C1106.74 834.637 1108.64 836.102 1108.64 838.961V841.984C1108.64 844.188 1109.24 844.504 1109.24 845.441C1109.24 846.379 1108.52 847.141 1107.06 847.141C1105.69 847.141 1104.9 846.438 1104.54 845.664H1104.5C1104.5 845.664 1103.5 847.234 1100.86 847.234C1098.12 847.234 1096.39 845.512 1096.39 843.156C1096.39 840.812 1098.82 839.559 1102.18 839.559C1103.07 839.559 1103.84 839.699 1103.84 839.699ZM1110.59 841.434C1110.59 837.285 1113.21 834.66 1117.24 834.66C1118.73 834.66 1119.63 835.117 1120.07 835.551C1120.46 835.949 1120.65 836.371 1120.65 837.086C1120.65 838.023 1120.07 838.68 1119.28 838.68C1118.51 838.68 1118.32 838.258 1117.38 838.258C1116.37 838.258 1115.51 839.125 1115.51 841C1115.51 842.711 1116.42 843.625 1117.59 843.625C1118.55 843.625 1118.85 843.215 1119.41 843.215C1120.24 843.215 1120.72 843.941 1120.72 844.703C1120.72 845.301 1120.55 845.758 1120.16 846.145C1119.61 846.695 1118.6 847.27 1116.59 847.27C1112.85 847.27 1110.59 845.008 1110.59 841.434ZM1125.16 848.277L1121.87 838.246C1121.65 837.555 1121.6 837.285 1121.6 836.969C1121.6 835.598 1123.04 834.777 1124.3 834.777C1124.91 834.777 1125.43 834.988 1125.77 835.328C1126.11 835.668 1126.23 836.148 1126.41 836.828L1127.66 841.691C1127.87 842.523 1128.02 843.59 1128.02 843.59H1128.07C1128.07 843.59 1128.23 842.512 1128.43 841.691L1129.64 836.746C1129.78 836.16 1129.94 835.645 1130.26 835.328C1130.59 835 1131.06 834.777 1131.76 834.777C1132.94 834.777 1134.32 835.527 1134.32 836.805C1134.32 837.121 1134.27 837.391 1134.08 837.965L1131.96 844.457C1130.23 849.777 1127.78 852.66 1123.44 852.66C1122.25 852.66 1121.41 852.344 1120.93 851.863C1120.55 851.477 1120.35 850.984 1120.35 850.41C1120.35 849.473 1120.97 848.852 1121.91 848.852C1122.53 848.852 1122.81 848.98 1123.38 848.98C1124.21 848.98 1124.78 848.723 1125.16 848.277ZM1146.84 842.055V844.914C1146.84 846.297 1146.08 847.094 1144.38 847.094C1142.68 847.094 1141.92 846.297 1141.92 844.914V833.031C1141.92 831.66 1142.73 830.852 1144.1 830.852H1147.76C1152.34 830.852 1154.59 833.102 1154.59 836.242C1154.59 839.852 1152.39 842.055 1147.56 842.055H1146.84ZM1146.84 838.492H1147.76C1148.84 838.492 1149.6 837.73 1149.6 836.441C1149.6 835.129 1148.93 834.461 1147.58 834.461H1146.84V838.492ZM1155.56 841.141C1155.56 837.109 1158.03 834.637 1162.42 834.637C1166.54 834.637 1168.99 837.086 1168.99 840.766C1168.99 844.797 1166.52 847.27 1162.14 847.27C1158.01 847.27 1155.56 844.82 1155.56 841.141ZM1160.48 840.93C1160.48 842.875 1161.29 843.672 1162.3 843.672C1163.27 843.672 1164.07 842.875 1164.07 840.977C1164.07 839.043 1163.26 838.234 1162.25 838.234C1161.28 838.234 1160.48 839.031 1160.48 840.93ZM1170.9 843.449V831.754C1170.9 830.418 1171.67 829.645 1173.33 829.645C1174.98 829.645 1175.75 830.418 1175.75 831.754V842.195C1175.75 843.285 1175.99 843.52 1176.33 843.52C1176.42 843.52 1176.57 843.496 1176.69 843.496C1177.19 843.496 1177.72 843.906 1177.72 844.797C1177.72 845.488 1177.51 845.945 1177.15 846.309C1176.74 846.719 1176.02 847.141 1174.56 847.141C1172.14 847.141 1170.9 845.898 1170.9 843.449ZM1178.95 844.984V836.922C1178.95 835.586 1179.73 834.812 1181.38 834.812C1183.03 834.812 1183.8 835.586 1183.8 836.922V844.984C1183.8 846.32 1183.03 847.094 1181.38 847.094C1179.73 847.094 1178.95 846.32 1178.95 844.984ZM1178.74 831.59C1178.74 830.207 1179.78 829.164 1181.4 829.164C1182.96 829.164 1184.01 830.219 1184.01 831.543C1184.01 832.926 1182.97 833.969 1181.35 833.969C1179.8 833.969 1178.74 832.914 1178.74 831.59ZM1185.75 841.434C1185.75 837.285 1188.37 834.66 1192.41 834.66C1193.89 834.66 1194.8 835.117 1195.23 835.551C1195.63 835.949 1195.82 836.371 1195.82 837.086C1195.82 838.023 1195.23 838.68 1194.44 838.68C1193.67 838.68 1193.48 838.258 1192.55 838.258C1191.54 838.258 1190.67 839.125 1190.67 841C1190.67 842.711 1191.59 843.625 1192.76 843.625C1193.72 843.625 1194.01 843.215 1194.57 843.215C1195.41 843.215 1195.89 843.941 1195.89 844.703C1195.89 845.301 1195.71 845.758 1195.32 846.145C1194.77 846.695 1193.76 847.27 1191.75 847.27C1188.01 847.27 1185.75 845.008 1185.75 841.434ZM1200.33 848.277L1197.03 838.246C1196.81 837.555 1196.76 837.285 1196.76 836.969C1196.76 835.598 1198.21 834.777 1199.46 834.777C1200.07 834.777 1200.6 834.988 1200.94 835.328C1201.28 835.668 1201.39 836.148 1201.57 836.828L1202.82 841.691C1203.03 842.523 1203.19 843.59 1203.19 843.59H1203.23C1203.23 843.59 1203.4 842.512 1203.6 841.691L1204.8 836.746C1204.94 836.16 1205.11 835.645 1205.42 835.328C1205.75 835 1206.22 834.777 1206.92 834.777C1208.11 834.777 1209.48 835.527 1209.48 836.805C1209.48 837.121 1209.43 837.391 1209.25 837.965L1207.12 844.457C1205.39 849.777 1202.94 852.66 1198.6 852.66C1197.41 852.66 1196.58 852.344 1196.1 851.863C1195.71 851.477 1195.51 850.984 1195.51 850.41C1195.51 849.473 1196.13 848.852 1197.07 848.852C1197.69 848.852 1197.97 848.98 1198.55 848.98C1199.38 848.98 1199.94 848.723 1200.33 848.277Z" fill="white"/>
</g>
<defs>
<filter id="filter0_f_82_25389" x="297" y="85" width="848" height="848" filterUnits="userSpaceOnUse" color-interpolation-filters="sRGB">
<feFlood flood-opacity="0" result="BackgroundImageFix"/>
<feBlend mode="normal" in="SourceGraphic" in2="BackgroundImageFix" result="shape"/>
<feGaussianBlur stdDeviation="85" result="effect1_foregroundBlur_82_25389"/>
</filter>
<clipPath id="clip0_82_25389">
<rect width="1440" height="1024" fill="white"/>
</clipPath>
</defs>
</svg>
