<svg width="75" height="43" viewBox="0 0 75 43" fill="none" xmlns="http://www.w3.org/2000/svg">
<path d="M11.8946 28.8197C18.2972 28.8197 23.4876 22.5625 23.4876 14.8439C23.4876 7.12522 18.2972 0.86792 11.8946 0.86792C5.49209 0.86792 0.30188 7.12522 0.30188 14.8439C0.30188 22.5625 5.49209 28.8197 11.8946 28.8197Z" fill="#597C93"/>
<path d="M43.2432 14.011C53.6838 15.3635 67.2882 26.3916 73.9609 37.5931C74.2072 38 74.3629 38.4763 74.4132 38.9764C74.4634 39.4766 74.4064 39.9839 74.2478 40.4499C74.0891 40.916 73.8341 41.3253 73.507 41.6387C73.1798 41.9521 72.7915 42.1591 72.3791 42.2401C64.2682 43.87 33.2052 41.6506 32.8026 25.6633C32.5725 16.9934 36.0527 13.1093 43.2432 14.011Z" fill="#597C93"/>
</svg>
