<svg width="40" height="40" viewBox="0 0 40 40" fill="none" xmlns="http://www.w3.org/2000/svg">
<path d="M29.7161 8.08005C30.3961 7.99605 30.6761 8.22005 31.1081 8.69205C31.1378 8.72477 31.1757 8.74878 31.218 8.7616C31.2603 8.77442 31.3054 8.7756 31.3486 8.765C31.3918 8.7544 31.4316 8.73241 31.4639 8.7013C31.4961 8.6702 31.5197 8.6311 31.5321 8.58805C32.0201 6.81205 32.4121 5.17605 30.0121 4.73205C28.2841 4.41205 26.6361 4.08005 24.8441 3.98805C23.2254 3.90538 21.6094 3.79472 19.9961 3.65605C18.0841 3.49072 16.8961 4.35338 16.4321 6.24405C16.4254 6.27174 16.4255 6.30065 16.4322 6.32828C16.4389 6.35591 16.452 6.38145 16.4705 6.40269C16.489 6.42394 16.5123 6.44026 16.5383 6.45025C16.5644 6.46024 16.5924 6.4636 16.6201 6.46005C18.3481 6.27605 18.6441 8.70805 19.1201 9.89205C19.1539 9.97428 19.213 10.0435 19.2886 10.0896C19.3642 10.1357 19.4523 10.1562 19.5401 10.1481C20.3161 10.0721 21.0801 9.97205 21.8761 9.73205C24.4414 8.95338 27.0547 8.40272 29.7161 8.08005Z" stroke="#5E5E5E" stroke-width="2"/>
<path d="M14.628 5.17203C14.6551 5.15148 14.6776 5.12548 14.6941 5.0957C14.7106 5.06593 14.7207 5.03303 14.7237 4.99912C14.7267 4.96522 14.7226 4.93105 14.7116 4.89883C14.7007 4.86661 14.6831 4.83705 14.66 4.81203L13.916 3.99203C13.8862 3.9586 13.8477 3.93402 13.8049 3.92098C13.7621 3.90793 13.7164 3.90693 13.6731 3.91809C13.6297 3.92924 13.5902 3.95212 13.559 3.98421C13.5278 4.0163 13.506 4.05637 13.496 4.10003L13.092 5.78403C13.0802 5.8329 13.0838 5.8842 13.1023 5.93093C13.1208 5.97766 13.1533 6.01753 13.1953 6.04511C13.2374 6.07268 13.2869 6.08661 13.3371 6.08498C13.3873 6.08336 13.4358 6.06626 13.476 6.03603L14.628 5.17203Z" stroke="#782412" stroke-width="2"/>
<path d="M10.776 4.67609C10.763 4.6531 10.7444 4.6338 10.7219 4.61998C10.6994 4.60616 10.6737 4.59828 10.6473 4.59708C10.6209 4.59589 10.5947 4.6014 10.571 4.61312C10.5474 4.62484 10.5271 4.64238 10.512 4.66409L9.34801 6.35609C9.33272 6.37781 9.32323 6.40308 9.32044 6.4295C9.31765 6.45592 9.32166 6.48261 9.33207 6.50705C9.34249 6.53148 9.35897 6.55286 9.37996 6.56914C9.40095 6.58542 9.42575 6.59607 9.45201 6.60009L11.748 6.93209C11.7771 6.9368 11.807 6.93315 11.8341 6.92157C11.8613 6.90999 11.8846 6.89094 11.9013 6.86665C11.9181 6.84236 11.9276 6.81382 11.9288 6.78434C11.93 6.75485 11.9228 6.72564 11.908 6.70009L10.776 4.67609Z" stroke="#782412" stroke-width="2"/>
<path d="M33.344 11.936C36.344 10.492 36.404 8.35601 33.092 7.34001C32.956 7.29734 32.8666 7.34534 32.824 7.48401L32.092 9.92401C32.052 10.0573 32.0653 10.184 32.132 10.304L32.944 11.804C32.9817 11.8733 33.0443 11.9256 33.1187 11.9501C33.1931 11.9747 33.2737 11.9696 33.344 11.936Z" stroke="#782412" stroke-width="2"/>
<path d="M10.2681 10.124C10.6867 10.9213 11.0187 11.912 11.2641 13.096C11.2961 13.2507 11.3907 13.332 11.5481 13.34L18.6601 13.708C18.8387 13.7187 18.9281 13.6347 18.9281 13.456C18.9281 11.744 17.9881 9.62402 17.3881 7.95602C17.3347 7.80711 17.2302 7.68196 17.0933 7.60285C16.9563 7.52374 16.7957 7.49581 16.6401 7.52402L10.2481 8.65602C10.0827 8.68535 9.99339 8.78268 9.98006 8.94802C9.95339 9.31602 10.0494 9.70802 10.2681 10.124Z" stroke="#0A5B5D" stroke-width="2"/>
<path d="M31.9961 12.0681L30.4401 9.42005C30.2747 9.13739 30.0294 9.02272 29.7041 9.07605C28.0001 9.34805 26.3961 9.57605 24.6721 10.0481C23.0641 10.4854 21.4347 10.8721 19.7841 11.2081C19.6507 11.2347 19.5987 11.3147 19.6281 11.4481L20.0481 13.4561C20.0747 13.5814 20.1521 13.6534 20.2801 13.6721C22.4921 13.9601 24.6161 14.1721 26.8241 13.7601C28.5627 13.4347 30.2427 12.9934 31.8641 12.4361C32.0587 12.3694 32.1027 12.2467 31.9961 12.0681Z" stroke="#6B7373" stroke-width="2"/>
<path d="M9.13597 9.90809C9.1013 9.81476 9.03863 9.78942 8.94797 9.83209C8.13197 10.2214 7.41997 10.7428 6.81197 11.3961C6.68761 11.5303 6.60387 11.6947 6.57116 11.8689C6.53845 12.0432 6.5582 12.2195 6.62797 12.3761C6.69997 12.5414 6.89063 12.6801 7.19997 12.7921C8.1013 13.1201 9.05597 13.2721 10.064 13.2481C10.1069 13.2473 10.1491 13.2361 10.1867 13.2153C10.2244 13.1946 10.2566 13.1649 10.2805 13.1288C10.3044 13.0927 10.3194 13.0513 10.3242 13.008C10.329 12.9647 10.3234 12.9209 10.308 12.8801L9.13597 9.90809Z" stroke="#782412" stroke-width="2"/>
<path d="M6.54401 14.028C6.99468 15.108 7.18135 16.2587 7.10401 17.48C7.091 17.7054 7.16165 17.9277 7.30253 18.1047C7.4434 18.2818 7.64466 18.4011 7.86801 18.44C10.28 18.848 12.716 18.448 14.9 18.924C18.492 19.704 22.436 20.26 25.692 18.936C27.348 18.264 29.1 17.528 30.868 17.236C34.168 16.692 38.12 16.132 36.02 11.48C35.9453 11.312 35.844 11.2933 35.716 11.424C34.8227 12.344 33.7253 12.996 32.424 13.38C29.352 14.288 26.324 15.148 23.076 14.932C18.456 14.624 13.824 14.52 9.20001 14.18C8.30935 14.1133 7.45735 13.9293 6.64401 13.628C6.54268 13.5907 6.48935 13.6253 6.48401 13.732C6.47601 13.82 6.49601 13.9187 6.54401 14.028Z" stroke="#782412" stroke-width="2"/>
<path d="M19.3121 20.6041C15.9721 20.2521 12.9041 19.3321 9.50406 19.6241C9.36806 19.6374 9.31073 19.7108 9.33206 19.8441C9.96939 23.8388 10.1307 27.2921 9.81606 30.2041C9.6054 32.1401 8.77873 33.7441 7.33606 35.0161C7.27217 35.0727 7.22322 35.1442 7.19351 35.2243C7.1638 35.3043 7.15426 35.3904 7.16572 35.475C7.17719 35.5596 7.20931 35.6401 7.25924 35.7094C7.30918 35.7786 7.3754 35.8345 7.45206 35.8721C8.12006 36.1961 9.87606 35.8641 10.6721 35.8681C13.1321 35.8801 15.4321 36.7041 17.9041 36.5841C20.5867 36.4534 23.2681 36.2934 25.9481 36.1041C26.7081 36.0534 27.5241 35.8961 28.3961 35.6321C29.6321 35.2641 31.3321 34.5681 32.5521 34.9401C33.5521 35.2468 34.5747 35.6321 35.6201 36.0961C35.703 36.1331 35.7932 36.1509 35.8841 36.1483C35.9749 36.1456 36.0641 36.1225 36.145 36.0807C36.226 36.0389 36.2967 35.9794 36.3519 35.9066C36.4071 35.8338 36.4454 35.7496 36.4641 35.6601C36.6481 34.7441 35.8921 33.2361 35.5961 32.3081C34.7921 29.8121 35.5921 27.5601 35.6041 25.1081C35.6174 22.6361 35.6134 20.1628 35.5921 17.6881C35.5913 17.6373 35.579 17.5874 35.5562 17.5422C35.5334 17.4969 35.5006 17.4575 35.4605 17.427C35.4203 17.3964 35.3737 17.3756 35.3244 17.3661C35.2751 17.3566 35.2244 17.3586 35.1761 17.3721C32.8961 17.9761 30.5801 18.1801 28.4001 19.0081C25.2721 20.1961 23.0881 21.0001 19.3121 20.6041Z" stroke="#782412" stroke-width="2"/>
<path d="M18.872 25.4921C18.6533 25.4654 18.4613 25.5161 18.296 25.6441C18.2441 25.6829 18.2052 25.7366 18.1845 25.7981C18.1638 25.8595 18.1622 25.9258 18.18 25.9881L18.236 26.1681C18.2468 26.2065 18.247 26.247 18.2364 26.2852C18.2258 26.3233 18.2049 26.3575 18.176 26.3841L17.744 26.8081C17.7169 26.8348 17.6955 26.8668 17.681 26.902C17.6665 26.9371 17.6592 26.9749 17.6596 27.013C17.6599 27.051 17.668 27.0886 17.6832 27.1235C17.6983 27.1584 17.7204 27.1899 17.748 27.2161L18.172 27.6161C18.3613 27.7921 18.328 27.9014 18.072 27.9441C17.824 27.9841 17.6827 28.1134 17.648 28.3321C17.6362 28.4009 17.6518 28.4717 17.6914 28.5292C17.731 28.5867 17.7915 28.6265 17.86 28.6401C18.1293 28.6988 18.36 28.8174 18.552 28.9961C18.5794 29.0217 18.6009 29.0529 18.6153 29.0875C18.6297 29.1221 18.6366 29.1594 18.6354 29.1968C18.6343 29.2343 18.6252 29.2711 18.6087 29.3047C18.5923 29.3384 18.5689 29.3682 18.54 29.3921C18.292 29.5961 17.984 29.7561 17.904 30.0521C17.864 30.2041 17.8973 30.3441 18.004 30.4721C18.0405 30.5148 18.0858 30.5493 18.1368 30.5735C18.1878 30.5976 18.2434 30.6107 18.3 30.6121C18.5267 30.6148 18.7467 30.5681 18.96 30.4721C18.9877 30.4589 19.0188 30.4555 19.0485 30.4626C19.0781 30.4697 19.1044 30.4869 19.1233 30.5113C19.1422 30.5358 19.1526 30.5661 19.1527 30.5974C19.1528 30.6287 19.1427 30.6592 19.124 30.6841C18.908 30.9588 18.7693 31.2721 18.708 31.6241C18.6966 31.6938 18.7079 31.7652 18.7403 31.8279C18.7728 31.8906 18.8245 31.9412 18.888 31.9721C18.9867 32.0228 19.092 32.0414 19.204 32.0281C19.616 31.9801 19.856 31.4641 20.02 31.1201C20.0359 31.0882 20.061 31.0617 20.0919 31.0441C20.1229 31.0264 20.1585 31.0184 20.194 31.0209C20.2296 31.0235 20.2636 31.0366 20.2917 31.0585C20.3198 31.0805 20.3408 31.1102 20.352 31.1441L20.464 31.5041C20.504 31.6294 20.5867 31.7068 20.712 31.7361C20.9467 31.7868 21.136 31.7174 21.28 31.5281C21.3787 31.3948 21.3947 31.2521 21.328 31.1001L20.896 30.1041C20.8691 30.0429 20.8583 29.9759 20.8646 29.9094C20.8709 29.8429 20.8941 29.7791 20.932 29.7241L21.668 28.6561C21.756 28.5281 21.8587 28.5161 21.976 28.6201L22.7 29.2681C22.7497 29.3127 22.7866 29.3696 22.807 29.4329C22.8274 29.4962 22.8305 29.5635 22.816 29.6281C22.68 30.2121 22.6987 30.7908 22.872 31.3641C22.8872 31.416 22.913 31.4642 22.9478 31.5057C22.9825 31.5472 23.0255 31.581 23.074 31.605C23.1224 31.6291 23.1754 31.6428 23.2294 31.6454C23.2834 31.648 23.3374 31.6394 23.388 31.6201L23.656 31.5201C23.7112 31.4991 23.7616 31.4669 23.8038 31.4257C23.8461 31.3845 23.8793 31.3351 23.9015 31.2806C23.9237 31.2261 23.9343 31.1677 23.9326 31.1091C23.931 31.0505 23.9172 30.993 23.892 30.9401L23.68 30.4881C23.5973 30.3094 23.6493 30.2521 23.836 30.3161C24.012 30.3748 24.1867 30.4361 24.36 30.5001C24.7173 30.6334 24.9427 30.5414 25.036 30.2241C25.0813 30.0694 25.0427 29.9401 24.92 29.8361L24.592 29.5641C24.558 29.5347 24.5333 29.4957 24.5214 29.4523C24.5094 29.4088 24.5106 29.3629 24.5249 29.3206C24.5391 29.2782 24.5658 29.2414 24.6013 29.2149C24.6368 29.1884 24.6796 29.1735 24.724 29.1721C25.276 29.1508 25.568 28.8708 25.6 28.3321C25.6026 28.265 25.5814 28.1985 25.54 28.1441L25.328 27.8681C25.3126 27.8484 25.3027 27.825 25.2995 27.8002C25.2962 27.7753 25.2995 27.75 25.3092 27.7266C25.3189 27.7032 25.3346 27.6825 25.3547 27.6667C25.3748 27.6508 25.3987 27.6403 25.424 27.6361C25.592 27.6121 25.752 27.5588 25.904 27.4761C25.9611 27.4464 26.0096 27.4024 26.0449 27.3486C26.0801 27.2947 26.101 27.2327 26.1054 27.1684C26.1098 27.1042 26.0976 27.0399 26.0701 26.9817C26.0425 26.9235 26.0005 26.8734 25.948 26.8361C25.652 26.6308 25.568 26.3494 25.696 25.9921C25.7413 25.8668 25.7493 25.7388 25.72 25.6081C25.64 25.2694 25.4853 24.9628 25.256 24.6881C25.1547 24.5654 25.036 24.5481 24.9 24.6361C24.7827 24.7161 24.6533 24.7508 24.512 24.7401C24.4848 24.7374 24.4585 24.7289 24.4349 24.7153C24.4113 24.7016 24.3909 24.6831 24.3753 24.661C24.3597 24.6389 24.3492 24.6138 24.3445 24.5874C24.3397 24.561 24.3409 24.5339 24.348 24.5081C24.4253 24.2174 24.3693 23.9574 24.18 23.7281C24.1577 23.702 24.1305 23.6805 24.1 23.665C24.0694 23.6494 24.036 23.6401 24.0018 23.6375C23.9676 23.6349 23.9332 23.6391 23.9006 23.6498C23.8681 23.6606 23.8379 23.6777 23.812 23.7001C23.5507 23.9268 23.3307 24.1921 23.152 24.4961C23.1272 24.5386 23.0917 24.5739 23.0492 24.5985C23.0066 24.6232 22.9583 24.6364 22.9091 24.6368C22.8599 24.6372 22.8115 24.6248 22.7685 24.6008C22.7255 24.5769 22.6895 24.5422 22.664 24.5001L22.236 23.7841C22.1883 23.7046 22.1124 23.646 22.0234 23.6201C21.9344 23.5941 21.8389 23.6027 21.756 23.6441L21.524 23.7601C21.2973 23.8721 21.2507 24.0361 21.384 24.2521L22.2 25.5721C22.2827 25.7028 22.2787 25.8321 22.188 25.9601C22.0813 26.1068 22.0027 26.2681 21.952 26.4441C21.943 26.4757 21.9269 26.5049 21.905 26.5294C21.883 26.5539 21.8558 26.573 21.8253 26.5854C21.7948 26.5977 21.7619 26.6029 21.7291 26.6006C21.6963 26.5983 21.6645 26.5886 21.636 26.5721C20.712 26.0281 20.92 25.4321 21.024 24.5441C21.0373 24.4214 21.0187 24.3041 20.968 24.1921C20.8507 23.9334 20.6653 23.8428 20.412 23.9201C20.2573 23.9681 20.148 24.0654 20.084 24.2121L19.96 24.5081C19.9499 24.533 19.9341 24.5551 19.9138 24.5729C19.8936 24.5906 19.8694 24.6034 19.8431 24.6104C19.8169 24.6173 19.7893 24.6182 19.7624 24.613C19.7355 24.6077 19.71 24.5965 19.688 24.5801C19.464 24.4068 19.2067 24.3374 18.916 24.3721C18.788 24.3881 18.7173 24.4588 18.704 24.5841C18.6693 24.8668 18.7587 25.0881 18.972 25.2481C18.9963 25.2661 19.014 25.2917 19.0221 25.3208C19.0303 25.35 19.0285 25.381 19.017 25.409C19.0055 25.437 18.985 25.4604 18.9587 25.4755C18.9325 25.4905 18.902 25.4964 18.872 25.4921Z" stroke="#782412" stroke-width="2"/>
<path d="M24.532 26.1361L24.676 25.8841C24.684 25.8695 24.6879 25.8531 24.6873 25.8365C24.6867 25.8199 24.6816 25.8038 24.6726 25.7898C24.6635 25.7759 24.6509 25.7646 24.636 25.7573C24.6211 25.7499 24.6045 25.7468 24.588 25.7481L23.648 25.8441C23.5489 25.8541 23.4535 25.8875 23.3694 25.9417C23.2853 25.9959 23.2149 26.0694 23.164 26.1561L22.86 26.6641C22.7106 26.9201 22.7813 27.0214 23.072 26.9681L24.02 26.7921C24.1666 26.7654 24.28 26.6881 24.36 26.5601C24.44 26.4294 24.496 26.2921 24.528 26.1481C24.5292 26.1468 24.5302 26.1451 24.5308 26.143C24.5315 26.141 24.5319 26.1386 24.532 26.1361Z" stroke="#782412" stroke-width="2"/>
<path d="M20.58 27.424C20.7773 27.376 20.8187 27.2694 20.704 27.104C20.1947 26.368 19.4733 26.1654 18.54 26.496C18.5237 26.5027 18.5096 26.514 18.4995 26.5285C18.4894 26.543 18.4837 26.5599 18.4833 26.5772C18.4829 26.5945 18.4877 26.6113 18.4971 26.6253C18.5065 26.6394 18.52 26.6501 18.536 26.656C18.936 26.8294 19.2813 27.0774 19.572 27.4C19.7 27.544 19.8573 27.5934 20.044 27.548L20.58 27.424Z" stroke="#782412" stroke-width="2"/>
<path d="M24.4162 28.1137C24.412 28.0724 24.389 28.0335 24.3483 27.999C24.3076 27.9646 24.2502 27.9355 24.1792 27.9132C24.1083 27.8909 24.0252 27.8759 23.9347 27.8691C23.8443 27.8624 23.7482 27.8639 23.6521 27.8737C23.5559 27.8834 23.4615 27.9012 23.3743 27.9261C23.287 27.9509 23.2087 27.9822 23.1436 28.0183C23.0786 28.0544 23.0282 28.0946 22.9953 28.1365C22.9623 28.1783 22.9476 28.2211 22.9517 28.2624C22.9559 28.3037 22.979 28.3427 23.0197 28.3771C23.0603 28.4115 23.1178 28.4407 23.1888 28.463C23.2597 28.4853 23.3428 28.5002 23.4332 28.507C23.5237 28.5138 23.6197 28.5122 23.7159 28.5025C23.8121 28.4927 23.9065 28.4749 23.9937 28.4501C24.0809 28.4253 24.1593 28.3939 24.2243 28.3578C24.2894 28.3217 24.3398 28.2816 24.3727 28.2397C24.4056 28.1978 24.4204 28.155 24.4162 28.1137Z" stroke="#782412" stroke-width="2"/>
<path d="M19.5601 29.2481C19.5585 29.2768 19.5648 29.3054 19.5784 29.3307C19.592 29.356 19.6124 29.377 19.6372 29.3915C19.662 29.406 19.6904 29.4134 19.7191 29.4127C19.7479 29.4121 19.7759 29.4036 19.8001 29.3881C20.1174 29.1907 20.3707 28.9307 20.5601 28.6081C20.5749 28.5818 20.5823 28.552 20.5813 28.5219C20.5804 28.4917 20.5711 28.4624 20.5546 28.4372C20.538 28.412 20.5148 28.3918 20.4876 28.3789C20.4603 28.366 20.43 28.3609 20.4001 28.3641C19.8694 28.4281 19.5894 28.7227 19.5601 29.2481Z" stroke="#782412" stroke-width="2"/>
<path d="M9.928 7.63598C9.50667 7.49731 9.052 7.43198 8.564 7.43998C8.49842 7.44091 8.43454 7.4206 8.38241 7.38222C8.33027 7.34385 8.29284 7.28959 8.276 7.22798C7.988 6.19598 9.568 4.39598 10.184 3.63998C10.2595 3.54649 10.3681 3.48562 10.4872 3.46998C10.6063 3.45435 10.7269 3.48514 10.824 3.55598C11.3547 3.93998 11.7453 4.43731 11.996 5.04798C12.0096 5.07959 12.0325 5.10648 12.0617 5.12499C12.0908 5.14351 12.1247 5.15273 12.1589 5.15142C12.193 5.15011 12.2256 5.13832 12.2523 5.11766C12.279 5.097 12.2984 5.06848 12.308 5.03598L12.896 3.10798C13.1067 2.42264 13.4693 2.32931 13.984 2.82798L15.5 4.28798C15.9907 4.75998 15.9707 5.20931 15.44 5.63598L13.76 6.98398C13.616 7.10131 13.6347 7.14264 13.816 7.10798L15.228 6.83998C15.3907 6.81064 15.4827 6.71331 15.504 6.54798C16.044 2.19998 19.028 2.66398 22.688 2.89198C24.904 3.03064 27.4067 3.33464 30.196 3.80398C31.6893 4.05731 32.5813 4.83598 32.872 6.13998C32.9013 6.27864 32.984 6.36531 33.12 6.39998C34.596 6.80398 36.416 7.76398 36.58 9.33198C36.856 11.908 38.704 14.272 36.212 16.524C36.1107 16.6173 36.088 16.7266 36.144 16.852C36.3947 17.428 36.5187 18.0093 36.516 18.596C36.5053 20.4973 36.504 22.3973 36.512 24.296C36.52 26.72 35.712 29.756 36.52 32.152C36.9 33.292 37.848 35.216 37.192 36.396C36.8453 37.0173 36.2453 37.2093 35.392 36.972C33.608 36.472 32.424 35.348 30.104 36.12C27.472 36.992 25.976 37.164 23.132 37.248C20.348 37.324 17.404 37.812 14.308 37.252C11.868 36.812 10.216 36.78 8 36.924C6.692 37.008 5.728 35.908 6.568 34.676C7.62 33.136 8.732 32.452 8.828 29.996C8.964 26.608 9.12 22.956 8.26 19.648C8.228 19.5173 8.14533 19.444 8.012 19.428C6.77467 19.2653 6.144 18.6226 6.12 17.5C6.08267 15.8093 5.85067 14.4813 5.424 13.516C5.18667 12.9746 5.31733 12.204 5.816 11.204C6.29333 10.2466 7.264 9.48398 8.728 8.91598C8.79558 8.88961 8.85641 8.84906 8.90618 8.79722C8.95595 8.74537 8.99345 8.6835 9.016 8.61598C9.15733 8.17864 9.45867 7.90798 9.92 7.80398C10.1333 7.75864 10.136 7.70264 9.928 7.63598ZM29.716 8.07998C30.396 7.99598 30.676 8.21998 31.108 8.69198C31.1377 8.72469 31.1757 8.7487 31.218 8.76153C31.2602 8.77435 31.3053 8.77552 31.3485 8.76492C31.3918 8.75432 31.4315 8.73233 31.4638 8.70123C31.496 8.67012 31.5196 8.63103 31.532 8.58798C32.02 6.81198 32.412 5.17598 30.012 4.73198C28.284 4.41198 26.636 4.07998 24.844 3.98798C23.2253 3.90531 21.6093 3.79464 19.996 3.65598C18.084 3.49064 16.896 4.35331 16.432 6.24398C16.4254 6.27167 16.4254 6.30057 16.4321 6.3282C16.4388 6.35584 16.452 6.38137 16.4704 6.40262C16.4889 6.42386 16.5122 6.44018 16.5383 6.45017C16.5643 6.46016 16.5924 6.46353 16.62 6.45998C18.348 6.27598 18.644 8.70798 19.12 9.89198C19.1539 9.97421 19.2129 10.0434 19.2885 10.0895C19.3641 10.1356 19.4523 10.1561 19.54 10.148C20.316 10.072 21.08 9.97198 21.876 9.73198C24.4413 8.95331 27.0547 8.40264 29.716 8.07998ZM14.628 5.17198C14.6551 5.15143 14.6777 5.12543 14.6942 5.09565C14.7106 5.06587 14.7207 5.03297 14.7237 4.99906C14.7267 4.96516 14.7226 4.931 14.7117 4.89878C14.7007 4.86656 14.6831 4.83699 14.66 4.81198L13.916 3.99198C13.8862 3.95855 13.8478 3.93396 13.8049 3.92092C13.7621 3.90788 13.7165 3.90688 13.6731 3.91803C13.6297 3.92918 13.5903 3.95206 13.559 3.98415C13.5278 4.01625 13.506 4.05632 13.496 4.09998L13.092 5.78398C13.0802 5.83284 13.0839 5.88414 13.1024 5.93087C13.1209 5.9776 13.1533 6.01748 13.1954 6.04505C13.2374 6.07262 13.2869 6.08655 13.3371 6.08493C13.3873 6.0833 13.4359 6.06621 13.476 6.03598L14.628 5.17198ZM10.776 4.67598C10.763 4.65299 10.7444 4.63369 10.7219 4.61987C10.6993 4.60605 10.6737 4.59817 10.6473 4.59697C10.6209 4.59577 10.5947 4.60129 10.571 4.61301C10.5473 4.62473 10.527 4.64227 10.512 4.66398L9.348 6.35598C9.33271 6.3777 9.32322 6.40297 9.32043 6.42939C9.31764 6.4558 9.32165 6.4825 9.33206 6.50693C9.34248 6.53137 9.35896 6.55274 9.37995 6.56903C9.40094 6.58531 9.42574 6.59596 9.452 6.59998L11.748 6.93198C11.7771 6.93669 11.807 6.93304 11.8341 6.92146C11.8613 6.90987 11.8846 6.89083 11.9013 6.86654C11.9181 6.84225 11.9276 6.81371 11.9288 6.78423C11.93 6.75474 11.9228 6.72553 11.908 6.69998L10.776 4.67598ZM33.344 11.936C36.344 10.492 36.404 8.35598 33.092 7.33998C32.956 7.29731 32.8667 7.34531 32.824 7.48398L32.092 9.92398C32.052 10.0573 32.0653 10.184 32.132 10.304L32.944 11.804C32.9818 11.8732 33.0443 11.9255 33.1187 11.9501C33.1931 11.9746 33.2738 11.9696 33.344 11.936ZM10.268 10.124C10.6867 10.9213 11.0187 11.912 11.264 13.096C11.296 13.2506 11.3907 13.332 11.548 13.34L18.66 13.708C18.8387 13.7186 18.928 13.6346 18.928 13.456C18.928 11.744 17.988 9.62398 17.388 7.95598C17.3347 7.80707 17.2302 7.68192 17.0932 7.60281C16.9562 7.5237 16.7956 7.49576 16.64 7.52398L10.248 8.65598C10.0827 8.68531 9.99333 8.78264 9.98 8.94798C9.95333 9.31598 10.0493 9.70798 10.268 10.124ZM31.996 12.068L30.44 9.41998C30.2747 9.13731 30.0293 9.02264 29.704 9.07598C28 9.34798 26.396 9.57598 24.672 10.048C23.064 10.4853 21.4347 10.872 19.784 11.208C19.6507 11.2346 19.5987 11.3146 19.628 11.448L20.048 13.456C20.0747 13.5813 20.152 13.6533 20.28 13.672C22.492 13.96 24.616 14.172 26.824 13.76C28.5627 13.4346 30.2427 12.9933 31.864 12.436C32.0587 12.3693 32.1027 12.2466 31.996 12.068ZM9.136 9.90798C9.10133 9.81464 9.03867 9.78931 8.948 9.83198C8.132 10.2213 7.42 10.7426 6.812 11.396C6.68764 11.5302 6.60391 11.6946 6.57119 11.8688C6.53848 12.043 6.55824 12.2194 6.628 12.376C6.7 12.5413 6.89067 12.68 7.2 12.792C8.10133 13.12 9.056 13.272 10.064 13.248C10.107 13.2472 10.1491 13.236 10.1868 13.2152C10.2245 13.1945 10.2566 13.1648 10.2806 13.1287C10.3045 13.0926 10.3195 13.0512 10.3242 13.0079C10.329 12.9646 10.3234 12.9207 10.308 12.88L9.136 9.90798ZM6.544 14.028C6.99467 15.108 7.18133 16.2586 7.104 17.48C7.09099 17.7053 7.16164 17.9277 7.30251 18.1047C7.44339 18.2817 7.64465 18.401 7.868 18.44C10.28 18.848 12.716 18.448 14.9 18.924C18.492 19.704 22.436 20.26 25.692 18.936C27.348 18.264 29.1 17.528 30.868 17.236C34.168 16.692 38.12 16.132 36.02 11.48C35.9453 11.312 35.844 11.2933 35.716 11.424C34.8227 12.344 33.7253 12.996 32.424 13.38C29.352 14.288 26.324 15.148 23.076 14.932C18.456 14.624 13.824 14.52 9.2 14.18C8.30933 14.1133 7.45733 13.9293 6.644 13.628C6.54267 13.5906 6.48933 13.6253 6.484 13.732C6.476 13.82 6.496 13.9186 6.544 14.028ZM19.312 20.604C15.972 20.252 12.904 19.332 9.504 19.624C9.368 19.6373 9.31067 19.7106 9.332 19.844C9.96933 23.8386 10.1307 27.292 9.816 30.204C9.60533 32.14 8.77867 33.744 7.336 35.016C7.27211 35.0726 7.22315 35.1441 7.19345 35.2241C7.16374 35.3042 7.1542 35.3903 7.16566 35.4749C7.17713 35.5595 7.20925 35.64 7.25918 35.7093C7.30912 35.7785 7.37534 35.8344 7.452 35.872C8.12 36.196 9.876 35.864 10.672 35.868C13.132 35.88 15.432 36.704 17.904 36.584C20.5867 36.4533 23.268 36.2933 25.948 36.104C26.708 36.0533 27.524 35.896 28.396 35.632C29.632 35.264 31.332 34.568 32.552 34.94C33.552 35.2466 34.5747 35.632 35.62 36.096C35.7029 36.133 35.7932 36.1508 35.884 36.1481C35.9748 36.1455 36.064 36.1224 36.145 36.0806C36.2259 36.0387 36.2966 35.9793 36.3518 35.9065C36.407 35.8337 36.4454 35.7495 36.464 35.66C36.648 34.744 35.892 33.236 35.596 32.308C34.792 29.812 35.592 27.56 35.604 25.108C35.6173 22.636 35.6133 20.1626 35.592 17.688C35.5912 17.6372 35.579 17.5873 35.5561 17.542C35.5333 17.4968 35.5006 17.4574 35.4604 17.4268C35.4202 17.3963 35.3737 17.3755 35.3244 17.366C35.2751 17.3565 35.2243 17.3585 35.176 17.372C32.896 17.976 30.58 18.18 28.4 19.008C25.272 20.196 23.088 21 19.312 20.604Z" fill="black" fill-opacity="0.996"/>
<path d="M29.716 8.08005C27.0546 8.40272 24.4413 8.95338 21.876 9.73205C21.08 9.97205 20.316 10.0721 19.54 10.1481C19.4522 10.1562 19.3641 10.1357 19.2885 10.0896C19.2129 10.0435 19.1538 9.97428 19.12 9.89205C18.644 8.70805 18.348 6.27605 16.62 6.46005C16.5923 6.4636 16.5643 6.46024 16.5382 6.45025C16.5122 6.44026 16.4889 6.42394 16.4704 6.40269C16.4519 6.38145 16.4387 6.35591 16.432 6.32828C16.4254 6.30065 16.4253 6.27174 16.432 6.24405C16.896 4.35338 18.084 3.49072 19.996 3.65605C21.6093 3.79472 23.2253 3.90538 24.844 3.98805C26.636 4.08005 28.284 4.41205 30.012 4.73205C32.412 5.17605 32.02 6.81205 31.532 8.58805C31.5195 8.6311 31.496 8.6702 31.4637 8.7013C31.4315 8.73241 31.3917 8.7544 31.3485 8.765C31.3053 8.7756 31.2602 8.77442 31.2179 8.7616C31.1756 8.74878 31.1377 8.72477 31.108 8.69205C30.676 8.22005 30.396 7.99605 29.716 8.08005Z" fill="#BCBCBC"/>
<path d="M14.628 5.17203L13.476 6.03603C13.4358 6.06626 13.3873 6.08336 13.3371 6.08498C13.2869 6.08661 13.2374 6.07268 13.1953 6.04511C13.1533 6.01753 13.1208 5.97766 13.1023 5.93093C13.0838 5.8842 13.0802 5.8329 13.092 5.78403L13.496 4.10003C13.506 4.05637 13.5278 4.0163 13.559 3.98421C13.5902 3.95212 13.6297 3.92924 13.6731 3.91809C13.7164 3.90693 13.7621 3.90793 13.8049 3.92098C13.8477 3.93402 13.8862 3.9586 13.916 3.99203L14.66 4.81203C14.6831 4.83705 14.7007 4.86661 14.7116 4.89883C14.7226 4.93105 14.7267 4.96522 14.7237 4.99912C14.7207 5.03303 14.7106 5.06593 14.6941 5.0957C14.6776 5.12548 14.6551 5.15148 14.628 5.17203Z" fill="#EF4823"/>
<path d="M10.776 4.67597L11.908 6.69997C11.9228 6.72552 11.93 6.75473 11.9288 6.78422C11.9276 6.8137 11.9181 6.84224 11.9013 6.86653C11.8846 6.89082 11.8613 6.90986 11.8341 6.92145C11.807 6.93303 11.7771 6.93668 11.748 6.93197L9.45201 6.59997C9.42575 6.59595 9.40095 6.5853 9.37996 6.56902C9.35897 6.55273 9.34249 6.53136 9.33207 6.50692C9.32166 6.48249 9.31765 6.45579 9.32044 6.42938C9.32323 6.40296 9.33272 6.37769 9.34801 6.35597L10.512 4.66397C10.5271 4.64226 10.5474 4.62472 10.571 4.613C10.5947 4.60128 10.6209 4.59576 10.6473 4.59696C10.6737 4.59816 10.6994 4.60604 10.7219 4.61986C10.7444 4.63368 10.763 4.65298 10.776 4.67597Z" fill="#EF4823"/>
<path d="M33.092 7.34001C36.404 8.35601 36.344 10.492 33.344 11.936C33.2737 11.9696 33.1931 11.9747 33.1187 11.9501C33.0443 11.9256 32.9817 11.8733 32.944 11.804L32.132 10.304C32.0653 10.184 32.052 10.0573 32.092 9.92401L32.824 7.48401C32.8666 7.34534 32.956 7.29734 33.092 7.34001Z" fill="#EF4823"/>
<path d="M10.2681 10.124C10.0494 9.70802 9.95339 9.31602 9.98006 8.94802C9.99339 8.78268 10.0827 8.68535 10.2481 8.65602L16.6401 7.52402C16.7957 7.49581 16.9563 7.52374 17.0933 7.60285C17.2302 7.68196 17.3347 7.80711 17.3881 7.95602C17.9881 9.62402 18.9281 11.744 18.9281 13.456C18.9281 13.6347 18.8387 13.7187 18.6601 13.708L11.5481 13.34C11.3907 13.332 11.2961 13.2507 11.2641 13.096C11.0187 11.912 10.6867 10.9214 10.2681 10.124Z" fill="#14B6B9"/>
<path d="M31.9961 12.0681C32.1027 12.2467 32.0587 12.3694 31.8641 12.4361C30.2427 12.9934 28.5627 13.4347 26.8241 13.7601C24.6161 14.1721 22.4921 13.9601 20.2801 13.6721C20.1521 13.6534 20.0747 13.5814 20.0481 13.4561L19.6281 11.4481C19.5987 11.3147 19.6507 11.2347 19.7841 11.2081C21.4347 10.8721 23.0641 10.4854 24.6721 10.0481C26.3961 9.57605 28.0001 9.34805 29.7041 9.07605C30.0294 9.02272 30.2747 9.13739 30.4401 9.42005L31.9961 12.0681Z" fill="#D6E5E5"/>
<path d="M9.13597 9.90797L10.308 12.88C10.3234 12.9207 10.329 12.9646 10.3242 13.0079C10.3194 13.0512 10.3044 13.0926 10.2805 13.1287C10.2566 13.1648 10.2244 13.1944 10.1867 13.2152C10.1491 13.236 10.1069 13.2472 10.064 13.248C9.05597 13.272 8.1013 13.12 7.19997 12.792C6.89063 12.68 6.69997 12.5413 6.62797 12.376C6.5582 12.2194 6.53845 12.043 6.57116 11.8688C6.60387 11.6946 6.68761 11.5302 6.81197 11.396C7.41997 10.7426 8.13197 10.2213 8.94797 9.83197C9.03863 9.7893 9.1013 9.81463 9.13597 9.90797Z" fill="#EF4823"/>
<path d="M6.54401 14.028C6.49601 13.9187 6.47601 13.82 6.48401 13.732C6.48935 13.6253 6.54268 13.5907 6.64401 13.628C7.45735 13.9293 8.30935 14.1133 9.20001 14.18C13.824 14.52 18.456 14.624 23.076 14.932C26.324 15.148 29.352 14.288 32.424 13.38C33.7253 12.996 34.8227 12.344 35.716 11.424C35.844 11.2933 35.9453 11.312 36.02 11.48C38.12 16.132 34.168 16.692 30.868 17.236C29.1 17.528 27.348 18.264 25.692 18.936C22.436 20.26 18.492 19.704 14.9 18.924C12.716 18.448 10.28 18.848 7.86801 18.44C7.64466 18.4011 7.4434 18.2818 7.30253 18.1047C7.16165 17.9277 7.091 17.7054 7.10401 17.48C7.18135 16.2587 6.99468 15.108 6.54401 14.028Z" fill="#EF4823"/>
<path d="M9.50394 19.624C12.9039 19.332 15.9719 20.252 19.3119 20.604C23.0879 21 25.2719 20.196 28.3999 19.008C30.5799 18.18 32.8959 17.976 35.1759 17.372C35.2243 17.3585 35.275 17.3565 35.3243 17.366C35.3736 17.3755 35.4202 17.3963 35.4603 17.4268C35.5005 17.4573 35.5333 17.4968 35.5561 17.542C35.5789 17.5873 35.5912 17.6372 35.5919 17.688C35.6133 20.1626 35.6173 22.636 35.6039 25.108C35.5919 27.56 34.7919 29.812 35.5959 32.308C35.8919 33.236 36.6479 34.744 36.4639 35.66C36.4453 35.7495 36.407 35.8337 36.3518 35.9065C36.2965 35.9793 36.2259 36.0387 36.1449 36.0806C36.064 36.1224 35.9748 36.1455 35.8839 36.1481C35.7931 36.1508 35.7029 36.133 35.6199 36.096C34.5746 35.632 33.5519 35.2466 32.5519 34.94C31.3319 34.568 29.6319 35.264 28.3959 35.632C27.5239 35.896 26.7079 36.0533 25.9479 36.104C23.2679 36.2933 20.5866 36.4533 17.9039 36.584C15.4319 36.704 13.1319 35.88 10.6719 35.868C9.87594 35.864 8.11994 36.196 7.45194 35.872C7.37528 35.8344 7.30906 35.7785 7.25912 35.7092C7.20918 35.64 7.17706 35.5595 7.1656 35.4749C7.15413 35.3903 7.16368 35.3042 7.19338 35.2241C7.22309 35.1441 7.27205 35.0726 7.33594 35.016C8.77861 33.744 9.60527 32.14 9.81594 30.204C10.1306 27.292 9.96927 23.8386 9.33194 19.844C9.31061 19.7106 9.36794 19.6373 9.50394 19.624ZM18.8719 25.492C18.6533 25.4653 18.4613 25.516 18.2959 25.644C18.244 25.6828 18.2052 25.7365 18.1844 25.7979C18.1637 25.8594 18.1622 25.9256 18.1799 25.988L18.2359 26.168C18.2468 26.2064 18.2469 26.2469 18.2363 26.285C18.2257 26.3232 18.2048 26.3574 18.1759 26.384L17.7439 26.808C17.7169 26.8347 17.6954 26.8666 17.6809 26.9018C17.6664 26.937 17.6591 26.9748 17.6595 27.0128C17.6599 27.0509 17.6679 27.0885 17.6831 27.1234C17.6983 27.1583 17.7203 27.1898 17.7479 27.216L18.1719 27.616C18.3613 27.792 18.3279 27.9013 18.0719 27.944C17.8239 27.984 17.6826 28.1133 17.6479 28.332C17.6362 28.4008 17.6518 28.4715 17.6914 28.529C17.7309 28.5866 17.7914 28.6264 17.8599 28.64C18.1293 28.6986 18.3599 28.8173 18.5519 28.996C18.5793 29.0216 18.6009 29.0527 18.6153 29.0873C18.6297 29.1219 18.6365 29.1592 18.6354 29.1967C18.6342 29.2341 18.6251 29.2709 18.6087 29.3046C18.5922 29.3383 18.5688 29.3681 18.5399 29.392C18.2919 29.596 17.9839 29.756 17.9039 30.052C17.8639 30.204 17.8973 30.344 18.0039 30.472C18.0405 30.5147 18.0857 30.5492 18.1367 30.5733C18.1877 30.5974 18.2433 30.6106 18.2999 30.612C18.5266 30.6146 18.7466 30.568 18.9599 30.472C18.9876 30.4587 19.0188 30.4554 19.0484 30.4625C19.078 30.4696 19.1044 30.4868 19.1233 30.5112C19.1422 30.5356 19.1525 30.5659 19.1526 30.5972C19.1528 30.6286 19.1427 30.6591 19.1239 30.684C18.9079 30.9586 18.7693 31.272 18.7079 31.624C18.6965 31.6936 18.7078 31.7651 18.7403 31.8278C18.7727 31.8905 18.8245 31.9411 18.8879 31.972C18.9866 32.0226 19.0919 32.0413 19.2039 32.028C19.6159 31.98 19.8559 31.464 20.0199 31.12C20.0359 31.0881 20.0609 31.0616 20.0919 31.0439C20.1229 31.0263 20.1584 31.0182 20.194 31.0208C20.2295 31.0234 20.2635 31.0365 20.2917 31.0584C20.3198 31.0803 20.3408 31.1101 20.3519 31.144L20.4639 31.504C20.5039 31.6293 20.5866 31.7066 20.7119 31.736C20.9466 31.7866 21.1359 31.7173 21.2799 31.528C21.3786 31.3946 21.3946 31.252 21.3279 31.1L20.8959 30.104C20.8691 30.0428 20.8583 29.9758 20.8646 29.9093C20.8709 29.8428 20.8941 29.779 20.9319 29.724L21.6679 28.656C21.7559 28.528 21.8586 28.516 21.9759 28.62L22.6999 29.268C22.7496 29.3126 22.7866 29.3695 22.807 29.4327C22.8273 29.496 22.8304 29.5634 22.8159 29.628C22.6799 30.212 22.6986 30.7906 22.8719 31.364C22.8872 31.4159 22.913 31.4641 22.9477 31.5056C22.9825 31.547 23.0254 31.5809 23.0739 31.6049C23.1224 31.629 23.1753 31.6427 23.2293 31.6453C23.2834 31.6479 23.3374 31.6393 23.3879 31.62L23.6559 31.52C23.7112 31.4989 23.7615 31.4668 23.8037 31.4256C23.846 31.3844 23.8793 31.3349 23.9014 31.2805C23.9236 31.226 23.9342 31.1676 23.9326 31.109C23.9309 31.0504 23.9171 30.9928 23.8919 30.94L23.6799 30.488C23.5973 30.3093 23.6493 30.252 23.8359 30.316C24.0119 30.3746 24.1866 30.436 24.3599 30.5C24.7173 30.6333 24.9426 30.5413 25.0359 30.224C25.0813 30.0693 25.0426 29.94 24.9199 29.836L24.5919 29.564C24.5579 29.5346 24.5333 29.4956 24.5213 29.4522C24.5093 29.4087 24.5105 29.3628 24.5248 29.3205C24.5391 29.2781 24.5657 29.2413 24.6012 29.2148C24.6368 29.1883 24.6795 29.1734 24.7239 29.172C25.2759 29.1506 25.5679 28.8706 25.5999 28.332C25.6025 28.2648 25.5813 28.1984 25.5399 28.144L25.3279 27.868C25.3125 27.8482 25.3027 27.8248 25.2994 27.8C25.2961 27.7752 25.2995 27.7499 25.3091 27.7264C25.3188 27.703 25.3345 27.6824 25.3546 27.6665C25.3748 27.6507 25.3986 27.6401 25.4239 27.636C25.5919 27.612 25.7519 27.5586 25.9039 27.476C25.961 27.4462 26.0095 27.4023 26.0448 27.3484C26.0801 27.2946 26.1009 27.2325 26.1053 27.1683C26.1097 27.1041 26.0976 27.0398 26.07 26.9816C26.0425 26.9234 26.0004 26.8733 25.9479 26.836C25.6519 26.6306 25.5679 26.3493 25.6959 25.992C25.7413 25.8666 25.7493 25.7386 25.7199 25.608C25.6399 25.2693 25.4853 24.9626 25.2559 24.688C25.1546 24.5653 25.0359 24.548 24.8999 24.636C24.7826 24.716 24.6533 24.7506 24.5119 24.74C24.4847 24.7373 24.4584 24.7288 24.4348 24.7151C24.4112 24.7015 24.3909 24.683 24.3753 24.6609C24.3597 24.6388 24.3491 24.6137 24.3444 24.5873C24.3397 24.5608 24.3409 24.5338 24.3479 24.508C24.4253 24.2173 24.3693 23.9573 24.1799 23.728C24.1577 23.7019 24.1305 23.6804 24.0999 23.6649C24.0693 23.6493 24.036 23.64 24.0018 23.6374C23.9676 23.6347 23.9332 23.6389 23.9006 23.6497C23.868 23.6604 23.8379 23.6775 23.8119 23.7C23.5506 23.9266 23.3306 24.192 23.1519 24.496C23.1271 24.5384 23.0917 24.5737 23.0491 24.5984C23.0065 24.6231 22.9583 24.6362 22.9091 24.6367C22.8599 24.6371 22.8114 24.6247 22.7684 24.6007C22.7255 24.5767 22.6895 24.542 22.6639 24.5L22.2359 23.784C22.1883 23.7045 22.1124 23.6459 22.0234 23.6199C21.9344 23.594 21.8389 23.6026 21.7559 23.644L21.5239 23.76C21.2973 23.872 21.2506 24.036 21.3839 24.252L22.1999 25.572C22.2826 25.7026 22.2786 25.832 22.1879 25.96C22.0813 26.1066 22.0026 26.268 21.9519 26.444C21.943 26.4756 21.9269 26.5048 21.9049 26.5293C21.883 26.5537 21.8557 26.5729 21.8252 26.5852C21.7948 26.5976 21.7619 26.6028 21.7291 26.6005C21.6962 26.5982 21.6644 26.5884 21.6359 26.572C20.7119 26.028 20.9199 25.432 21.0239 24.544C21.0373 24.4213 21.0186 24.304 20.9679 24.192C20.8506 23.9333 20.6653 23.8426 20.4119 23.92C20.2573 23.968 20.1479 24.0653 20.0839 24.212L19.9599 24.508C19.9498 24.5329 19.934 24.555 19.9138 24.5727C19.8935 24.5905 19.8693 24.6033 19.8431 24.6102C19.8168 24.6172 19.7892 24.6181 19.7623 24.6128C19.7354 24.6076 19.71 24.5963 19.6879 24.58C19.4639 24.4066 19.2066 24.3373 18.9159 24.372C18.7879 24.388 18.7173 24.4586 18.7039 24.584C18.6693 24.8666 18.7586 25.088 18.9719 25.248C18.9963 25.266 19.0139 25.2916 19.0221 25.3207C19.0302 25.3499 19.0284 25.3809 19.0169 25.4089C19.0054 25.4369 18.985 25.4603 18.9587 25.4753C18.9324 25.4904 18.9019 25.4962 18.8719 25.492Z" fill="#EF4823"/>
<path d="M18.972 25.248C18.7587 25.088 18.6693 24.8666 18.704 24.584C18.7173 24.4586 18.788 24.388 18.916 24.372C19.2067 24.3373 19.464 24.4066 19.688 24.58C19.71 24.5964 19.7355 24.6076 19.7624 24.6128C19.7893 24.6181 19.8169 24.6172 19.8431 24.6102C19.8694 24.6033 19.8936 24.5905 19.9138 24.5727C19.9341 24.555 19.9499 24.5329 19.96 24.508L20.084 24.212C20.148 24.0653 20.2573 23.968 20.412 23.92C20.6653 23.8426 20.8507 23.9333 20.968 24.192C21.0187 24.304 21.0373 24.4213 21.024 24.544C20.92 25.432 20.712 26.028 21.636 26.572C21.6645 26.5885 21.6963 26.5982 21.7291 26.6005C21.7619 26.6028 21.7948 26.5976 21.8253 26.5852C21.8558 26.5729 21.883 26.5537 21.905 26.5293C21.9269 26.5048 21.943 26.4756 21.952 26.444C22.0027 26.268 22.0813 26.1066 22.188 25.96C22.2787 25.832 22.2827 25.7026 22.2 25.572L21.384 24.252C21.2507 24.036 21.2973 23.872 21.524 23.76L21.756 23.644C21.8389 23.6026 21.9344 23.594 22.0234 23.6199C22.1124 23.6459 22.1883 23.7045 22.236 23.784L22.664 24.5C22.6895 24.542 22.7255 24.5768 22.7685 24.6007C22.8115 24.6247 22.8599 24.6371 22.9091 24.6367C22.9583 24.6363 23.0066 24.6231 23.0492 24.5984C23.0917 24.5738 23.1272 24.5385 23.152 24.496C23.3307 24.192 23.5507 23.9266 23.812 23.7C23.8379 23.6775 23.8681 23.6604 23.9006 23.6497C23.9332 23.639 23.9676 23.6348 24.0018 23.6374C24.036 23.64 24.0694 23.6493 24.1 23.6649C24.1305 23.6804 24.1577 23.7019 24.18 23.728C24.3693 23.9573 24.4253 24.2173 24.348 24.508C24.3409 24.5338 24.3397 24.5609 24.3445 24.5873C24.3492 24.6137 24.3597 24.6388 24.3753 24.6609C24.3909 24.683 24.4113 24.7015 24.4349 24.7152C24.4585 24.7288 24.4848 24.7373 24.512 24.74C24.6533 24.7506 24.7827 24.716 24.9 24.636C25.036 24.548 25.1547 24.5653 25.256 24.688C25.4853 24.9626 25.64 25.2693 25.72 25.608C25.7493 25.7386 25.7413 25.8666 25.696 25.992C25.568 26.3493 25.652 26.6306 25.948 26.836C26.0005 26.8733 26.0425 26.9234 26.0701 26.9816C26.0976 27.0398 26.1098 27.1041 26.1054 27.1683C26.101 27.2325 26.0801 27.2946 26.0449 27.3484C26.0096 27.4023 25.9611 27.4462 25.904 27.476C25.752 27.5586 25.592 27.612 25.424 27.636C25.3987 27.6401 25.3748 27.6507 25.3547 27.6665C25.3346 27.6824 25.3189 27.7031 25.3092 27.7265C25.2995 27.7499 25.2962 27.7752 25.2994 27.8C25.3027 27.8248 25.3126 27.8483 25.328 27.868L25.54 28.144C25.5814 28.1984 25.6026 28.2649 25.6 28.332C25.568 28.8706 25.276 29.1506 24.724 29.172C24.6796 29.1734 24.6368 29.1883 24.6013 29.2148C24.5658 29.2413 24.5391 29.2781 24.5249 29.3205C24.5106 29.3628 24.5094 29.4087 24.5214 29.4522C24.5333 29.4956 24.558 29.5346 24.592 29.564L24.92 29.836C25.0427 29.94 25.0813 30.0693 25.036 30.224C24.9427 30.5413 24.7173 30.6333 24.36 30.5C24.1867 30.436 24.012 30.3746 23.836 30.316C23.6493 30.252 23.5973 30.3093 23.68 30.488L23.892 30.94C23.9172 30.9928 23.931 31.0504 23.9326 31.109C23.9343 31.1676 23.9237 31.226 23.9015 31.2805C23.8793 31.335 23.8461 31.3844 23.8038 31.4256C23.7616 31.4668 23.7112 31.499 23.656 31.52L23.388 31.62C23.3374 31.6393 23.2834 31.6479 23.2294 31.6453C23.1754 31.6427 23.1224 31.629 23.074 31.6049C23.0255 31.5809 22.9825 31.5471 22.9478 31.5056C22.913 31.4641 22.8872 31.4159 22.872 31.364C22.6987 30.7906 22.68 30.212 22.816 29.628C22.8305 29.5634 22.8274 29.496 22.807 29.4328C22.7866 29.3695 22.7497 29.3126 22.7 29.268L21.976 28.62C21.8587 28.516 21.756 28.528 21.668 28.656L20.932 29.724C20.8941 29.779 20.8709 29.8428 20.8646 29.9093C20.8583 29.9758 20.8691 30.0428 20.896 30.104L21.328 31.1C21.3947 31.252 21.3787 31.3946 21.28 31.528C21.136 31.7173 20.9467 31.7866 20.712 31.736C20.5867 31.7066 20.504 31.6293 20.464 31.504L20.352 31.144C20.3408 31.1101 20.3198 31.0803 20.2917 31.0584C20.2636 31.0365 20.2296 31.0234 20.194 31.0208C20.1585 31.0183 20.1229 31.0263 20.0919 31.044C20.061 31.0616 20.0359 31.0881 20.02 31.12C19.856 31.464 19.616 31.98 19.204 32.028C19.092 32.0413 18.9867 32.0226 18.888 31.972C18.8245 31.9411 18.7728 31.8905 18.7403 31.8278C18.7079 31.7651 18.6966 31.6936 18.708 31.624C18.7693 31.272 18.908 30.9586 19.124 30.684C19.1427 30.6591 19.1528 30.6286 19.1527 30.5973C19.1526 30.5659 19.1422 30.5356 19.1233 30.5112C19.1044 30.4868 19.0781 30.4696 19.0485 30.4625C19.0188 30.4554 18.9877 30.4587 18.96 30.472C18.7467 30.568 18.5267 30.6146 18.3 30.612C18.2434 30.6106 18.1878 30.5975 18.1368 30.5733C18.0858 30.5492 18.0405 30.5147 18.004 30.472C17.8973 30.344 17.864 30.204 17.904 30.052C17.984 29.756 18.292 29.596 18.54 29.392C18.5689 29.3681 18.5923 29.3383 18.6087 29.3046C18.6252 29.2709 18.6343 29.2342 18.6354 29.1967C18.6366 29.1592 18.6297 29.122 18.6153 29.0874C18.6009 29.0527 18.5794 29.0216 18.552 28.996C18.36 28.8173 18.1293 28.6986 17.86 28.64C17.7915 28.6264 17.731 28.5866 17.6914 28.5291C17.6518 28.4715 17.6362 28.4008 17.648 28.332C17.6827 28.1133 17.824 27.984 18.072 27.944C18.328 27.9013 18.3613 27.792 18.172 27.616L17.748 27.216C17.7204 27.1898 17.6983 27.1583 17.6832 27.1234C17.668 27.0885 17.6599 27.0509 17.6596 27.0128C17.6592 26.9748 17.6665 26.937 17.681 26.9018C17.6955 26.8666 17.7169 26.8347 17.744 26.808L18.176 26.384C18.2049 26.3574 18.2258 26.3232 18.2364 26.285C18.247 26.2469 18.2468 26.2064 18.236 26.168L18.18 25.988C18.1622 25.9256 18.1638 25.8594 18.1845 25.7979C18.2052 25.7365 18.2441 25.6828 18.296 25.644C18.4613 25.516 18.6533 25.4653 18.872 25.492C18.902 25.4962 18.9325 25.4904 18.9587 25.4753C18.985 25.4603 19.0055 25.4369 19.017 25.4089C19.0285 25.3809 19.0303 25.3499 19.0221 25.3207C19.014 25.2916 18.9963 25.266 18.972 25.248ZM24.532 26.136L24.676 25.884C24.684 25.8694 24.6879 25.853 24.6873 25.8364C24.6867 25.8198 24.6816 25.8037 24.6726 25.7897C24.6636 25.7758 24.6509 25.7645 24.6361 25.7572C24.6212 25.7498 24.6045 25.7467 24.588 25.748L23.648 25.844C23.5489 25.8539 23.4535 25.8874 23.3694 25.9416C23.2853 25.9958 23.2149 26.0693 23.164 26.156L22.86 26.664C22.7107 26.92 22.7813 27.0213 23.072 26.968L24.02 26.792C24.1667 26.7653 24.28 26.688 24.36 26.56C24.44 26.4293 24.496 26.292 24.528 26.148C24.5292 26.1467 24.5302 26.145 24.5309 26.1429C24.5316 26.1409 24.5319 26.1385 24.532 26.136ZM20.58 27.424C20.7773 27.376 20.8187 27.2693 20.704 27.104C20.1947 26.368 19.4733 26.1653 18.54 26.496C18.5237 26.5026 18.5096 26.5139 18.4995 26.5284C18.4894 26.5429 18.4837 26.5599 18.4833 26.5772C18.4829 26.5944 18.4877 26.6112 18.4971 26.6253C18.5065 26.6393 18.52 26.65 18.536 26.656C18.936 26.8293 19.2813 27.0773 19.572 27.4C19.7 27.544 19.8573 27.5933 20.044 27.548L20.58 27.424ZM24.4162 28.1136C24.412 28.0723 24.389 28.0334 24.3483 27.999C24.3076 27.9646 24.2502 27.9354 24.1792 27.9131C24.1083 27.8908 24.0252 27.8758 23.9347 27.8691C23.8443 27.8623 23.7482 27.8638 23.6521 27.8736C23.5559 27.8833 23.4615 27.9012 23.3743 27.926C23.287 27.9508 23.2087 27.9822 23.1436 28.0183C23.0786 28.0544 23.0282 28.0945 22.9953 28.1364C22.9623 28.1782 22.9476 28.2211 22.9518 28.2623C22.9559 28.3036 22.979 28.3426 23.0197 28.377C23.0604 28.4114 23.1178 28.4406 23.1888 28.4629C23.2597 28.4852 23.3428 28.5001 23.4333 28.5069C23.5237 28.5137 23.6197 28.5121 23.7159 28.5024C23.8121 28.4926 23.9065 28.4748 23.9937 28.45C24.0809 28.4252 24.1593 28.3938 24.2243 28.3577C24.2894 28.3216 24.3398 28.2815 24.3727 28.2396C24.4056 28.1977 24.4204 28.1549 24.4162 28.1136ZM19.56 29.248C19.5584 29.2767 19.5647 29.3053 19.5784 29.3306C19.592 29.3559 19.6123 29.377 19.6371 29.3914C19.662 29.4059 19.6903 29.4133 19.7191 29.4126C19.7478 29.412 19.7758 29.4035 19.8 29.388C20.1173 29.1906 20.3707 28.9306 20.56 28.608C20.5749 28.5817 20.5822 28.5519 20.5813 28.5218C20.5803 28.4916 20.571 28.4623 20.5545 28.4371C20.538 28.4119 20.5148 28.3917 20.4875 28.3788C20.4603 28.3659 20.43 28.3608 20.4 28.364C19.8693 28.428 19.5893 28.7226 19.56 29.248Z" fill="black" fill-opacity="0.996"/>
<path d="M24.528 26.148C24.496 26.292 24.44 26.4293 24.36 26.56C24.28 26.688 24.1666 26.7653 24.02 26.792L23.072 26.968C22.7813 27.0213 22.7106 26.92 22.86 26.664L23.164 26.156C23.2149 26.0693 23.2853 25.9958 23.3694 25.9416C23.4535 25.8874 23.5489 25.8539 23.648 25.844L24.588 25.748C24.6045 25.7466 24.6211 25.7498 24.636 25.7572C24.6509 25.7645 24.6635 25.7758 24.6726 25.7897C24.6816 25.8036 24.6867 25.8198 24.6873 25.8364C24.6879 25.853 24.684 25.8694 24.676 25.884L24.532 26.136C24.5319 26.1385 24.5315 26.1409 24.5308 26.1429C24.5302 26.145 24.5292 26.1467 24.528 26.148Z" fill="#EF4823"/>
<path d="M20.58 27.424L20.044 27.548C19.8573 27.5934 19.7 27.544 19.572 27.4C19.2813 27.0774 18.936 26.8294 18.536 26.656C18.52 26.6501 18.5065 26.6394 18.4971 26.6253C18.4877 26.6113 18.4829 26.5945 18.4833 26.5772C18.4837 26.5599 18.4894 26.543 18.4995 26.5285C18.5096 26.514 18.5237 26.5027 18.54 26.496C19.4733 26.1654 20.1947 26.368 20.704 27.104C20.8187 27.2694 20.7773 27.376 20.58 27.424Z" fill="#EF4823"/>
<path d="M23.7159 28.5024C24.1203 28.4613 24.4338 28.2873 24.4162 28.1136C24.3986 27.94 24.0564 27.8325 23.652 27.8736C23.2476 27.9147 22.9341 28.0888 22.9517 28.2624C22.9694 28.436 23.3115 28.5435 23.7159 28.5024Z" fill="#EF4823"/>
<path d="M19.5601 29.248C19.5894 28.7226 19.8694 28.428 20.4001 28.364C20.43 28.3608 20.4603 28.3659 20.4876 28.3788C20.5148 28.3917 20.538 28.4119 20.5546 28.4371C20.5711 28.4623 20.5804 28.4916 20.5813 28.5218C20.5823 28.5519 20.5749 28.5817 20.5601 28.608C20.3707 28.9306 20.1174 29.1906 19.8001 29.388C19.7759 29.4035 19.7479 29.412 19.7191 29.4126C19.6904 29.4132 19.662 29.4059 19.6372 29.3914C19.6124 29.3769 19.592 29.3559 19.5784 29.3306C19.5648 29.3052 19.5585 29.2767 19.5601 29.248Z" fill="#EF4823"/>
</svg>
