<svg width="38" height="38" viewBox="0 0 38 38" fill="none" xmlns="http://www.w3.org/2000/svg">
<path d="M29.0587 12.3348L28.8801 12.5248C28.7889 12.6236 28.7901 12.7211 28.8839 12.8174C29.1701 13.1062 29.4222 13.585 29.6401 14.2538C29.9023 15.0518 30.9815 15.4242 31.2741 16.2184C31.2867 16.2538 31.3095 16.2665 31.3425 16.2564C31.3754 16.2488 31.4071 16.2399 31.4375 16.2298C31.4597 16.2245 31.4794 16.2114 31.4933 16.1927C31.5072 16.174 31.5143 16.1509 31.5135 16.1272C31.4476 14.407 31.5603 12.6996 31.8517 11.0048C32.1519 9.23776 32.2811 7.32636 30.5179 6.23576C28.7344 5.12616 26.7711 4.13056 24.6279 3.24896C22.5885 2.41043 20.9963 1.95063 19.8513 1.86956C17.1229 1.67956 14.4211 3.92156 12.5097 6.08376C12.4261 6.17496 12.3919 6.28263 12.4071 6.40676C12.4831 7.04896 13.0455 7.10976 13.5965 6.95396C15.2153 6.5005 16.8695 6.27756 18.5593 6.28516C18.6885 6.28516 18.805 6.24843 18.9089 6.17496C20.6379 4.95516 22.7279 4.50676 24.6621 5.54796C25.4525 5.97356 25.3423 6.42956 25.5627 7.20096C25.6007 7.33016 25.6754 7.43276 25.7869 7.50876C27.4285 8.62596 28.5444 10.1244 29.1347 12.0042C29.1752 12.1283 29.1499 12.2385 29.0587 12.3348Z" stroke="#782412" stroke-width="2"/>
<path d="M20.1439 11.2175L20.1363 11.5481C20.1338 11.7128 20.2161 11.7951 20.3833 11.7951L23.5563 11.7761C23.6127 11.7761 23.6684 11.7876 23.72 11.8098C23.7717 11.832 23.8181 11.8645 23.8565 11.9053L24.5405 12.6501C24.619 12.7337 24.7102 12.8021 24.8141 12.8553C25.4905 13.1872 26.0478 13.6609 26.4861 14.2765C26.5213 14.3259 26.568 14.3662 26.6222 14.3939C26.6764 14.4217 26.7366 14.4362 26.7977 14.4361C27.1042 14.4336 27.4019 14.4944 27.6907 14.6185C28.0808 14.7882 28.2404 14.6641 28.1695 14.2461C28.0276 13.4177 27.7743 12.621 27.4095 11.8559C27.3436 11.7191 27.3677 11.6013 27.4817 11.5025L27.6755 11.3353C27.792 11.234 27.811 11.1174 27.7325 10.9857C26.7901 9.36944 25.4601 8.18511 23.7425 7.43271C23.626 7.38204 23.5664 7.29338 23.5639 7.16671C23.5563 6.89818 23.6703 6.68664 23.9059 6.53211C24.1694 6.35984 24.1478 6.23444 23.8413 6.15591C21.9286 5.66444 20.2883 6.09004 18.9203 7.43271C18.8562 7.49613 18.7699 7.53201 18.6798 7.53272C18.5896 7.53343 18.5028 7.49891 18.4377 7.43651C18.197 7.21104 17.8462 7.13378 17.3851 7.20471C16.0754 7.40484 14.7758 7.64804 13.4863 7.93431C12.9163 8.05844 12.435 7.96471 12.0423 7.65311C12.0156 7.63215 11.9849 7.61675 11.9522 7.60786C11.9194 7.59897 11.8853 7.59676 11.8519 7.60138C11.8185 7.606 11.7865 7.61735 11.7578 7.63473C11.7292 7.65212 11.7044 7.67518 11.6851 7.70251C10.2259 9.70891 9.7585 11.9408 10.2829 14.3981C10.2962 14.4588 10.3269 14.5142 10.3712 14.5577C10.4156 14.6012 10.4716 14.6308 10.5325 14.6429C10.5934 14.655 10.6565 14.649 10.7141 14.6258C10.7717 14.6026 10.8212 14.5631 10.8567 14.5121C11.7687 13.1669 12.9467 12.1168 14.3907 11.3619C14.467 11.3221 14.5511 11.2999 14.6372 11.2968C14.7232 11.2937 14.8089 11.3098 14.8882 11.3439C14.9674 11.3781 15.0382 11.4295 15.0954 11.4944C15.1526 11.5592 15.1949 11.636 15.2191 11.7191L15.3369 12.1333C15.3474 12.1692 15.3666 12.202 15.3928 12.2287C15.419 12.2554 15.4513 12.2753 15.487 12.2865C15.5227 12.2978 15.5606 12.3001 15.5974 12.2933C15.6341 12.2864 15.6687 12.2706 15.6979 12.2473C16.9164 11.2365 18.3275 10.8122 19.9311 10.9743C19.9905 10.9809 20.0453 11.0096 20.0847 11.0546C20.1241 11.0996 20.1452 11.1577 20.1439 11.2175Z" stroke="#6B7373" stroke-width="2"/>
<path d="M21.6258 15.3596C21.5093 15.0454 21.6321 14.82 21.9944 14.6832C22.3465 14.5514 22.7151 14.4666 23.1002 14.4286C23.1357 14.426 23.1483 14.407 23.1382 14.3716L23.104 14.2766C23.0939 14.2487 23.0761 14.2335 23.0508 14.231L21.8804 14.0638C21.8224 14.0555 21.7672 14.034 21.7191 14.0011C21.671 13.9681 21.6312 13.9245 21.603 13.8738C21.4307 13.5748 21.3877 13.2569 21.4738 12.92C21.4802 12.8941 21.4797 12.8669 21.4722 12.8413C21.4648 12.8156 21.4508 12.7924 21.4315 12.7739C21.4122 12.7554 21.3884 12.7423 21.3625 12.7359C21.3366 12.7296 21.3094 12.7301 21.2838 12.7376C20.4427 12.9808 19.7562 12.787 19.2242 12.1562C19.0671 11.9687 18.8695 11.9016 18.6314 11.9548L17.442 12.2094C17.1608 12.2702 17.1291 12.3943 17.347 12.5818C17.803 12.9719 17.9613 13.4646 17.822 14.06C17.8086 14.1181 17.7777 14.1707 17.7336 14.2107C17.6894 14.2508 17.6341 14.2764 17.575 14.2842C17.2634 14.3222 16.9695 14.2652 16.6934 14.1132C16.6177 14.0721 16.5313 14.0552 16.4457 14.0647C16.3601 14.0742 16.2794 14.1097 16.2146 14.1664L15.2076 15.0404C15.0759 15.1544 15.0974 15.2025 15.2722 15.1848C15.8498 15.1278 17.2292 14.7098 17.4838 15.4698C17.5319 15.6192 17.4939 15.7421 17.3698 15.8384C17.1925 15.9752 17.043 16.1398 16.9214 16.3324C16.9023 16.3624 16.8918 16.3971 16.8911 16.4327C16.8904 16.4683 16.8995 16.5035 16.9174 16.5347C16.9353 16.5658 16.9613 16.5917 16.9928 16.6096C17.0243 16.6275 17.06 16.6367 17.0962 16.6364C17.6713 16.6288 18.0943 16.8631 18.3654 17.3394C18.3905 17.3837 18.4243 17.4225 18.4648 17.4534C18.5053 17.4842 18.5516 17.5066 18.601 17.519C18.6504 17.5314 18.7018 17.5337 18.7521 17.5257C18.8024 17.5177 18.8505 17.4995 18.8936 17.4724C19.6815 16.9834 20.5023 16.9366 21.356 17.3318C21.4751 17.3875 21.5637 17.3571 21.622 17.2406C21.9146 16.6516 22.5378 16.5186 22.4998 15.8042C22.4922 15.6446 22.4073 15.566 22.2452 15.5686L21.9526 15.5762C21.793 15.5787 21.6841 15.5065 21.6258 15.3596Z" stroke="#7E604B" stroke-width="2"/>
<path d="M14.6529 13.6837L15.4243 13.6609C15.4876 13.6609 15.5281 13.6305 15.5459 13.5697L15.5953 13.4139C15.6257 13.3176 15.5915 13.2784 15.4927 13.2961C15.1405 13.3594 14.8657 13.2581 14.6681 12.9921C14.4046 12.6374 14.15 12.645 13.9043 13.0149C13.7244 13.2885 13.4812 13.4836 13.1747 13.6001C13.0581 13.6432 12.9707 13.7204 12.9125 13.8319C12.7985 14.0447 12.7934 14.2461 12.8973 14.4361C12.9336 14.5044 12.9857 14.563 13.0494 14.6069C13.113 14.6509 13.1863 14.6788 13.2631 14.6885C13.3398 14.6982 13.4177 14.6893 13.4903 14.6626C13.5629 14.6358 13.628 14.5921 13.6801 14.5349L14.3185 13.8357C14.4071 13.7394 14.5186 13.6888 14.6529 13.6837Z" stroke="#6B7373" stroke-width="2"/>
<path d="M23.0509 13.1251C22.9495 12.9605 22.8127 12.8427 22.6405 12.7717C22.5189 12.7185 22.4479 12.7578 22.4277 12.8895C22.4201 12.9377 22.415 12.9858 22.4125 13.0339C22.4125 13.1834 22.4872 13.2708 22.6367 13.2961C22.7608 13.3164 22.8824 13.3063 23.0015 13.2657C23.015 13.2611 23.0274 13.2534 23.0375 13.2433C23.0477 13.2332 23.0555 13.2209 23.0602 13.2074C23.065 13.1939 23.0666 13.1794 23.065 13.1652C23.0634 13.1509 23.0585 13.1373 23.0509 13.1251Z" stroke="#6B7373" stroke-width="2"/>
<path d="M24.4783 13.9559C24.5013 13.9203 24.4781 13.8571 24.4141 13.7802C24.35 13.7033 24.2503 13.619 24.1368 13.5459C24.0233 13.4727 23.9053 13.4167 23.8088 13.3901C23.7123 13.3635 23.6452 13.3686 23.6223 13.4042C23.5994 13.4398 23.6225 13.5029 23.6865 13.5798C23.7506 13.6567 23.8504 13.741 23.9639 13.8142C24.0774 13.8873 24.1954 13.9433 24.2918 13.9699C24.3883 13.9965 24.4554 13.9914 24.4783 13.9559Z" stroke="#6B7373" stroke-width="2"/>
<path d="M24.8521 15.9752L24.4189 16.0512C23.7577 16.1652 23.7146 16.3944 24.2897 16.739C25.1992 17.2836 25.3664 18.0107 24.7913 18.9202C24.4721 19.418 23.8413 19.6345 23.3093 19.8663C23.3001 19.87 23.2921 19.8762 23.2862 19.8842C23.2804 19.8922 23.2768 19.9016 23.276 19.9115C23.2753 19.9214 23.2772 19.9313 23.2818 19.9401C23.2863 19.9489 23.2932 19.9563 23.3017 19.9613L24.2175 20.501C24.2732 20.5339 24.3252 20.5288 24.3733 20.4858C24.999 19.931 25.6691 19.385 26.3835 18.8479C26.7559 18.5705 26.9953 18.5363 27.3601 18.8213C27.4817 18.9176 27.583 18.8999 27.6641 18.7682C28.2113 17.8764 28.3646 16.929 28.1239 15.9258C28.1114 15.8726 28.0847 15.8236 28.0467 15.7836C28.0087 15.7436 27.9606 15.714 27.9073 15.6978L24.7761 14.7402C24.7524 14.7326 24.7267 14.7342 24.7041 14.7448C24.6816 14.7554 24.6639 14.7741 24.6545 14.7972L24.6165 14.8884C24.5633 15.0125 24.6013 15.0974 24.7305 15.143C25.0117 15.2443 25.127 15.447 25.0763 15.751C25.0535 15.8776 24.9788 15.9524 24.8521 15.9752Z" stroke="#7E604B" stroke-width="2"/>
<path d="M14.1817 16.3666C14.1295 16.3106 14.0916 16.2428 14.0712 16.1689C14.0508 16.0951 14.0485 16.0173 14.0645 15.9421C14.0805 15.8669 14.1143 15.7965 14.1632 15.7368C14.212 15.6771 14.2744 15.6298 14.3451 15.599L14.7517 15.4242C14.8986 15.3609 14.9176 15.2709 14.8087 15.1544C14.6998 15.0379 14.5718 15.0391 14.4249 15.1582C13.9714 15.5205 13.4876 15.8878 12.9733 16.2602C12.9216 16.2974 12.8619 16.3218 12.7989 16.3315C12.736 16.3411 12.6717 16.3357 12.6112 16.3157C12.5508 16.2957 12.4959 16.2616 12.4512 16.2163C12.4065 16.171 12.3731 16.1157 12.3539 16.055L12.0385 15.0556C12.0284 15.0259 12.0104 14.9996 11.9864 14.9795C11.9623 14.9593 11.9333 14.9462 11.9023 14.9415C11.8713 14.9368 11.8396 14.9407 11.8107 14.9528C11.7818 14.9649 11.7567 14.9846 11.7383 15.01C10.8795 16.2374 10.9517 17.9094 10.9403 19.342C10.9403 19.4763 10.9783 19.5979 11.0543 19.7068L11.8067 20.7746C11.836 20.8146 11.8743 20.8472 11.9186 20.8696C11.9628 20.8921 12.0117 20.9038 12.0613 20.9038L12.5401 20.9C12.6788 20.9 12.8137 20.941 12.9277 21.0178C13.9195 21.6714 15.0747 21.0026 16.1273 20.3832C16.2565 20.3072 16.2514 20.2413 16.1121 20.1856C15.3977 19.9069 14.9531 19.5168 14.7783 19.0152C14.4439 18.0576 14.9303 17.6738 15.4129 17.0468C15.4813 16.9581 15.4788 16.872 15.4053 16.7884L15.1355 16.4882C15.0367 16.3793 14.9265 16.3641 14.8049 16.4426C14.5769 16.5921 14.3692 16.5667 14.1817 16.3666Z" stroke="#7E604B" stroke-width="2"/>
<path d="M29.1727 15.5534C29.0207 15.5483 28.9649 15.6192 29.0055 15.7662C29.0409 15.8878 29.1144 15.9663 29.2259 16.0018C29.2781 16.0174 29.3343 16.0128 29.3833 15.9888C29.4322 15.9648 29.4704 15.9233 29.49 15.8724C29.5097 15.8215 29.5095 15.7651 29.4894 15.7145C29.4693 15.6638 29.4308 15.6225 29.3817 15.599C29.3158 15.5686 29.2461 15.5534 29.1727 15.5534Z" stroke="#7E604B" stroke-width="2"/>
<path d="M31.3652 19.7372C31.6718 20.0158 31.8706 20.3528 31.9618 20.748C31.9872 20.8544 32.053 20.9101 32.1594 20.9152C32.3216 20.9228 32.428 20.848 32.4786 20.691C32.6724 20.0792 32.9878 18.5136 33.858 18.7416C33.9872 18.7745 34.0696 18.7264 34.105 18.5972C34.1405 18.4781 34.1519 18.354 34.1392 18.2248C34.1266 18.1032 34.062 18.0614 33.9454 18.0994C33.8238 18.1399 33.701 18.1564 33.5768 18.1488C33.526 18.1453 33.4769 18.1288 33.4343 18.1009C33.3917 18.0729 33.357 18.0344 33.3336 17.9892L32.9612 17.2976C32.9275 17.232 32.8753 17.1777 32.8112 17.1413C32.7471 17.1049 32.6738 17.0879 32.6002 17.0924C32.3266 17.1101 32.0708 17.0518 31.8326 16.9176C31.7161 16.8492 31.5983 16.8492 31.4792 16.9176C30.7078 17.3546 30.6926 16.7618 30.1226 16.7846C29.9504 16.7896 29.8262 16.8656 29.7502 17.0126C29.723 17.0649 29.711 17.1239 29.7157 17.183C29.7204 17.2421 29.7416 17.2989 29.7768 17.347C30.419 18.221 29.6894 18.9354 29.4918 19.7562C29.4589 19.9006 29.5146 19.9576 29.659 19.9272L31.0232 19.646C31.1524 19.6206 31.2664 19.651 31.3652 19.7372Z" stroke="#782412" stroke-width="2"/>
<path d="M23.6475 17.4001C22.4809 16.9479 22.2947 17.7915 22.3821 18.6883C22.3862 18.7357 22.4067 18.7801 22.4399 18.8141C22.4732 18.8481 22.5172 18.8694 22.5645 18.8745C23.2054 18.9404 23.6462 18.8353 23.8869 18.5591C24.1808 18.2222 24.1934 17.922 23.9249 17.6585C23.8516 17.5862 23.782 17.5191 23.7304 17.4711C23.6788 17.423 23.6491 17.3976 23.6475 17.4001Z" stroke="#6B7373" stroke-width="2"/>
<path d="M15.6142 18.6465L16.1842 19.2887C16.2114 19.3195 16.2443 19.3446 16.2812 19.3626C16.3181 19.3806 16.3582 19.3911 16.3991 19.3936C16.4401 19.3961 16.4811 19.3904 16.5199 19.377C16.5586 19.3636 16.5944 19.3426 16.625 19.3153L17.0734 18.9163C17.2886 18.7255 17.4454 18.4867 17.5095 18.2524C17.5736 18.018 17.5398 17.8072 17.4154 17.6661L17.3774 17.6205C17.3157 17.5505 17.2336 17.4998 17.1357 17.4712C17.0377 17.4427 16.9259 17.4369 16.8067 17.4542C16.6874 17.4715 16.563 17.5115 16.4405 17.572C16.3181 17.6325 16.2 17.7123 16.093 17.8067L15.6408 18.2057C15.6101 18.2329 15.585 18.2658 15.567 18.3027C15.549 18.3396 15.5384 18.3797 15.536 18.4206C15.5335 18.4616 15.5391 18.5026 15.5526 18.5414C15.566 18.5802 15.587 18.6159 15.6142 18.6465Z" stroke="#6B7373" stroke-width="2"/>
<path d="M9.53806 18.5059C8.86166 19.0721 8.48926 20.4173 8.33726 21.3141C8.32079 21.4145 8.33011 21.5175 8.36435 21.6133C8.39858 21.7091 8.4566 21.7946 8.53295 21.8619C8.60931 21.9291 8.7015 21.9759 8.80088 21.9977C8.90025 22.0195 9.00354 22.0158 9.10106 21.9867L9.75086 21.7929C9.78849 21.7822 9.82279 21.7621 9.85055 21.7345C9.87832 21.7069 9.89865 21.6728 9.90965 21.6352C9.92066 21.5977 9.92197 21.5579 9.91347 21.5197C9.90497 21.4815 9.88694 21.4461 9.86106 21.4167C9.22013 20.6871 9.20999 19.9588 9.83066 19.2317C9.94973 19.0899 9.98013 18.9303 9.92186 18.7529L9.87246 18.5971C9.80659 18.4046 9.69513 18.3742 9.53806 18.5059Z" stroke="#7E604B" stroke-width="2"/>
<path d="M20.1591 18.9999C19.0748 18.701 18.2249 18.9708 17.6093 19.8093C17.5536 19.8879 17.5726 19.936 17.6663 19.9537L19.0837 20.2159C19.1318 20.2235 19.1736 20.2109 19.2091 20.1779L20.2123 19.2165C20.3212 19.1127 20.3035 19.0405 20.1591 18.9999Z" stroke="#7E604B" stroke-width="2"/>
<path d="M10.8225 21.66C10.1385 23.6664 10.6135 26.1744 11.6585 27.9946C11.6796 28.0304 11.7078 28.0615 11.7412 28.086C11.7747 28.1105 11.8127 28.128 11.8529 28.1372C11.8932 28.1465 11.9348 28.1474 11.9752 28.1398C12.0156 28.1323 12.0539 28.1165 12.0879 28.0934C12.3057 27.949 12.4945 27.9528 12.6541 28.1048C12.7503 28.1985 12.8035 28.3531 12.8137 28.5684C12.8973 30.78 15.3407 32.9726 17.2255 33.9378C17.2628 33.9569 17.3041 33.9669 17.346 33.9671C17.3879 33.9672 17.4292 33.9574 17.4667 33.9385C17.5041 33.9196 17.5365 33.8922 17.5613 33.8584C17.5861 33.8246 17.6025 33.7854 17.6093 33.744C17.665 33.4349 17.7853 33.1613 17.9703 32.9232C18.0615 32.8041 18.1767 32.7737 18.3161 32.832C19.2027 33.1968 19.7246 33.8542 19.8817 34.8042C19.9501 35.2095 20.1211 35.2589 20.3947 34.9524L21.6677 33.5502C21.7213 33.4911 21.788 33.4453 21.8624 33.4166C21.9368 33.3878 22.0168 33.3769 22.096 33.3847C22.1751 33.3924 22.2512 33.4187 22.3181 33.4613C22.3849 33.5039 22.4407 33.5617 22.4809 33.63C22.6557 33.9264 22.7304 34.2431 22.7051 34.58C22.7035 34.6082 22.7098 34.6365 22.7231 34.6615C22.7363 34.6865 22.7562 34.7073 22.7803 34.7215C22.8044 34.7357 22.8318 34.7428 22.8595 34.742C22.8872 34.7412 22.914 34.7324 22.9369 34.7168C24.4822 33.6604 25.664 32.2962 26.4823 30.6242C26.5431 30.5001 26.6393 30.457 26.7711 30.495C26.8547 30.5178 26.9256 30.5609 26.9839 30.6242C27.1055 30.7559 27.2106 30.7433 27.2993 30.5862C27.7819 29.716 27.8161 28.6406 27.9681 27.6792C28.1163 26.7634 28.1087 25.3802 28.3633 24.2364C28.5419 23.4194 28.5761 22.6632 28.6787 21.869C28.7851 21.0406 28.4583 20.349 28.5229 19.4712C28.5355 19.2939 28.4861 19.2736 28.3747 19.4104C28.0099 19.8588 27.5589 19.9779 27.0219 19.7676C26.8952 19.7169 26.7774 19.7334 26.6685 19.817L25.5893 20.6302C25.5665 20.6505 25.552 20.6784 25.5483 20.7087C25.5446 20.7389 25.5521 20.7695 25.5693 20.7946C25.5866 20.8198 25.6124 20.8378 25.6419 20.8453C25.6715 20.8528 25.7027 20.8493 25.7299 20.8354C25.7907 20.7999 25.8413 20.7543 25.8819 20.6986C26.0263 20.4883 26.1795 20.482 26.3417 20.6796L26.5013 20.8772C26.565 20.9557 26.5975 21.0549 26.5926 21.1559C26.5877 21.2569 26.5457 21.3525 26.4747 21.4244C24.0807 23.8868 22.2263 25.1332 19.2167 22.4314C19.1837 22.4035 19.1584 22.4086 19.1407 22.4466C18.7227 23.3535 18.1793 23.9577 17.5105 24.2592C15.9069 24.985 13.3723 24.8862 12.4527 23.0964C11.9853 22.1882 11.4077 21.7816 10.8605 20.9874C10.7186 20.7847 10.6578 20.8075 10.6781 21.0558C10.6857 21.1622 10.7199 21.2572 10.7807 21.3408C10.8465 21.4396 10.8605 21.546 10.8225 21.66Z" stroke="#6B7373" stroke-width="2"/>
<path d="M19.6347 20.8848C19.2294 21.1685 19.2395 21.4345 19.6651 21.6828C20.4099 22.1236 21.1167 22.9216 22.0477 22.9786C23.0028 23.0368 23.8236 22.6936 24.5101 21.9488C24.5735 21.8804 24.5659 21.8208 24.4873 21.7702L21.9071 20.1362C21.4866 19.8702 21.0724 19.879 20.6645 20.1628L19.6347 20.8848Z" stroke="#6B7373" stroke-width="2"/>
<path d="M30.7801 20.7023L29.8149 20.9151C29.6756 20.9455 29.616 21.0317 29.6363 21.1735L29.6553 21.3141C29.6781 21.4737 29.7693 21.5459 29.9289 21.5307C30.4077 21.4927 30.7256 21.2559 30.8827 20.8201C30.8886 20.8056 30.8902 20.7898 30.8876 20.7744C30.8849 20.7589 30.8779 20.7445 30.8675 20.7324C30.857 20.7204 30.8434 20.7113 30.828 20.706C30.8126 20.7007 30.7961 20.6994 30.7801 20.7023Z" stroke="#7E604B" stroke-width="2"/>
<path d="M16.6098 21.2686C15.5028 21.9171 14.4464 22.235 13.4406 22.2224C13.0936 22.2198 13.0315 22.3516 13.2544 22.6176L13.7256 23.1838C13.935 23.4343 14.2357 23.5915 14.5616 23.6208C16.6934 23.807 18.4566 23.4232 18.4148 21.1052C18.4123 20.9734 18.3452 20.9038 18.2134 20.8962C17.6333 20.8556 17.0988 20.9798 16.6098 21.2686Z" stroke="#6B7373" stroke-width="2"/>
<path d="M9.4582 22.7696C6.156 23.788 7.7254 17.3508 9.975 17.5218C10.0814 17.5294 10.1422 17.48 10.1574 17.3736L10.3588 15.941C10.3791 15.8042 10.336 15.6914 10.2296 15.6028C8.55 14.1664 9.2188 10.7084 9.9332 9.04777C10.0548 8.77417 10.07 8.64117 9.9674 8.37517C9.91927 8.2561 9.9294 8.1421 9.9978 8.03317C12.3006 4.38517 16.4236 0.064567 21.2154 1.32237C25.0686 2.3357 28.4025 3.77337 31.217 5.63537C32.5318 6.5043 33.0841 7.8229 32.8738 9.59117C32.6534 11.4354 32.4583 13.4114 32.2886 15.5192C32.2739 15.6933 32.3222 15.867 32.4247 16.0086C32.5272 16.1502 32.6771 16.2502 32.8472 16.2906C33.1816 16.3691 33.4527 16.5274 33.6604 16.7656C33.7491 16.8669 33.8618 16.9226 33.9986 16.9328C34.5889 16.9758 34.9093 17.3799 34.96 18.145C35.0259 19.171 34.6611 19.7688 33.8656 19.9386C33.7364 19.9664 33.6553 20.0437 33.6224 20.1704C33.3602 21.1812 32.927 22.2224 31.6806 21.7322C31.5539 21.6815 31.4412 21.703 31.3424 21.7968C30.9193 22.2097 30.4013 22.3896 29.7882 22.3364C29.6691 22.3262 29.5995 22.3794 29.5792 22.496C29.2195 24.363 29.0295 25.5854 29.0092 26.163C28.9332 28.2682 28.633 30.913 27.1358 32.5394C27.0573 32.6255 26.9597 32.6711 26.8432 32.6762C26.7596 32.6812 26.6773 32.6711 26.5962 32.6458C26.4543 32.6052 26.3365 32.642 26.2428 32.756C25.2675 33.9492 24.1477 34.9954 22.8836 35.8948C22.8078 35.9482 22.72 35.9823 22.6279 35.9938C22.5359 36.0054 22.4424 35.9942 22.3557 35.9612C22.269 35.9281 22.1918 35.8743 22.1307 35.8044C22.0697 35.7345 22.0268 35.6507 22.0058 35.5604L21.85 34.8688C21.8196 34.737 21.7588 34.7218 21.6676 34.8232C21.0406 35.511 20.6796 36.2862 19.8512 36.784C19.7933 36.8189 19.7271 36.838 19.6595 36.8395C19.5919 36.8409 19.5252 36.8246 19.4662 36.7922C19.4071 36.7598 19.3579 36.7124 19.3234 36.6549C19.2889 36.5974 19.2704 36.5318 19.2698 36.4648C19.2571 35.7124 19.1077 35.0043 18.8214 34.3406C18.6466 33.9352 18.506 33.9466 18.3996 34.3748L18.2856 34.8422C18.2734 34.8933 18.2505 34.9412 18.2183 34.9828C18.186 35.0244 18.1452 35.0588 18.0986 35.0835C18.0519 35.1083 18.0004 35.1229 17.9475 35.1265C17.8946 35.1301 17.8415 35.1226 17.7916 35.1044C15.732 34.3444 14.1145 33.0688 12.939 31.2778C12.4982 30.609 12.0055 29.9098 11.4608 29.1802C10.1156 27.379 9.5152 25.2953 9.6596 22.9292C9.66973 22.7797 9.6026 22.7265 9.4582 22.7696ZM29.0586 12.3348L28.88 12.5248C28.7888 12.6236 28.7901 12.7211 28.8838 12.8174C29.1701 13.1062 29.4221 13.585 29.64 14.2538C29.9022 15.0518 30.9814 15.4242 31.274 16.2184C31.2867 16.2538 31.3095 16.2665 31.3424 16.2564C31.3753 16.2488 31.407 16.2399 31.4374 16.2298C31.4596 16.2245 31.4794 16.2115 31.4932 16.1927C31.5071 16.174 31.5142 16.1509 31.5134 16.1272C31.4475 14.407 31.5603 12.6996 31.8516 11.0048C32.1518 9.23777 32.281 7.32637 30.5178 6.23577C28.7343 5.12617 26.771 4.13057 24.6278 3.24897C22.5885 2.41043 20.9963 1.95063 19.8512 1.86957C17.1228 1.67957 14.421 3.92157 12.5096 6.08377C12.426 6.17497 12.3918 6.28263 12.407 6.40677C12.483 7.04897 13.0454 7.10977 13.5964 6.95397C15.2152 6.5005 16.8695 6.27757 18.5592 6.28517C18.6884 6.28517 18.8049 6.24843 18.9088 6.17497C20.6378 4.95517 22.7278 4.50677 24.662 5.54797C25.4524 5.97357 25.3422 6.42957 25.5626 7.20097C25.6006 7.33017 25.6753 7.43277 25.7868 7.50877C27.4284 8.62597 28.5443 10.1244 29.1346 12.0042C29.1751 12.1283 29.1498 12.2385 29.0586 12.3348ZM20.1438 11.2176L20.1362 11.5482C20.1337 11.7128 20.216 11.7952 20.3832 11.7952L23.5562 11.7762C23.6126 11.7762 23.6683 11.7877 23.7199 11.8099C23.7716 11.8321 23.818 11.8646 23.8564 11.9054L24.5404 12.6502C24.6189 12.7338 24.7101 12.8022 24.814 12.8554C25.4904 13.1872 26.0477 13.661 26.486 14.2766C26.5212 14.326 26.5679 14.3662 26.6221 14.394C26.6763 14.4217 26.7365 14.4362 26.7976 14.4362C27.1041 14.4336 27.4018 14.4944 27.6906 14.6186C28.0807 14.7883 28.2403 14.6642 28.1694 14.2462C28.0275 13.4178 27.7742 12.621 27.4094 11.856C27.3435 11.7192 27.3676 11.6014 27.4816 11.5026L27.6754 11.3354C27.7919 11.234 27.8109 11.1175 27.7324 10.9858C26.79 9.3695 25.46 8.18517 23.7424 7.43277C23.6259 7.3821 23.5663 7.29343 23.5638 7.16677C23.5562 6.89823 23.6702 6.6867 23.9058 6.53217C24.1693 6.3599 24.1477 6.2345 23.8412 6.15597C21.9285 5.6645 20.2882 6.0901 18.9202 7.43277C18.8561 7.49618 18.7698 7.53207 18.6797 7.53278C18.5895 7.53349 18.5027 7.49897 18.4376 7.43657C18.1969 7.2111 17.8461 7.13383 17.385 7.20477C16.0753 7.4049 14.7757 7.6481 13.4862 7.93437C12.9162 8.0585 12.4349 7.96477 12.0422 7.65317C12.0155 7.6322 11.9848 7.61681 11.9521 7.60791C11.9193 7.59902 11.8852 7.59682 11.8518 7.60144C11.8184 7.60606 11.7864 7.6174 11.7577 7.63479C11.7291 7.65217 11.7043 7.67523 11.685 7.70257C10.2258 9.70897 9.7584 11.9408 10.2828 14.3982C10.2961 14.4588 10.3268 14.5143 10.3711 14.5577C10.4154 14.6012 10.4715 14.6308 10.5324 14.6429C10.5933 14.655 10.6564 14.6491 10.714 14.6259C10.7716 14.6026 10.8211 14.5631 10.8566 14.5122C11.7686 13.167 12.9466 12.1169 14.3906 11.362C14.4669 11.3222 14.551 11.2999 14.6371 11.2968C14.7231 11.2937 14.8088 11.3098 14.888 11.344C14.9673 11.3782 15.0381 11.4295 15.0953 11.4944C15.1525 11.5593 15.1948 11.6361 15.219 11.7192L15.3368 12.1334C15.3473 12.1693 15.3665 12.202 15.3927 12.2287C15.4189 12.2555 15.4512 12.2753 15.4869 12.2866C15.5226 12.2978 15.5605 12.3002 15.5973 12.2933C15.634 12.2865 15.6686 12.2707 15.6978 12.2474C16.9163 11.2366 18.3274 10.8122 19.931 10.9744C19.9904 10.981 20.0452 11.0096 20.0846 11.0546C20.124 11.0997 20.1451 11.1578 20.1438 11.2176ZM21.6258 15.3596C21.5093 15.0454 21.6321 14.82 21.9944 14.6832C22.3465 14.5514 22.7151 14.4666 23.1002 14.4286C23.1357 14.426 23.1483 14.407 23.1382 14.3716L23.104 14.2766C23.0939 14.2487 23.0761 14.2335 23.0508 14.231L21.8804 14.0638C21.8224 14.0555 21.7672 14.034 21.7191 14.0011C21.671 13.9681 21.6312 13.9245 21.603 13.8738C21.4307 13.5748 21.3877 13.2569 21.4738 12.92C21.4802 12.894 21.4797 12.8669 21.4722 12.8412C21.4648 12.8156 21.4508 12.7924 21.4315 12.7739C21.4122 12.7554 21.3884 12.7423 21.3625 12.7359C21.3366 12.7295 21.3094 12.7301 21.2838 12.7376C20.4427 12.9808 19.7562 12.787 19.2242 12.1562C19.0671 11.9687 18.8695 11.9016 18.6314 11.9548L17.442 12.2094C17.1608 12.2702 17.1291 12.3943 17.347 12.5818C17.803 12.9719 17.9613 13.4646 17.822 14.06C17.8086 14.1181 17.7777 14.1706 17.7336 14.2107C17.6894 14.2508 17.6341 14.2764 17.575 14.2842C17.2634 14.3222 16.9695 14.2652 16.6934 14.1132C16.6177 14.0721 16.5313 14.0552 16.4457 14.0647C16.3601 14.0742 16.2794 14.1097 16.2146 14.1664L15.2076 15.0404C15.0759 15.1544 15.0974 15.2025 15.2722 15.1848C15.8498 15.1278 17.2292 14.7098 17.4838 15.4698C17.5319 15.6192 17.4939 15.7421 17.3698 15.8384C17.1925 15.9752 17.043 16.1398 16.9214 16.3324C16.9023 16.3624 16.8918 16.3971 16.8911 16.4327C16.8904 16.4683 16.8995 16.5035 16.9174 16.5347C16.9353 16.5658 16.9613 16.5917 16.9928 16.6096C17.0243 16.6275 17.06 16.6367 17.0962 16.6364C17.6713 16.6288 18.0943 16.8631 18.3654 17.3394C18.3905 17.3837 18.4243 17.4225 18.4648 17.4534C18.5053 17.4842 18.5516 17.5066 18.601 17.519C18.6504 17.5314 18.7018 17.5337 18.7521 17.5257C18.8024 17.5177 18.8505 17.4995 18.8936 17.4724C19.6815 16.9834 20.5023 16.9366 21.356 17.3318C21.4751 17.3875 21.5637 17.3571 21.622 17.2406C21.9146 16.6516 22.5378 16.5186 22.4998 15.8042C22.4922 15.6446 22.4073 15.566 22.2452 15.5686L21.9526 15.5762C21.793 15.5787 21.6841 15.5065 21.6258 15.3596ZM14.6528 13.6838L15.4242 13.661C15.4875 13.661 15.5281 13.6306 15.5458 13.5698L15.5952 13.414C15.6256 13.3177 15.5914 13.2784 15.4926 13.2962C15.1405 13.3595 14.8656 13.2582 14.668 12.9922C14.4045 12.6375 14.1499 12.6451 13.9042 13.015C13.7243 13.2886 13.4811 13.4836 13.1746 13.6002C13.0581 13.6432 12.9707 13.7205 12.9124 13.832C12.7984 14.0448 12.7933 14.2462 12.8972 14.4362C12.9335 14.5045 12.9856 14.5631 13.0493 14.607C13.113 14.6509 13.1862 14.6789 13.263 14.6886C13.3397 14.6983 13.4176 14.6894 13.4902 14.6626C13.5628 14.6359 13.6279 14.5921 13.68 14.535L14.3184 13.8358C14.4071 13.7395 14.5185 13.6888 14.6528 13.6838ZM23.0508 13.1252C22.9495 12.9605 22.8127 12.8427 22.6404 12.7718C22.5188 12.7186 22.4479 12.7578 22.4276 12.8896C22.42 12.9377 22.4149 12.9858 22.4124 13.034C22.4124 13.1834 22.4871 13.2708 22.6366 13.2962C22.7607 13.3164 22.8823 13.3063 23.0014 13.2658C23.015 13.2611 23.0273 13.2534 23.0375 13.2433C23.0476 13.2332 23.0554 13.221 23.0601 13.2074C23.0649 13.1939 23.0665 13.1795 23.0649 13.1652C23.0633 13.151 23.0585 13.1373 23.0508 13.1252ZM24.4782 13.9558C24.5011 13.9202 24.478 13.857 24.414 13.7802C24.3499 13.7033 24.2502 13.619 24.1367 13.5458C24.0231 13.4727 23.9052 13.4166 23.8087 13.3901C23.7122 13.3635 23.6451 13.3686 23.6222 13.4041C23.5993 13.4397 23.6224 13.5029 23.6864 13.5798C23.7505 13.6567 23.8502 13.741 23.9638 13.8141C24.0773 13.8873 24.1952 13.9433 24.2917 13.9699C24.3882 13.9964 24.4553 13.9914 24.4782 13.9558ZM24.852 15.9752L24.4188 16.0512C23.7576 16.1652 23.7145 16.3944 24.2896 16.739C25.1991 17.2836 25.3663 18.0107 24.7912 18.9202C24.472 19.418 23.8412 19.6346 23.3092 19.8664C23.3 19.8701 23.292 19.8762 23.2861 19.8842C23.2803 19.8922 23.2767 19.9016 23.276 19.9115C23.2752 19.9214 23.2771 19.9313 23.2817 19.9401C23.2862 19.9489 23.2931 19.9563 23.3016 19.9614L24.2174 20.501C24.2731 20.5339 24.3251 20.5288 24.3732 20.4858C24.9989 19.931 25.669 19.385 26.3834 18.848C26.7558 18.5706 26.9952 18.5364 27.36 18.8214C27.4816 18.9176 27.5829 18.8999 27.664 18.7682C28.2112 17.8764 28.3645 16.929 28.1238 15.9258C28.1113 15.8726 28.0846 15.8236 28.0466 15.7836C28.0086 15.7436 27.9606 15.714 27.9072 15.6978L24.776 14.7402C24.7523 14.7326 24.7266 14.7343 24.704 14.7448C24.6815 14.7554 24.6638 14.7741 24.6544 14.7972L24.6164 14.8884C24.5632 15.0125 24.6012 15.0974 24.7304 15.143C25.0116 15.2443 25.1269 15.447 25.0762 15.751C25.0534 15.8776 24.9787 15.9524 24.852 15.9752ZM14.1816 16.3666C14.1294 16.3106 14.0915 16.2428 14.0711 16.1689C14.0507 16.095 14.0484 16.0173 14.0644 15.9421C14.0804 15.8669 14.1142 15.7965 14.163 15.7368C14.2119 15.6771 14.2743 15.6298 14.345 15.599L14.7516 15.4242C14.8985 15.3608 14.9175 15.2709 14.8086 15.1544C14.6997 15.0378 14.5717 15.0391 14.4248 15.1582C13.9713 15.5204 13.4875 15.8878 12.9732 16.2602C12.9215 16.2974 12.8618 16.3218 12.7988 16.3315C12.7359 16.3411 12.6716 16.3357 12.6111 16.3157C12.5507 16.2957 12.4958 16.2616 12.4511 16.2163C12.4064 16.1709 12.373 16.1157 12.3538 16.055L12.0384 15.0556C12.0283 15.0259 12.0103 14.9996 11.9863 14.9794C11.9622 14.9593 11.9331 14.9462 11.9022 14.9415C11.8712 14.9368 11.8395 14.9407 11.8106 14.9528C11.7817 14.9648 11.7566 14.9846 11.7382 15.01C10.8794 16.2374 10.9516 17.9094 10.9402 19.342C10.9402 19.4762 10.9782 19.5978 11.0542 19.7068L11.8066 20.7746C11.8359 20.8146 11.8742 20.8472 11.9184 20.8696C11.9627 20.8921 12.0116 20.9038 12.0612 20.9038L12.54 20.9C12.6787 20.9 12.8136 20.941 12.9276 21.0178C13.9194 21.6714 15.0746 21.0026 16.1272 20.3832C16.2564 20.3072 16.2513 20.2413 16.112 20.1856C15.3976 19.9069 14.953 19.5168 14.7782 19.0152C14.4438 18.0576 14.9302 17.6738 15.4128 17.0468C15.4812 16.9581 15.4787 16.872 15.4052 16.7884L15.1354 16.4882C15.0366 16.3792 14.9264 16.364 14.8048 16.4426C14.5768 16.592 14.3691 16.5667 14.1816 16.3666ZM29.1726 15.5534C29.0206 15.5483 28.9649 15.6192 29.0054 15.7662C29.0409 15.8878 29.1143 15.9663 29.2258 16.0018C29.278 16.0174 29.3342 16.0128 29.3832 15.9888C29.4322 15.9648 29.4703 15.9233 29.49 15.8724C29.5096 15.8216 29.5094 15.7652 29.4893 15.7145C29.4692 15.6638 29.4308 15.6225 29.3816 15.599C29.3157 15.5686 29.2461 15.5534 29.1726 15.5534ZM31.3652 19.7372C31.6717 20.0158 31.8706 20.3528 31.9618 20.748C31.9871 20.8544 32.053 20.9101 32.1594 20.9152C32.3215 20.9228 32.4279 20.848 32.4786 20.691C32.6724 20.0792 32.9878 18.5136 33.858 18.7416C33.9872 18.7745 34.0695 18.7264 34.105 18.5972C34.1405 18.4781 34.1519 18.354 34.1392 18.2248C34.1265 18.1032 34.0619 18.0614 33.9454 18.0994C33.8238 18.1399 33.7009 18.1564 33.5768 18.1488C33.526 18.1453 33.4769 18.1288 33.4343 18.1009C33.3917 18.0729 33.357 18.0344 33.3336 17.9892L32.9612 17.2976C32.9274 17.232 32.8753 17.1777 32.8112 17.1413C32.7471 17.1049 32.6738 17.0879 32.6002 17.0924C32.3266 17.1101 32.0707 17.0518 31.8326 16.9176C31.7161 16.8492 31.5983 16.8492 31.4792 16.9176C30.7078 17.3546 30.6926 16.7618 30.1226 16.7846C29.9503 16.7896 29.8262 16.8656 29.7502 17.0126C29.7229 17.0649 29.7109 17.1239 29.7156 17.183C29.7204 17.2421 29.7415 17.2989 29.7768 17.347C30.419 18.221 29.6894 18.9354 29.4918 19.7562C29.4589 19.9006 29.5146 19.9576 29.659 19.9272L31.0232 19.646C31.1524 19.6206 31.2664 19.651 31.3652 19.7372ZM23.6474 17.4002C22.4808 16.948 22.2946 17.7916 22.382 18.6884C22.3861 18.7357 22.4066 18.7802 22.4398 18.8141C22.4731 18.8481 22.5171 18.8695 22.5644 18.8746C23.2053 18.9404 23.6461 18.8353 23.8868 18.5592C24.1807 18.2222 24.1933 17.922 23.9248 17.6586C23.8515 17.5863 23.7819 17.5192 23.7303 17.4711C23.6787 17.423 23.649 17.3976 23.6474 17.4002ZM15.6142 18.6466L16.1842 19.2888C16.2113 19.3195 16.2443 19.3446 16.2812 19.3626C16.3181 19.3806 16.3581 19.3912 16.3991 19.3936C16.44 19.3961 16.4811 19.3905 16.5198 19.377C16.5586 19.3636 16.5943 19.3426 16.625 19.3154L17.0734 18.9164C17.2886 18.7255 17.4454 18.4867 17.5095 18.2524C17.5736 18.0181 17.5397 17.8072 17.4154 17.6662L17.3774 17.6206C17.3157 17.5505 17.2336 17.4998 17.1356 17.4713C17.0377 17.4427 16.9259 17.4369 16.8066 17.4542C16.6874 17.4715 16.563 17.5115 16.4405 17.572C16.3181 17.6325 16.2 17.7123 16.093 17.8068L15.6408 18.2058C15.61 18.2329 15.5849 18.2659 15.5669 18.3027C15.5489 18.3396 15.5384 18.3797 15.5359 18.4206C15.5335 18.4616 15.5391 18.5026 15.5525 18.5414C15.566 18.5802 15.5869 18.6159 15.6142 18.6466ZM9.538 18.506C8.8616 19.0722 8.4892 20.4174 8.3372 21.3142C8.32073 21.4146 8.33006 21.5175 8.36429 21.6133C8.39852 21.7091 8.45654 21.7947 8.53289 21.8619C8.60925 21.9292 8.70144 21.9759 8.80082 21.9977C8.90019 22.0196 9.00348 22.0158 9.101 21.9868L9.7508 21.793C9.78843 21.7822 9.82273 21.7621 9.85049 21.7345C9.87826 21.707 9.89859 21.6728 9.90959 21.6352C9.9206 21.5977 9.92191 21.558 9.91341 21.5198C9.90491 21.4816 9.88688 21.4461 9.861 21.4168C9.22007 20.6872 9.20993 19.9588 9.8306 19.2318C9.94967 19.0899 9.98007 18.9303 9.9218 18.753L9.8724 18.5972C9.80653 18.4046 9.69507 18.3742 9.538 18.506ZM20.159 19C19.0747 18.701 18.2248 18.9708 17.6092 19.8094C17.5535 19.8879 17.5725 19.936 17.6662 19.9538L19.0836 20.216C19.1317 20.2236 19.1735 20.2109 19.209 20.178L20.2122 19.2166C20.3211 19.1127 20.3034 19.0405 20.159 19ZM10.8224 21.66C10.1384 23.6664 10.6134 26.1744 11.6584 27.9946C11.6796 28.0303 11.7077 28.0614 11.7412 28.086C11.7746 28.1105 11.8126 28.1279 11.8529 28.1372C11.8931 28.1465 11.9347 28.1473 11.9751 28.1398C12.0155 28.1323 12.0539 28.1165 12.0878 28.0934C12.3057 27.949 12.4944 27.9528 12.654 28.1048C12.7503 28.1985 12.8035 28.353 12.8136 28.5684C12.8972 30.78 15.3406 32.9726 17.2254 33.9378C17.2627 33.9569 17.304 33.9669 17.3459 33.967C17.3878 33.9671 17.4292 33.9574 17.4666 33.9385C17.504 33.9196 17.5364 33.8921 17.5612 33.8583C17.586 33.8245 17.6024 33.7853 17.6092 33.744C17.6649 33.4349 17.7853 33.1613 17.9702 32.9232C18.0614 32.8041 18.1767 32.7737 18.316 32.832C19.2027 33.1968 19.7245 33.8542 19.8816 34.8042C19.95 35.2095 20.121 35.2589 20.3946 34.9524L21.6676 33.5502C21.7212 33.4911 21.788 33.4453 21.8624 33.4166C21.9368 33.3878 22.0168 33.3769 22.0959 33.3846C22.1751 33.3924 22.2511 33.4186 22.318 33.4613C22.3848 33.5039 22.4406 33.5617 22.4808 33.63C22.6556 33.9264 22.7303 34.243 22.705 34.58C22.7035 34.6082 22.7097 34.6364 22.723 34.6614C22.7363 34.6864 22.7561 34.7072 22.7802 34.7215C22.8043 34.7357 22.8318 34.7428 22.8594 34.742C22.8871 34.7411 22.9139 34.7324 22.9368 34.7168C24.4821 33.6604 25.6639 32.2962 26.4822 30.6242C26.543 30.5 26.6393 30.457 26.771 30.495C26.8546 30.5178 26.9255 30.5608 26.9838 30.6242C27.1054 30.7559 27.2105 30.7432 27.2992 30.5862C27.7818 29.716 27.816 28.6406 27.968 27.6792C28.1162 26.7634 28.1086 25.3802 28.3632 24.2364C28.5418 23.4194 28.576 22.6632 28.6786 21.869C28.785 21.0406 28.4582 20.349 28.5228 19.4712C28.5355 19.2938 28.4861 19.2736 28.3746 19.4104C28.0098 19.8588 27.5589 19.9778 27.0218 19.7676C26.8951 19.7169 26.7773 19.7334 26.6684 19.817L25.5892 20.6302C25.5665 20.6505 25.5519 20.6784 25.5482 20.7086C25.5445 20.7389 25.552 20.7694 25.5693 20.7946C25.5865 20.8197 25.6123 20.8378 25.6418 20.8453C25.6714 20.8528 25.7027 20.8492 25.7298 20.8354C25.7906 20.7999 25.8413 20.7543 25.8818 20.6986C26.0262 20.4883 26.1795 20.482 26.3416 20.6796L26.5012 20.8772C26.5649 20.9556 26.5975 21.0549 26.5926 21.1559C26.5877 21.2568 26.5457 21.3524 26.4746 21.4244C24.0806 23.8868 22.2262 25.1332 19.2166 22.4314C19.1837 22.4035 19.1583 22.4086 19.1406 22.4466C18.7226 23.3535 18.1792 23.9577 17.5104 24.2592C15.9068 24.985 13.3722 24.8862 12.4526 23.0964C11.9852 22.1882 11.4076 21.7816 10.8604 20.9874C10.7185 20.7847 10.6577 20.8075 10.678 21.0558C10.6856 21.1622 10.7198 21.2572 10.7806 21.3408C10.8465 21.4396 10.8604 21.546 10.8224 21.66ZM19.6346 20.8848C19.2293 21.1685 19.2394 21.4345 19.665 21.6828C20.4098 22.1236 21.1166 22.9216 22.0476 22.9786C23.0027 23.0368 23.8235 22.6936 24.51 21.9488C24.5733 21.8804 24.5657 21.8208 24.4872 21.7702L21.907 20.1362C21.4865 19.8702 21.0723 19.879 20.6644 20.1628L19.6346 20.8848ZM30.78 20.7024L29.8148 20.9152C29.6755 20.9456 29.6159 21.0317 29.6362 21.1736L29.6552 21.3142C29.678 21.4738 29.7692 21.546 29.9288 21.5308C30.4076 21.4928 30.7255 21.2559 30.8826 20.8202C30.8885 20.8056 30.8901 20.7898 30.8874 20.7744C30.8848 20.759 30.8778 20.7445 30.8674 20.7325C30.8569 20.7204 30.8433 20.7113 30.8279 20.706C30.8125 20.7007 30.796 20.6995 30.78 20.7024ZM16.6098 21.2686C15.5027 21.9171 14.4463 22.235 13.4406 22.2224C13.0935 22.2198 13.0315 22.3516 13.2544 22.6176L13.7256 23.1838C13.935 23.4343 14.2357 23.5915 14.5616 23.6208C16.6934 23.807 18.4566 23.4232 18.4148 21.1052C18.4123 20.9734 18.3451 20.9038 18.2134 20.8962C17.6333 20.8556 17.0987 20.9798 16.6098 21.2686Z" fill="black" fill-opacity="0.996"/>
<path d="M29.1346 12.0042C28.5443 10.1244 27.4284 8.62596 25.7868 7.50876C25.6753 7.43276 25.6005 7.33016 25.5625 7.20096C25.3421 6.42956 25.4524 5.97356 24.662 5.54796C22.7278 4.50676 20.6377 4.95516 18.9087 6.17496C18.8049 6.24843 18.6884 6.28516 18.5592 6.28516C16.8694 6.27756 15.2151 6.5005 13.5963 6.95396C13.0453 7.10976 12.483 7.04896 12.407 6.40676C12.3918 6.28263 12.4259 6.17496 12.5095 6.08376C14.4209 3.92156 17.1228 1.67956 19.8512 1.86956C20.9962 1.95063 22.5884 2.41043 24.6277 3.24896C26.7709 4.13056 28.7343 5.12616 30.5177 6.23576C32.281 7.32636 32.1518 9.23776 31.8516 11.0048C31.5602 12.6996 31.4475 14.407 31.5134 16.1272C31.5142 16.1509 31.507 16.174 31.4932 16.1927C31.4793 16.2114 31.4596 16.2245 31.4374 16.2298C31.407 16.2399 31.3753 16.2488 31.3424 16.2564C31.3094 16.2665 31.2866 16.2538 31.274 16.2184C30.9814 15.4242 29.9022 15.0518 29.64 14.2538C29.4221 13.585 29.17 13.1062 28.8838 12.8174C28.79 12.7211 28.7888 12.6236 28.88 12.5248L29.0586 12.3348C29.1498 12.2385 29.1751 12.1283 29.1346 12.0042Z" fill="#EF4823"/>
<path d="M20.1438 11.2176C20.1451 11.1578 20.124 11.0997 20.0846 11.0547C20.0452 11.0097 19.9904 10.9811 19.931 10.9744C18.3274 10.8123 16.9163 11.2366 15.6978 12.2474C15.6685 12.2708 15.634 12.2866 15.5972 12.2934C15.5605 12.3002 15.5226 12.2979 15.4869 12.2866C15.4512 12.2754 15.4189 12.2555 15.3927 12.2288C15.3665 12.2021 15.3473 12.1693 15.3368 12.1334L15.219 11.7192C15.1948 11.6361 15.1525 11.5594 15.0953 11.4945C15.0381 11.4296 14.9673 11.3782 14.888 11.3441C14.8088 11.3099 14.7231 11.2938 14.637 11.2969C14.551 11.3 14.4668 11.3222 14.3906 11.362C12.9466 12.117 11.7686 13.167 10.8566 14.5122C10.8211 14.5632 10.7716 14.6027 10.714 14.6259C10.6564 14.6492 10.5933 14.6551 10.5324 14.643C10.4715 14.6309 10.4154 14.6013 10.3711 14.5578C10.3268 14.5143 10.2961 14.4589 10.2828 14.3982C9.75838 11.9409 10.2258 9.70903 11.685 7.70263C11.7043 7.6753 11.729 7.65224 11.7577 7.63485C11.7864 7.61747 11.8184 7.60612 11.8518 7.6015C11.8852 7.59688 11.9193 7.59909 11.952 7.60798C11.9848 7.61687 12.0154 7.63227 12.0422 7.65323C12.4348 7.96483 12.9162 8.05857 13.4862 7.93443C14.7756 7.64817 16.0752 7.40497 17.385 7.20483C17.846 7.1339 18.1969 7.21117 18.4376 7.43663C18.5026 7.49903 18.5895 7.53355 18.6797 7.53284C18.7698 7.53213 18.8561 7.49625 18.9202 7.43283C20.2882 6.09017 21.9285 5.66457 23.8412 6.15603C24.1477 6.23457 24.1692 6.35997 23.9058 6.53223C23.6702 6.68677 23.5562 6.8983 23.5638 7.16683C23.5663 7.2935 23.6258 7.38217 23.7424 7.43283C25.46 8.18523 26.79 9.36957 27.7324 10.9858C27.8109 11.1176 27.7919 11.2341 27.6754 11.3354L27.4816 11.5026C27.3676 11.6014 27.3435 11.7192 27.4094 11.856C27.7742 12.6211 28.0275 13.4178 28.1694 14.2462C28.2403 14.6642 28.0807 14.7884 27.6906 14.6186C27.4018 14.4945 27.1041 14.4337 26.7976 14.4362C26.7364 14.4363 26.6762 14.4218 26.622 14.394C26.5678 14.3663 26.5212 14.326 26.486 14.2766C26.0477 13.661 25.4904 13.1873 24.814 12.8554C24.7101 12.8022 24.6189 12.7338 24.5404 12.6502L23.8564 11.9054C23.818 11.8647 23.7715 11.8322 23.7199 11.8099C23.6683 11.7877 23.6126 11.7763 23.5562 11.7762L20.3832 11.7952C20.216 11.7952 20.1336 11.7129 20.1362 11.5482L20.1438 11.2176Z" fill="#D6E5E5"/>
<path d="M21.9526 15.5762L22.2452 15.5686C22.4073 15.566 22.4922 15.6446 22.4998 15.8042C22.5378 16.5186 21.9146 16.6516 21.622 17.2406C21.5637 17.3571 21.4751 17.3875 21.356 17.3318C20.5023 16.9366 19.6815 16.9834 18.8936 17.4724C18.8505 17.4995 18.8024 17.5177 18.7521 17.5257C18.7018 17.5337 18.6504 17.5314 18.601 17.519C18.5516 17.5066 18.5053 17.4842 18.4648 17.4534C18.4243 17.4225 18.3905 17.3837 18.3654 17.3394C18.0943 16.8631 17.6713 16.6288 17.0962 16.6364C17.06 16.6367 17.0243 16.6275 16.9928 16.6096C16.9613 16.5917 16.9353 16.5658 16.9174 16.5347C16.8995 16.5035 16.8904 16.4683 16.8911 16.4327C16.8918 16.3971 16.9023 16.3624 16.9214 16.3324C17.043 16.1398 17.1925 15.9752 17.3698 15.8384C17.4939 15.7421 17.5319 15.6192 17.4838 15.4698C17.2292 14.7098 15.8498 15.1278 15.2722 15.1848C15.0974 15.2025 15.0759 15.1544 15.2076 15.0404L16.2146 14.1664C16.2794 14.1097 16.3601 14.0742 16.4457 14.0647C16.5313 14.0552 16.6177 14.0721 16.6934 14.1132C16.9695 14.2652 17.2634 14.3222 17.575 14.2842C17.6341 14.2764 17.6894 14.2508 17.7336 14.2107C17.7777 14.1707 17.8086 14.1181 17.822 14.06C17.9613 13.4646 17.803 12.9719 17.347 12.5818C17.1291 12.3943 17.1608 12.2702 17.442 12.2094L18.6314 11.9548C18.8695 11.9016 19.0671 11.9687 19.2242 12.1562C19.7562 12.787 20.4427 12.9808 21.2838 12.7376C21.3094 12.7301 21.3366 12.7296 21.3625 12.7359C21.3884 12.7423 21.4122 12.7554 21.4315 12.7739C21.4508 12.7924 21.4648 12.8156 21.4722 12.8413C21.4797 12.8669 21.4802 12.8941 21.4738 12.92C21.3877 13.2569 21.4307 13.5748 21.603 13.8738C21.6312 13.9245 21.671 13.9681 21.7191 14.0011C21.7672 14.034 21.8224 14.0555 21.8804 14.0638L23.0508 14.231C23.0761 14.2335 23.0939 14.2487 23.104 14.2766L23.1382 14.3716C23.1483 14.407 23.1357 14.426 23.1002 14.4286C22.7151 14.4666 22.3465 14.5514 21.9944 14.6832C21.6321 14.82 21.5093 15.0454 21.6258 15.3596C21.6841 15.5065 21.793 15.5787 21.9526 15.5762Z" fill="#FCBF95"/>
<path d="M14.3184 13.8358L13.68 14.535C13.6278 14.5922 13.5628 14.636 13.4902 14.6627C13.4176 14.6894 13.3397 14.6983 13.2629 14.6886C13.1862 14.679 13.1129 14.651 13.0493 14.607C12.9856 14.5631 12.9334 14.5045 12.8972 14.4362C12.7933 14.2462 12.7984 14.0448 12.9124 13.832C12.9706 13.7206 13.058 13.6433 13.1746 13.6002C13.4811 13.4837 13.7243 13.2886 13.9042 13.015C14.1499 12.6452 14.4045 12.6376 14.668 12.9922C14.8656 13.2582 15.1404 13.3596 15.4926 13.2962C15.5914 13.2785 15.6256 13.3178 15.5952 13.414L15.5458 13.5698C15.528 13.6306 15.4875 13.661 15.4242 13.661L14.6528 13.6838C14.5185 13.6889 14.407 13.7396 14.3184 13.8358Z" fill="#D6E5E5"/>
<path d="M23.0508 13.1253C23.0584 13.1374 23.0632 13.1511 23.0648 13.1653C23.0665 13.1796 23.0648 13.194 23.0601 13.2075C23.0553 13.221 23.0476 13.2333 23.0374 13.2434C23.0272 13.2535 23.0149 13.2612 23.0014 13.2659C22.8823 13.3064 22.7607 13.3165 22.6366 13.2963C22.4871 13.2709 22.4124 13.1835 22.4124 13.0341C22.4149 12.9859 22.42 12.9378 22.4276 12.8897C22.4478 12.7579 22.5188 12.7187 22.6404 12.7719C22.8126 12.8428 22.9494 12.9606 23.0508 13.1253Z" fill="#D6E5E5"/>
<path d="M23.9637 13.8142C24.2001 13.9665 24.4304 14.0299 24.4782 13.9558C24.5259 13.8818 24.373 13.6982 24.1366 13.5459C23.9002 13.3935 23.6699 13.3301 23.6222 13.4042C23.5744 13.4783 23.7273 13.6618 23.9637 13.8142Z" fill="#D6E5E5"/>
<path d="M25.0762 15.751C25.1268 15.447 25.0116 15.2443 24.7304 15.143C24.6012 15.0974 24.5632 15.0125 24.6164 14.8884L24.6544 14.7972C24.6637 14.7741 24.6815 14.7554 24.704 14.7448C24.7265 14.7342 24.7523 14.7326 24.776 14.7402L27.9072 15.6978C27.9605 15.714 28.0086 15.7436 28.0466 15.7836C28.0846 15.8236 28.1112 15.8726 28.1238 15.9258C28.3644 16.929 28.2112 17.8764 27.664 18.7682C27.5829 18.8999 27.4816 18.9176 27.36 18.8214C26.9952 18.5364 26.7558 18.5706 26.3834 18.8479C25.669 19.385 24.9989 19.931 24.3732 20.4858C24.325 20.5288 24.2731 20.5339 24.2174 20.501L23.3016 19.9614C23.2931 19.9563 23.2862 19.9489 23.2817 19.9401C23.2771 19.9313 23.2751 19.9214 23.2759 19.9115C23.2767 19.9016 23.2802 19.8922 23.2861 19.8842C23.292 19.8762 23.3 19.87 23.3092 19.8664C23.8412 19.6346 24.472 19.418 24.7912 18.9202C25.3662 18.0107 25.199 17.2836 24.2896 16.739C23.7145 16.3944 23.7576 16.1652 24.4188 16.0512L24.852 15.9752C24.9786 15.9524 25.0534 15.8776 25.0762 15.751Z" fill="#FCBF95"/>
<path d="M14.1816 16.3666C14.3691 16.5667 14.5768 16.5921 14.8048 16.4426C14.9264 16.3641 15.0366 16.3793 15.1354 16.4882L15.4052 16.7884C15.4787 16.872 15.4812 16.9581 15.4128 17.0468C14.9302 17.6738 14.4438 18.0576 14.7782 19.0152C14.953 19.5168 15.3976 19.9069 16.112 20.1856C16.2513 20.2413 16.2564 20.3072 16.1272 20.3832C15.0746 21.0026 13.9194 21.6714 12.9276 21.0178C12.8136 20.941 12.6787 20.9 12.54 20.9L12.0612 20.9038C12.0116 20.9038 11.9627 20.8921 11.9184 20.8696C11.8742 20.8472 11.8359 20.8146 11.8066 20.7746L11.0542 19.7068C10.9782 19.5979 10.9402 19.4763 10.9402 19.342C10.9516 17.9094 10.8794 16.2374 11.7382 15.01C11.7566 14.9846 11.7817 14.9649 11.8106 14.9528C11.8395 14.9407 11.8712 14.9368 11.9021 14.9415C11.9331 14.9462 11.9622 14.9593 11.9862 14.9795C12.0103 14.9996 12.0283 15.0259 12.0384 15.0556L12.3538 16.055C12.373 16.1157 12.4064 16.171 12.4511 16.2163C12.4958 16.2616 12.5507 16.2957 12.6111 16.3157C12.6715 16.3357 12.7359 16.3411 12.7988 16.3315C12.8618 16.3218 12.9215 16.2974 12.9732 16.2602C13.4875 15.8878 13.9713 15.5205 14.4248 15.1582C14.5717 15.0391 14.6997 15.0379 14.8086 15.1544C14.9175 15.2709 14.8985 15.3609 14.7516 15.4242L14.345 15.599C14.2743 15.6298 14.2119 15.6771 14.163 15.7368C14.1142 15.7965 14.0804 15.8669 14.0644 15.9421C14.0484 16.0173 14.0506 16.0951 14.071 16.1689C14.0914 16.2428 14.1293 16.3106 14.1816 16.3666Z" fill="#FCBF95"/>
<path d="M29.1726 15.5534C29.246 15.5534 29.3157 15.5686 29.3816 15.599C29.4307 15.6225 29.4692 15.6638 29.4893 15.7145C29.5094 15.7651 29.5096 15.8215 29.4899 15.8724C29.4702 15.9233 29.4321 15.9648 29.3832 15.9888C29.3342 16.0128 29.278 16.0174 29.2258 16.0018C29.1143 15.9663 29.0408 15.8878 29.0054 15.7662C28.9648 15.6192 29.0206 15.5483 29.1726 15.5534Z" fill="#FCBF95"/>
<path d="M31.0232 19.646L29.659 19.9272C29.5146 19.9576 29.4589 19.9006 29.4918 19.7562C29.6894 18.9354 30.419 18.221 29.7768 17.347C29.7416 17.2989 29.7204 17.2421 29.7157 17.183C29.711 17.1239 29.723 17.0649 29.7502 17.0126C29.8262 16.8656 29.9504 16.7896 30.1226 16.7846C30.6926 16.7618 30.7078 17.3546 31.4792 16.9176C31.5983 16.8492 31.7161 16.8492 31.8326 16.9176C32.0708 17.0518 32.3266 17.1101 32.6002 17.0924C32.6738 17.0879 32.7471 17.1049 32.8112 17.1413C32.8753 17.1777 32.9275 17.232 32.9612 17.2976L33.3336 17.9892C33.357 18.0344 33.3917 18.0729 33.4343 18.1009C33.4769 18.1288 33.526 18.1453 33.5768 18.1488C33.701 18.1564 33.8238 18.1399 33.9454 18.0994C34.062 18.0614 34.1266 18.1032 34.1392 18.2248C34.1519 18.354 34.1405 18.4781 34.105 18.5972C34.0696 18.7264 33.9872 18.7745 33.858 18.7416C32.9878 18.5136 32.6724 20.0792 32.4786 20.691C32.428 20.848 32.3216 20.9228 32.1594 20.9152C32.053 20.9101 31.9872 20.8544 31.9618 20.748C31.8706 20.3528 31.6718 20.0158 31.3652 19.7372C31.2664 19.651 31.1524 19.6206 31.0232 19.646Z" fill="#EF4823"/>
<path d="M23.6474 17.4002C23.649 17.3977 23.6786 17.4231 23.7302 17.4712C23.7819 17.5193 23.8515 17.5864 23.9248 17.6586C24.1933 17.9221 24.1806 18.2223 23.8868 18.5592C23.6461 18.8354 23.2053 18.9405 22.5644 18.8746C22.5171 18.8695 22.4731 18.8482 22.4398 18.8142C22.4066 18.7803 22.3861 18.7358 22.382 18.6884C22.2946 17.7916 22.4808 16.948 23.6474 17.4002Z" fill="#D6E5E5"/>
<path d="M15.6142 18.6467C15.587 18.616 15.566 18.5803 15.5526 18.5415C15.5391 18.5027 15.5335 18.4617 15.536 18.4207C15.5384 18.3798 15.549 18.3397 15.567 18.3028C15.585 18.266 15.6101 18.233 15.6408 18.2059L16.093 17.8069C16.2 17.7124 16.3181 17.6326 16.4405 17.5721C16.563 17.5116 16.6874 17.4716 16.8067 17.4543C16.9259 17.437 17.0377 17.4428 17.1357 17.4714C17.2336 17.4999 17.3157 17.5506 17.3774 17.6207L17.4154 17.6663C17.5398 17.8073 17.5736 18.0181 17.5095 18.2525C17.4454 18.4868 17.2886 18.7256 17.0734 18.9165L16.625 19.3155C16.5944 19.3427 16.5586 19.3637 16.5199 19.3771C16.4811 19.3906 16.4401 19.3962 16.3991 19.3937C16.3582 19.3913 16.3181 19.3807 16.2812 19.3627C16.2443 19.3447 16.2114 19.3196 16.1842 19.2889L15.6142 18.6467Z" fill="#D6E5E5"/>
<path d="M8.33726 21.3143C8.48926 20.4175 8.86166 19.0723 9.53806 18.5061C9.69513 18.3743 9.80659 18.4047 9.87246 18.5973L9.92186 18.7531C9.98013 18.9304 9.94973 19.09 9.83066 19.2319C9.20999 19.9589 9.22013 20.6873 9.86106 21.4169C9.88694 21.4462 9.90497 21.4816 9.91347 21.5198C9.92197 21.558 9.92066 21.5978 9.90965 21.6353C9.89865 21.6729 9.87832 21.707 9.85055 21.7346C9.82279 21.7622 9.78849 21.7823 9.75086 21.7931L9.10106 21.9869C9.00354 22.0159 8.90025 22.0197 8.80088 21.9978C8.7015 21.976 8.60931 21.9293 8.53295 21.862C8.4566 21.7948 8.39858 21.7092 8.36435 21.6134C8.33011 21.5176 8.32079 21.4147 8.33726 21.3143Z" fill="#FCBF95"/>
<path d="M20.159 19C20.3034 19.0406 20.3211 19.1128 20.2122 19.2166L19.209 20.178C19.1735 20.211 19.1317 20.2236 19.0836 20.216L17.6662 19.9538C17.5724 19.9361 17.5534 19.888 17.6092 19.8094C18.2248 18.9709 19.0747 18.7011 20.159 19Z" fill="#FCBF95"/>
<path d="M10.7805 21.3408C10.7197 21.2572 10.6855 21.1622 10.6779 21.0558C10.6577 20.8075 10.7185 20.7847 10.8603 20.9874C11.4075 21.7816 11.9851 22.1882 12.4525 23.0964C13.3721 24.8862 15.9067 24.985 17.5103 24.2592C18.1791 23.9577 18.7225 23.3535 19.1405 22.4466C19.1583 22.4086 19.1836 22.4035 19.2165 22.4314C22.2261 25.1332 24.0805 23.8868 26.4745 21.4244C26.5456 21.3525 26.5876 21.2569 26.5925 21.1559C26.5974 21.0549 26.5649 20.9557 26.5011 20.8772L26.3415 20.6796C26.1794 20.482 26.0261 20.4883 25.8817 20.6986C25.8412 20.7543 25.7905 20.7999 25.7297 20.8354C25.7026 20.8493 25.6713 20.8528 25.6418 20.8453C25.6122 20.8378 25.5864 20.8198 25.5692 20.7946C25.552 20.7695 25.5445 20.7389 25.5482 20.7087C25.5518 20.6784 25.5664 20.6505 25.5891 20.6302L26.6683 19.817C26.7773 19.7334 26.8951 19.7169 27.0217 19.7676C27.5588 19.9779 28.0097 19.8588 28.3745 19.4104C28.486 19.2736 28.5354 19.2939 28.5227 19.4712C28.4581 20.349 28.7849 21.0406 28.6785 21.869C28.5759 22.6632 28.5417 23.4194 28.3631 24.2364C28.1085 25.3802 28.1161 26.7634 27.9679 27.6792C27.8159 28.6406 27.7817 29.716 27.2991 30.5862C27.2105 30.7433 27.1053 30.7559 26.9837 30.6242C26.9255 30.5609 26.8545 30.5178 26.7709 30.495C26.6392 30.457 26.5429 30.5001 26.4821 30.6242C25.6639 32.2962 24.4821 33.6604 22.9367 34.7168C22.9139 34.7324 22.8871 34.7412 22.8594 34.742C22.8317 34.7428 22.8043 34.7357 22.7802 34.7215C22.756 34.7073 22.7362 34.6865 22.7229 34.6615C22.7096 34.6365 22.7034 34.6082 22.7049 34.58C22.7303 34.2431 22.6555 33.9264 22.4807 33.63C22.4406 33.5617 22.3848 33.5039 22.3179 33.4613C22.2511 33.4187 22.175 33.3924 22.0959 33.3847C22.0167 33.3769 21.9367 33.3878 21.8623 33.4166C21.7879 33.4453 21.7212 33.4911 21.6675 33.5502L20.3945 34.9524C20.1209 35.2589 19.9499 35.2095 19.8815 34.8042C19.7245 33.8542 19.2026 33.1968 18.3159 32.832C18.1766 32.7737 18.0613 32.8041 17.9701 32.9232C17.7852 33.1613 17.6649 33.4349 17.6091 33.744C17.6024 33.7854 17.5859 33.8246 17.5611 33.8584C17.5364 33.8922 17.5039 33.9196 17.4665 33.9385C17.4291 33.9574 17.3878 33.9672 17.3459 33.9671C17.3039 33.9669 17.2626 33.9569 17.2253 33.9378C15.3405 32.9726 12.8971 30.78 12.8135 28.5684C12.8034 28.3531 12.7502 28.1985 12.6539 28.1048C12.4943 27.9528 12.3056 27.949 12.0877 28.0934C12.0538 28.1165 12.0155 28.1323 11.9751 28.1398C11.9347 28.1474 11.8931 28.1465 11.8528 28.1372C11.8126 28.128 11.7746 28.1105 11.7411 28.086C11.7077 28.0615 11.6795 28.0304 11.6583 27.9946C10.6133 26.1744 10.1383 23.6664 10.8223 21.66C10.8603 21.546 10.8464 21.4396 10.7805 21.3408Z" fill="#D6E5E5"/>
<path d="M19.6346 20.8848L20.6644 20.1628C21.0723 19.879 21.4865 19.8702 21.907 20.1362L24.4872 21.7702C24.5657 21.8208 24.5733 21.8804 24.51 21.9488C23.8235 22.6936 23.0027 23.0368 22.0476 22.9786C21.1166 22.9216 20.4098 22.1236 19.665 21.6828C19.2394 21.4345 19.2293 21.1685 19.6346 20.8848Z" fill="#D6E5E5"/>
<path d="M30.78 20.7025C30.796 20.6995 30.8125 20.7008 30.8279 20.7061C30.8432 20.7114 30.8569 20.7205 30.8673 20.7326C30.8778 20.7446 30.8847 20.7591 30.8874 20.7745C30.8901 20.7899 30.8884 20.8057 30.8826 20.8203C30.7255 21.256 30.4076 21.4929 29.9288 21.5309C29.7692 21.5461 29.678 21.4739 29.6552 21.3143L29.6362 21.1737C29.6159 21.0318 29.6755 20.9457 29.8148 20.9153L30.78 20.7025Z" fill="#FCBF95"/>
<path d="M16.6098 21.2686C17.0988 20.9798 17.6333 20.8556 18.2134 20.8962C18.3452 20.9038 18.4123 20.9734 18.4148 21.1052C18.4566 23.4232 16.6934 23.807 14.5616 23.6208C14.2357 23.5915 13.935 23.4343 13.7256 23.1838L13.2544 22.6176C13.0315 22.3516 13.0936 22.2198 13.4406 22.2224C14.4464 22.235 15.5028 21.9171 16.6098 21.2686Z" fill="#D6E5E5"/>
</svg>
